{"accessors" : [{"bufferView" : 0, "byteOffset" : 0, "componentType" : 5123, "count" : 804, "type" : "SCALAR", "max" : [698], "min" : [0]}, {"bufferView" : 1, "byteOffset" : 0, "componentType" : 5126, "count" : 699, "type" : "VEC3", "max" : [25, 10, 40], "min" : [-25, -10, -40], "name" : "POSITION"}, {"bufferView" : 1, "byteOffset" : 12, "componentType" : 5126, "count" : 699, "type" : "VEC2", "max" : [4, 2.5], "min" : [-4, -2.5], "name" : "TEXCOORD_0"}, {"bufferView" : 1, "byteOffset" : 20, "componentType" : 5126, "count" : 699, "type" : "VEC3", "max" : [1.0000044107437134, 1.0000044107437134, 1.0000044107437134], "min" : [-1.0000044107437134, -1.0000044107437134, -1.0000044107437134], "name" : "NORMAL"}, {"bufferView" : 0, "byteOffset" : 1608, "componentType" : 5123, "count" : 816, "type" : "SCALAR", "max" : [709], "min" : [0]}, {"bufferView" : 2, "byteOffset" : 0, "componentType" : 5126, "count" : 710, "type" : "VEC3", "max" : [50, 70, -20], "min" : [30, -10, -70], "name" : "POSITION"}, {"bufferView" : 2, "byteOffset" : 12, "componentType" : 5126, "count" : 710, "type" : "VEC2", "max" : [3.25, 4], "min" : [-2.5, -4], "name" : "TEXCOORD_0"}, {"bufferView" : 2, "byteOffset" : 20, "componentType" : 5126, "count" : 710, "type" : "VEC3", "max" : [1.0000044107437134, 1.0000044107437134, 1.0000044107437134], "min" : [-1.0000044107437134, -1.0000044107437134, -1.0000044107437134], "name" : "NORMAL"}], "asset" : {"generator" : "Aspose.3D 23.2", "version" : "2.0"}, "buffers" : [{"uri" : "data:application/octet-stream;base64,", "byteLength" : 55092}], "bufferViews" : [{"buffer" : 0, "byteOffset" : 0, "byteLength" : 3240, "target" : 34963}, {"buffer" : 0, "byteOffset" : 3244, "byteLength" : 25728, "byteStride" : 32, "target" : 34962}, {"buffer" : 0, "byteOffset" : 28976, "byteLength" : 26112, "byteStride" : 32, "target" : 34962}], "meshes" : [{"primitives" : [{"attributes" : {"POSITION" : 1, "TEXCOORD_0" : 2, "NORMAL" : 3}, "indices" : 0, "mode" : 4}], "name" : ""}, {"primitives" : [{"attributes" : {"POSITION" : 5, "TEXCOORD_0" : 6, "NORMAL" : 7}, "indices" : 4, "mode" : 4}], "name" : ""}], "nodes" : [{"mesh" : 0, "name" : "Body1"}, {"mesh" : 1, "name" : "Body2"}], "scene" : 0, "scenes" : [{"nodes" : [0, 1]}]}