<svg width="642" height="674" viewBox="0 0 642 674" fill="none" xmlns="http://www.w3.org/2000/svg">
<path fill-rule="evenodd" clip-rule="evenodd" d="M313.563 157.651C215.301 157.651 135.637 237.716 135.637 336.508C135.637 435.255 215.301 515.32 313.563 515.32C411.856 515.32 491.526 435.255 491.526 336.508C491.526 237.716 411.856 157.651 313.563 157.651Z" fill="#86C7ED"/>
<mask id="mask0_438_31" style="mask-type:luminance" maskUnits="userSpaceOnUse" x="322" y="0" width="320" height="674">
<path d="M322.625 0.73584L641.755 0.73584V673.207H322.625V0.73584Z" fill="white"/>
</mask>
<g mask="url(#mask0_438_31)">
<path fill-rule="evenodd" clip-rule="evenodd" d="M322.624 0.743652V158.532C416.001 158.532 491.686 238.414 491.686 336.979C491.686 435.5 416.001 515.382 322.624 515.382V673.171C498.559 673.171 641.174 522.661 641.174 336.979C641.174 151.279 498.559 0.743652 322.624 0.743652Z" fill="#27096D"/>
</g>
<path fill-rule="evenodd" clip-rule="evenodd" d="M322.625 93.8276V182.191C403.632 182.191 469.271 251.476 469.271 336.981C469.271 422.441 403.632 491.726 322.625 491.726V580.115C449.853 580.115 552.987 471.252 552.987 336.981C552.987 202.684 449.853 93.8276 322.625 93.8276Z" fill="#EAE8EA"/>
<path fill-rule="evenodd" clip-rule="evenodd" d="M315.86 227.616C252.346 227.616 200.851 281.968 200.851 348.992C200.851 416.036 252.346 470.368 315.86 470.368C379.363 470.368 430.858 416.036 430.858 348.992C430.858 281.968 379.363 227.616 315.86 227.616Z" fill="black"/>
<path fill-rule="evenodd" clip-rule="evenodd" d="M307.495 216.373C242.072 216.373 189.021 270.547 189.021 337.385C189.021 404.198 242.072 458.378 307.495 458.378C372.929 458.378 425.981 404.198 425.981 337.385C425.981 270.547 372.929 216.373 307.495 216.373Z" fill="#27096D"/>
<path fill-rule="evenodd" clip-rule="evenodd" d="M322.932 172.08C403.939 172.08 469.578 241.365 469.578 326.869C469.578 330.25 469.481 333.638 469.27 336.982C464.328 256.234 400.711 192.349 322.932 192.349V172.08Z" fill="black"/>
<mask id="mask1_438_31" style="mask-type:luminance" maskUnits="userSpaceOnUse" x="78" y="313" width="44" height="47">
<path d="M78.3301 313.763H121.057V359.409H78.3301V313.763Z" fill="white"/>
</mask>
<g mask="url(#mask1_438_31)">
<path fill-rule="evenodd" clip-rule="evenodd" d="M99.4499 314.834C87.8645 314.834 78.4695 324.749 78.4695 336.982C78.4695 349.171 87.8645 359.086 99.4499 359.086C111.023 359.086 120.418 349.171 120.418 336.982C120.418 324.749 111.023 314.834 99.4499 314.834Z" fill="#27096D"/>
</g>
<path fill-rule="evenodd" clip-rule="evenodd" d="M118.868 435.584C108.846 441.684 105.412 455.229 111.193 465.807C116.98 476.391 129.808 480.014 139.837 473.913C149.859 467.806 153.293 454.261 147.512 443.684C141.725 433.1 128.915 429.477 118.868 435.584Z" fill="#27096D"/>
<path fill-rule="evenodd" clip-rule="evenodd" d="M192.895 529.916C187.109 540.493 190.542 554.038 200.571 560.145C210.593 566.246 223.421 562.622 229.208 552.039C234.989 541.442 231.555 527.916 221.533 521.816C211.51 515.709 198.676 519.332 192.895 529.916Z" fill="#27096D"/>
<path fill-rule="evenodd" clip-rule="evenodd" d="M139.837 200.005C129.808 193.904 116.98 197.527 111.193 208.111C105.412 218.689 108.846 232.227 118.868 238.334C128.915 244.46 141.725 240.837 147.512 230.253C153.293 219.657 149.859 206.131 139.837 200.005Z" fill="#27096D"/>
<path fill-rule="evenodd" clip-rule="evenodd" d="M229.208 121.88C223.421 111.297 210.593 107.673 200.571 113.799C190.542 119.9 187.109 133.426 192.895 144.022C198.676 154.606 211.51 158.229 221.533 152.129C231.555 146.003 234.989 132.477 229.208 121.88Z" fill="#27096D"/>
<mask id="mask2_438_31" style="mask-type:luminance" maskUnits="userSpaceOnUse" x="158" y="538" width="58" height="71">
<path d="M158.13 538.735H215.285V608.835H158.13V538.735Z" fill="white"/>
</mask>
<g mask="url(#mask2_438_31)">
<mask id="mask3_438_31" style="mask-type:luminance" maskUnits="userSpaceOnUse" x="132" y="529" width="94" height="108">
<path d="M225.788 552.497L158.677 636.722L132.966 613.898L200.071 529.68L225.788 552.497Z" fill="white"/>
</mask>
<g mask="url(#mask3_438_31)">
<mask id="mask4_438_31" style="mask-type:luminance" maskUnits="userSpaceOnUse" x="132" y="529" width="94" height="108">
<path d="M158.536 636.9L225.641 552.676L199.93 529.853L132.825 614.077L158.536 636.9Z" fill="white"/>
</mask>
<g mask="url(#mask4_438_31)">
<path d="M203.979 542.582C206.109 539.914 209.875 539.564 212.385 541.799C214.901 544.028 215.221 548.001 213.097 550.67L169.706 605.13C167.582 607.798 163.817 608.148 161.3 605.913C158.784 603.684 158.464 599.71 160.594 597.042L203.979 542.582Z" fill="#86C7ED"/>
<path d="M169.555 604.996C167.504 607.575 163.853 607.919 161.427 605.76C158.99 603.601 158.682 599.748 160.739 597.169L204.13 542.716C206.182 540.136 209.833 539.793 212.264 541.951C214.696 544.11 215.004 547.963 212.946 550.542L169.555 604.996ZM203.835 542.454L160.444 596.908C158.253 599.659 158.579 603.767 161.174 606.072C163.769 608.371 167.661 608.008 169.851 605.263L213.242 550.803C215.432 548.052 215.106 543.945 212.512 541.639C209.917 539.34 206.025 539.703 203.835 542.454Z" fill="#86C7ED"/>
</g>
</g>
</g>
<mask id="mask5_438_31" style="mask-type:luminance" maskUnits="userSpaceOnUse" x="145" y="589" width="34" height="38">
<path d="M145.772 589.272H178.212V626.767H145.772V589.272Z" fill="white"/>
</mask>
<g mask="url(#mask5_438_31)">
<mask id="mask6_438_31" style="mask-type:luminance" maskUnits="userSpaceOnUse" x="132" y="529" width="94" height="108">
<path d="M225.789 552.497L158.678 636.722L132.967 613.898L200.072 529.68L225.789 552.497Z" fill="white"/>
</mask>
<g mask="url(#mask6_438_31)">
<mask id="mask7_438_31" style="mask-type:luminance" maskUnits="userSpaceOnUse" x="132" y="529" width="94" height="108">
<path d="M158.537 636.9L225.642 552.676L199.93 529.853L132.826 614.077L158.537 636.9Z" fill="white"/>
</mask>
<g mask="url(#mask7_438_31)">
<path d="M163.246 601.493L152.463 591.923L175.875 612.702L163.246 601.493ZM151.673 590.464C151.642 590.503 151.612 590.547 151.594 590.592C151.57 590.643 151.558 590.694 151.546 590.744L145.795 624.591C145.789 624.642 145.783 624.699 145.789 624.757C145.795 624.827 145.814 624.89 145.838 624.954C145.874 625.03 145.922 625.094 145.982 625.145C146.037 625.196 146.109 625.234 146.182 625.26C146.248 625.279 146.314 625.285 146.387 625.279C146.435 625.272 146.483 625.266 146.532 625.241L177.136 613.453C177.185 613.44 177.227 613.415 177.269 613.383C177.329 613.345 177.378 613.288 177.414 613.23C177.456 613.16 177.486 613.09 177.498 613.007C177.516 612.925 177.51 612.842 177.492 612.765C177.474 612.695 177.45 612.632 177.414 612.574C177.384 612.536 177.354 612.492 177.317 612.46L177.305 612.453L152.451 590.401L152.445 590.388C152.409 590.356 152.366 590.331 152.324 590.311C152.264 590.28 152.198 590.261 152.137 590.261C152.053 590.254 151.974 590.261 151.902 590.292C151.835 590.318 151.763 590.362 151.709 590.42C151.697 590.432 151.685 590.452 151.673 590.464Z" fill="#86C7ED"/>
</g>
</g>
</g>
<mask id="mask8_438_31" style="mask-type:luminance" maskUnits="userSpaceOnUse" x="158" y="62" width="58" height="70">
<path d="M158.131 62.708H215.285V131.178H158.131V62.708Z" fill="white"/>
</mask>
<g mask="url(#mask8_438_31)">
<mask id="mask9_438_31" style="mask-type:luminance" maskUnits="userSpaceOnUse" x="132" y="33" width="94" height="108">
<path d="M200.418 140.642L132.795 56.8819L158.373 33.8867L225.997 117.646L200.418 140.642Z" fill="white"/>
</mask>
<g mask="url(#mask9_438_31)">
<mask id="mask10_438_31" style="mask-type:luminance" maskUnits="userSpaceOnUse" x="132" y="33" width="94" height="108">
<path d="M132.658 56.7101L200.282 140.47L225.854 117.475L158.231 33.7085L132.658 56.7101Z" fill="white"/>
</mask>
<g mask="url(#mask10_438_31)">
<path d="M213.293 119.589C215.435 122.244 215.14 126.218 212.642 128.466C210.138 130.714 206.372 130.389 204.23 127.74L160.501 73.5791C158.365 70.9236 158.655 66.9499 161.159 64.702C163.657 62.4477 167.428 62.7788 169.564 65.4279L213.293 119.589Z" fill="#86C7ED"/>
<path d="M160.652 73.4458C158.582 70.8794 158.866 67.0267 161.285 64.8552C163.705 62.6773 167.35 62.9957 169.419 65.562L213.148 119.716C215.218 122.283 214.934 126.135 212.515 128.313C210.095 130.485 206.444 130.173 204.375 127.606L160.652 73.4458ZM213.438 119.455L169.715 65.2946C167.507 62.5627 163.615 62.2252 161.032 64.5431C158.456 66.8611 158.148 70.9749 160.356 73.7132L204.085 127.868C206.294 130.606 210.185 130.937 212.762 128.619C215.345 126.301 215.646 122.194 213.438 119.455Z" fill="#EAE8EA"/>
</g>
</g>
</g>
<mask id="mask11_438_31" style="mask-type:luminance" maskUnits="userSpaceOnUse" x="144" y="44" width="35" height="37">
<path d="M144.229 44.7747H178.213V80.6398H144.229V44.7747Z" fill="white"/>
</mask>
<g mask="url(#mask11_438_31)">
<mask id="mask12_438_31" style="mask-type:luminance" maskUnits="userSpaceOnUse" x="132" y="33" width="95" height="108">
<path d="M200.427 140.642L132.803 56.8822L158.382 33.887L226.005 117.647L200.427 140.642Z" fill="white"/>
</mask>
<g mask="url(#mask12_438_31)">
<mask id="mask13_438_31" style="mask-type:luminance" maskUnits="userSpaceOnUse" x="132" y="33" width="94" height="108">
<path d="M132.664 56.7103L200.288 140.47L225.86 117.475L158.237 33.7087L132.664 56.7103Z" fill="white"/>
</mask>
<g mask="url(#mask13_438_31)">
<path d="M165.294 67.1655L175.698 57.8129L152.406 78.7512L165.294 67.1655ZM177.188 57.227C177.158 57.1888 177.122 57.157 177.086 57.1251C177.043 57.0933 176.995 57.0678 176.947 57.0551L146.27 45.4779C146.221 45.4587 146.173 45.446 146.119 45.4396C146.052 45.4333 145.986 45.4396 145.926 45.4587C145.847 45.4842 145.781 45.5224 145.721 45.5734C145.66 45.6307 145.612 45.6944 145.582 45.7708C145.552 45.8345 145.534 45.9045 145.534 45.9746C145.527 46.0319 145.527 46.0828 145.54 46.1338L151.501 79.9357C151.507 79.9866 151.525 80.0375 151.543 80.0885C151.574 80.1522 151.616 80.2158 151.664 80.2604C151.718 80.3177 151.785 80.3623 151.857 80.3878C151.93 80.4196 152.008 80.426 152.086 80.4196C152.153 80.4133 152.219 80.4005 152.274 80.3687C152.322 80.3496 152.364 80.3177 152.394 80.2859L152.406 80.2795L177.122 58.0549L177.134 58.0421C177.17 58.0103 177.2 57.9721 177.23 57.9339C177.267 57.8765 177.291 57.8129 177.303 57.7428C177.327 57.66 177.327 57.5772 177.315 57.5008C177.297 57.4244 177.267 57.3416 177.224 57.2779C177.218 57.2588 177.2 57.2397 177.188 57.227Z" fill="#86C7ED"/>
</g>
</g>
</g>
<mask id="mask14_438_31" style="mask-type:luminance" maskUnits="userSpaceOnUse" x="63" y="173" width="74" height="52">
<path d="M63.9016 173.561H136.503V224.098H63.9016V173.561Z" fill="white"/>
</mask>
<g mask="url(#mask14_438_31)">
<mask id="mask15_438_31" style="mask-type:luminance" maskUnits="userSpaceOnUse" x="36" y="149" width="108" height="87">
<path d="M126.547 235.887L36.5735 180.274L53.5533 149.675L143.527 205.288L126.547 235.887Z" fill="white"/>
</mask>
<g mask="url(#mask15_438_31)">
<mask id="mask16_438_31" style="mask-type:luminance" maskUnits="userSpaceOnUse" x="36" y="149" width="108" height="87">
<path d="M36.3843 180.159L126.358 235.771L143.338 205.172L53.3641 149.56L36.3843 180.159Z" fill="white"/>
</mask>
<g mask="url(#mask16_438_31)">
<path d="M132.131 211.534C134.985 213.298 135.945 217.151 134.279 220.144C132.62 223.137 128.963 224.143 126.115 222.379L67.935 186.418C65.0869 184.661 64.1275 180.802 65.7869 177.809C67.4462 174.816 71.1089 173.816 73.957 175.573L132.131 211.534Z" fill="#86C7ED"/>
<path d="M68.0321 186.247C65.2806 184.54 64.3514 180.802 65.9504 177.911C67.5615 175.02 71.1035 174.046 73.855 175.752L132.035 211.706C134.787 213.413 135.722 217.145 134.117 220.042C132.512 222.933 128.964 223.908 126.213 222.201L68.0321 186.247ZM132.228 211.356L74.0541 175.402C71.1155 173.587 67.3322 174.619 65.6185 177.707C63.9109 180.789 64.9005 184.776 67.8391 186.597L126.019 222.551C128.958 224.366 132.735 223.335 134.449 220.246C136.163 217.158 135.167 213.177 132.228 211.356Z" fill="#86C7ED"/>
</g>
</g>
</g>
<mask id="mask17_438_31" style="mask-type:luminance" maskUnits="userSpaceOnUse" x="43" y="163" width="37" height="34">
<path d="M43.822 163.782H79.3506V196.387H43.822V163.782Z" fill="white"/>
</mask>
<g mask="url(#mask17_438_31)">
<mask id="mask18_438_31" style="mask-type:luminance" maskUnits="userSpaceOnUse" x="36" y="149" width="108" height="87">
<path d="M126.548 235.888L36.574 180.275L53.5538 149.677L143.528 205.289L126.548 235.888Z" fill="white"/>
</mask>
<g mask="url(#mask18_438_31)">
<mask id="mask19_438_31" style="mask-type:luminance" maskUnits="userSpaceOnUse" x="36" y="149" width="108" height="87">
<path d="M36.3848 180.16L126.359 235.772L143.338 205.173L53.3646 149.561L36.3848 180.16Z" fill="white"/>
</mask>
<g mask="url(#mask19_438_31)">
<path d="M70.1435 179.267L77.3636 166.259L61.9043 194.113L70.1435 179.267ZM78.5945 165.182C78.5583 165.163 78.51 165.138 78.4618 165.125C78.4135 165.112 78.3592 165.106 78.3109 165.106L45.733 164.826C45.6848 164.826 45.6305 164.832 45.5762 164.845C45.5158 164.864 45.4555 164.896 45.4012 164.934C45.3408 164.979 45.2865 165.042 45.2443 165.112C45.2081 165.182 45.1839 165.259 45.1779 165.341C45.1658 165.412 45.1719 165.488 45.19 165.552C45.202 165.609 45.2201 165.66 45.2503 165.698L61.4156 195.552C61.4397 195.596 61.4699 195.641 61.5061 195.679C61.5543 195.73 61.6147 195.775 61.675 195.8C61.7414 195.838 61.8198 195.851 61.8923 195.851C61.9767 195.857 62.0491 195.838 62.1215 195.807C62.1819 195.781 62.2362 195.743 62.2845 195.692C62.3207 195.654 62.3508 195.615 62.375 195.571L62.381 195.558L78.7936 165.991L78.7997 165.978C78.8178 165.934 78.8359 165.889 78.854 165.838C78.8721 165.768 78.8721 165.698 78.8661 165.634C78.86 165.552 78.8359 165.469 78.7997 165.399C78.7574 165.335 78.7092 165.265 78.6428 165.221C78.6307 165.208 78.6126 165.195 78.5945 165.182Z" fill="#86C7ED"/>
</g>
</g>
</g>
<mask id="mask20_438_31" style="mask-type:luminance" maskUnits="userSpaceOnUse" x="63" y="450" width="74" height="50">
<path d="M63.9016 450.703H136.503V499.61H63.9016V450.703Z" fill="white"/>
</mask>
<g mask="url(#mask20_438_31)">
<mask id="mask21_438_31" style="mask-type:luminance" maskUnits="userSpaceOnUse" x="36" y="438" width="108" height="87">
<path d="M143.781 469.055L53.4875 524.095L36.6826 493.388L126.976 438.348L143.781 469.055Z" fill="white"/>
</mask>
<g mask="url(#mask21_438_31)">
<mask id="mask22_438_31" style="mask-type:luminance" maskUnits="userSpaceOnUse" x="36" y="438" width="108" height="87">
<path d="M53.2987 524.21L143.586 469.17L126.782 438.463L36.4939 493.503L53.2987 524.21Z" fill="white"/>
</mask>
<g mask="url(#mask22_438_31)">
<path d="M126.481 451.892C129.347 450.147 132.998 451.172 134.639 454.171C136.281 457.177 135.303 461.023 132.437 462.768L74.0573 498.36C71.2032 500.098 67.5466 499.079 65.9053 496.073C64.258 493.068 65.2476 489.221 68.1017 487.477L126.481 451.892Z" fill="#86C7ED"/>
<path d="M73.9614 498.182C71.1978 499.87 67.6618 498.876 66.0688 495.972C64.4819 493.068 65.4352 489.337 68.1988 487.656L126.578 452.064C129.348 450.377 132.884 451.37 134.471 454.274C136.058 457.178 135.111 460.91 132.341 462.597L73.9614 498.182ZM126.385 451.714L68.0058 487.299C65.0611 489.101 64.0414 493.081 65.7369 496.176C67.4325 499.271 71.2098 500.334 74.1545 498.532L132.534 462.947C135.485 461.151 136.504 457.165 134.809 454.07C133.113 450.975 129.336 449.918 126.385 451.714Z" fill="#86C7ED"/>
</g>
</g>
</g>
<mask id="mask23_438_31" style="mask-type:luminance" maskUnits="userSpaceOnUse" x="43" y="476" width="37" height="34">
<path d="M43.822 476.787H79.3506V509.392H43.822V476.787Z" fill="white"/>
</mask>
<g mask="url(#mask23_438_31)">
<mask id="mask24_438_31" style="mask-type:luminance" maskUnits="userSpaceOnUse" x="36" y="438" width="108" height="87">
<path d="M143.782 469.056L53.488 524.095L36.6831 493.388L126.977 438.349L143.782 469.056Z" fill="white"/>
</mask>
<g mask="url(#mask24_438_31)">
<mask id="mask25_438_31" style="mask-type:luminance" maskUnits="userSpaceOnUse" x="36" y="438" width="108" height="87">
<path d="M53.2992 524.21L143.587 469.171L126.782 438.464L36.4944 493.503L53.2992 524.21Z" fill="white"/>
</mask>
<g mask="url(#mask25_438_31)">
<path d="M70.4088 493.651L62.5133 479.227L77.8157 507.183L70.4088 493.651ZM62.2418 477.571C62.1996 477.596 62.1634 477.628 62.1272 477.666C62.0909 477.698 62.0608 477.749 62.0366 477.787L45.6964 507.539C45.6723 507.584 45.6542 507.635 45.6361 507.692C45.618 507.762 45.6119 507.826 45.624 507.896C45.63 507.979 45.6542 508.055 45.6904 508.131C45.7326 508.201 45.7809 508.259 45.8473 508.31C45.9016 508.348 45.9619 508.38 46.0283 508.399C46.0766 508.412 46.1309 508.418 46.1791 508.412L78.757 508.348C78.8053 508.348 78.8596 508.335 78.9079 508.322C78.9742 508.31 79.0346 508.278 79.0889 508.233C79.1553 508.189 79.2035 508.125 79.2458 508.055C79.282 507.985 79.3061 507.902 79.3182 507.826C79.3242 507.756 79.3182 507.686 79.3001 507.616C79.288 507.571 79.2699 507.52 79.2458 507.476L79.2397 507.463L62.9961 477.787L62.99 477.781C62.9719 477.736 62.9418 477.698 62.9055 477.66C62.8573 477.609 62.803 477.571 62.7426 477.545C62.6702 477.507 62.5918 477.495 62.5194 477.488C62.447 477.495 62.3625 477.507 62.2901 477.545C62.272 477.552 62.2599 477.558 62.2418 477.571Z" fill="#86C7ED"/>
</g>
</g>
</g>
<mask id="mask26_438_31" style="mask-type:luminance" maskUnits="userSpaceOnUse" x="23" y="330" width="82" height="15">
<path d="M23.7417 330.066H104.803V344.739H23.7417V330.066Z" fill="white"/>
</mask>
<g mask="url(#mask26_438_31)">
<path d="M98.1804 331.016C101.481 331.016 104.16 333.83 104.16 337.295C104.16 340.765 101.481 343.58 98.1804 343.58H30.7559C27.4552 343.58 24.7761 340.765 24.7761 337.295C24.7761 333.83 27.4552 331.016 30.7559 331.016H98.1804Z" fill="#86C7ED"/>
<path d="M30.7578 343.377C27.5658 343.377 24.9772 340.651 24.9772 337.295C24.9772 333.946 27.5658 331.22 30.7578 331.22H98.1824C101.374 331.22 103.969 333.946 103.969 337.295C103.969 340.651 101.374 343.377 98.1824 343.377H30.7578ZM98.1824 330.812H30.7578C27.3546 330.812 24.585 333.723 24.585 337.295C24.585 340.874 27.3546 343.784 30.7578 343.784H98.1824C101.586 343.784 104.355 340.874 104.355 337.295C104.355 333.723 101.586 330.812 98.1824 330.812Z" fill="#86C7ED"/>
</g>
<mask id="mask27_438_31" style="mask-type:luminance" maskUnits="userSpaceOnUse" x="0" y="319" width="32" height="37">
<path d="M0.751465 319.547H31.4648V355.004H0.751465L0.751465 319.547Z" fill="white"/>
</mask>
<g mask="url(#mask27_438_31)">
<path d="M29.2369 337.805L29.2369 321.152V353.438L29.2369 337.805ZM29.786 319.573C29.7377 319.573 29.6895 319.579 29.6412 319.592C29.5929 319.605 29.5447 319.63 29.5024 319.656L1.25699 336.792C1.21475 336.818 1.17251 336.849 1.13631 336.894C1.08804 336.939 1.05183 336.996 1.02166 337.06C0.991491 337.136 0.973389 337.219 0.973389 337.295C0.973389 337.378 0.991491 337.461 1.02166 337.531C1.05183 337.601 1.08804 337.658 1.13631 337.709C1.17251 337.747 1.21475 337.779 1.25699 337.805L29.5024 354.941C29.5447 354.967 29.5929 354.986 29.6412 355.005C29.7076 355.024 29.78 355.024 29.8464 355.018C29.9188 355.011 29.9972 354.986 30.0636 354.948C30.13 354.903 30.1903 354.846 30.2325 354.782C30.2748 354.725 30.3049 354.667 30.317 354.597C30.3291 354.546 30.3412 354.495 30.3412 354.444V320.152C30.3412 320.101 30.3291 320.05 30.317 319.999C30.3049 319.929 30.2748 319.872 30.2325 319.815C30.1903 319.745 30.13 319.694 30.0636 319.649C29.9972 319.611 29.9188 319.585 29.8464 319.579C29.8222 319.573 29.8041 319.573 29.786 319.573Z" fill="#86C7ED"/>
</g>
<mask id="mask28_438_31" style="mask-type:luminance" maskUnits="userSpaceOnUse" x="235" y="267" width="156" height="152">
<path d="M390.779 271.362L239.604 267.977L235.288 414.65L386.464 418.035L390.779 271.362Z" fill="white"/>
</mask>
<g mask="url(#mask28_438_31)">
<path fill-rule="evenodd" clip-rule="evenodd" d="M288.147 383.612L302.146 404.093C303.419 405.95 303.107 408.536 301.451 410.047L296.29 414.772C295.372 415.618 294.281 415.976 293.078 415.834C291.875 415.693 290.903 415.085 290.191 414.05L274.668 391.438L288.147 383.612ZM369.714 333.693L384.577 334.026C386.954 334.079 388.938 332.059 389.007 329.538C389.075 327.011 387.199 324.93 384.822 324.877L369.965 324.545C367.582 324.491 365.603 326.511 365.529 329.032C365.461 331.559 367.337 333.64 369.714 333.693ZM353.299 291.728L361.133 278.22C362.38 276.063 361.768 273.24 359.749 271.927C357.735 270.615 355.071 271.294 353.819 273.457L345.985 286.965C344.732 289.122 345.344 291.938 347.363 293.258C349.377 294.564 352.047 293.885 353.299 291.728ZM370.009 308.493L382.432 301.279C384.538 300.059 385.333 297.261 384.203 295.032C383.068 292.802 380.442 291.992 378.335 293.212L365.912 300.425C363.806 301.652 363.011 304.45 364.147 306.673C365.276 308.903 367.902 309.713 370.009 308.493ZM350.215 328.657L363.828 355.462C366.384 360.494 364.573 366.875 359.807 369.641C355.367 372.224 349.851 370.775 347.062 366.483L347.056 366.483C331.207 363.554 310.375 365.852 289.488 373.94L270.722 336.993C288.449 322.681 301.634 305.35 307.967 289.535C306.052 284.669 307.912 278.87 312.395 276.269C317.16 273.503 323.148 275.357 325.704 280.389L339.317 307.194C339.738 306.866 340.181 306.564 340.648 306.294C346.31 303.006 353.362 305.19 356.397 311.169C359.438 317.149 357.31 324.663 351.648 327.95C351.175 328.22 350.697 328.458 350.215 328.657ZM284.386 377.686L264.725 338.974L247.905 348.738C237.68 354.669 233.807 368.361 239.289 379.161C244.773 389.954 257.621 393.936 267.845 388.005L284.666 378.234L284.386 377.686Z" fill="white"/>
</g>
</svg>
