<svg width="108" height="123" viewBox="0 0 108 123" fill="none" xmlns="http://www.w3.org/2000/svg">
<mask id="mask0_431_27" style="mask-type:luminance" maskUnits="userSpaceOnUse" x="0" y="0" width="108" height="123">
<path d="M0.990479 0.439697L107.835 0.439697V122.287H0.990479L0.990479 0.439697Z" fill="white"/>
</mask>
<g mask="url(#mask0_431_27)">
<mask id="mask1_431_27" style="mask-type:luminance" maskUnits="userSpaceOnUse" x="2" y="1" width="106" height="121">
<path fill-rule="evenodd" clip-rule="evenodd" d="M54.7451 1.9375C25.7929 1.9375 2.31201 28.7025 2.31201 61.7202C2.31201 94.7445 25.7929 121.516 54.7451 121.516C83.6974 121.516 107.167 94.7445 107.167 61.7202C107.167 28.7025 83.6974 1.9375 54.7451 1.9375Z" fill="white"/>
</mask>
<g mask="url(#mask1_431_27)">
<path d="M2.31201 1.9375L2.31201 121.516H107.167V1.9375L2.31201 1.9375Z" fill="url(#paint0_linear_431_27)"/>
</g>
</g>
<mask id="mask2_431_27" style="mask-type:luminance" maskUnits="userSpaceOnUse" x="22" y="40" width="66" height="60">
<path d="M22.2351 40.4995H87.0004V99.9171H22.2351V40.4995Z" fill="white"/>
</mask>
<g mask="url(#mask2_431_27)">
<path d="M82.9526 66.4511H78.4016V59.0117C78.4016 58.7769 78.3502 58.6074 78.2473 58.4314L73.6449 49.3163C73.9479 48.9707 74.1537 48.5078 74.2509 47.9862C74.4052 47.1777 74.3023 46.3757 73.9479 45.6781L72.227 42.5093C71.4666 41.1205 69.7971 40.6576 68.5851 41.4661C67.979 41.8703 67.5216 42.5615 67.373 43.3178C67.2186 44.1198 67.3215 44.9283 67.676 45.6259L69.3969 48.7947C69.9 49.7205 70.7633 50.2421 71.6724 50.2421C71.7238 50.2421 71.7753 50.2421 71.821 50.2421L76.3777 59.2399V66.4511H72.3299V61.3198C72.3299 54.741 67.4187 49.0294 61.3984 46.4866C59.5289 48.1622 57.1505 49.1402 54.6178 49.1402C52.0907 49.1402 49.7123 48.1622 47.8428 46.5452C41.8168 49.0881 36.9114 54.741 36.9114 61.3198V66.4511H32.8635V59.2985L37.4145 50.2943C37.4659 50.2943 37.5174 50.2943 37.5688 50.2943C38.4779 50.2943 39.3412 49.7792 39.8443 48.8534L41.5652 45.6781C41.9197 44.9869 42.0741 44.1784 41.8682 43.37C41.7196 42.5615 41.2622 41.929 40.6562 41.5248C39.3927 40.6576 37.7689 41.1205 37.0143 42.5615L35.2934 45.7367C34.9389 46.4279 34.7845 47.2364 34.9903 48.0449C35.0875 48.5665 35.2934 48.9707 35.5964 49.375L30.9883 58.4901C30.8911 58.6661 30.8396 58.8356 30.8396 59.0703V66.4511H26.2829C24.0589 66.4511 22.2351 68.3028 22.2351 70.4935C22.2351 72.6843 24.0589 74.5295 26.2829 74.5295H30.8396V95.3025C30.8396 97.8453 32.6634 99.9187 34.8874 99.9187H74.3538C76.5778 99.9187 78.4016 97.8453 78.4016 95.3025V74.5295H82.9526C85.1823 74.5295 87.0004 72.6843 87.0004 70.4935C87.0004 68.3028 85.1823 66.4511 82.9526 66.4511ZM82.9526 72.2214H26.2829C25.2252 72.2214 24.259 71.4129 24.259 70.4935C24.259 69.5677 25.2252 68.7592 26.2829 68.7592H82.9526C84.016 68.7592 84.9765 69.5677 84.9765 70.4935C84.9765 71.4129 84.016 72.2214 82.9526 72.2214Z" fill="#27096D"/>
</g>
<mask id="mask3_431_27" style="mask-type:luminance" maskUnits="userSpaceOnUse" x="44" y="26" width="20" height="22">
<path d="M44.9058 26.0583H63.9329V47.1769H44.9058V26.0583Z" fill="white"/>
</mask>
<g mask="url(#mask3_431_27)">
<path d="M63.7238 36.4449C63.7238 37.1295 63.6666 37.8076 63.5523 38.4726C63.4322 39.1442 63.2607 39.7897 63.032 40.4221C62.8033 41.0546 62.5232 41.6479 62.1916 42.2151C61.86 42.7824 61.4826 43.3105 61.0595 43.793C60.6365 44.2755 60.1734 44.7058 59.676 45.084C59.1843 45.4621 58.6583 45.7816 58.1037 46.0424C57.5491 46.3032 56.9831 46.4988 56.3942 46.6358C55.8111 46.7662 55.2165 46.8314 54.6162 46.8314C54.0216 46.8314 53.427 46.7662 52.8438 46.6358C52.2549 46.4988 51.6832 46.3032 51.1343 46.0424C50.5798 45.7816 50.0538 45.4621 49.5564 45.084C49.059 44.7058 48.6016 44.2755 48.1785 43.793C47.7554 43.3105 47.3781 42.7824 47.0465 42.2151C46.7149 41.6479 46.4347 41.0546 46.2061 40.4221C45.9774 39.7897 45.8001 39.1442 45.6858 38.4726C45.5714 37.8076 45.5085 37.1295 45.5085 36.4449C45.5085 35.7668 45.5714 35.0887 45.6858 34.4236C45.8001 33.7521 45.9774 33.1001 46.2061 32.4741C46.4347 31.8417 46.7149 31.2418 47.0465 30.6746C47.3781 30.1073 47.7554 29.5857 48.1785 29.1032C48.6016 28.6207 49.059 28.1904 49.5564 27.8123C50.0538 27.4341 50.5798 27.1146 51.1343 26.8538C51.6832 26.593 52.2549 26.3909 52.8438 26.2605C53.427 26.1301 54.0216 26.0583 54.6162 26.0583C55.2165 26.0583 55.8111 26.1301 56.3942 26.2605C56.9831 26.3909 57.5491 26.593 58.1037 26.8538C58.6583 27.1146 59.1843 27.4341 59.676 27.8123C60.1734 28.1904 60.6365 28.6207 61.0595 29.1032C61.4826 29.5857 61.86 30.1073 62.1916 30.6746C62.5232 31.2418 62.8033 31.8417 63.032 32.4741C63.2607 33.1001 63.4322 33.7521 63.5523 34.4236C63.6666 35.0887 63.7238 35.7668 63.7238 36.4449Z" fill="#27096D"/>
</g>
<defs>
<linearGradient id="paint0_linear_431_27" x1="97.4758" y1="-4.95616" x2="5.75486" y2="123.966" gradientUnits="userSpaceOnUse">
<stop stop-color="#EDEDED"/>
<stop offset="0.125" stop-color="#EDEDED"/>
<stop offset="0.140625" stop-color="#EDEDED"/>
<stop offset="0.15625" stop-color="#EEEEEE"/>
<stop offset="0.171875" stop-color="#EFEFEF"/>
<stop offset="0.1875" stop-color="#EFEFEF"/>
<stop offset="0.203125" stop-color="#F0F0F0"/>
<stop offset="0.21875" stop-color="#F0F0F0"/>
<stop offset="0.234375" stop-color="#F1F1F1"/>
<stop offset="0.25" stop-color="#F1F1F1"/>
<stop offset="0.265625" stop-color="#F2F2F2"/>
<stop offset="0.28125" stop-color="#F2F2F2"/>
<stop offset="0.296875" stop-color="#F3F3F3"/>
<stop offset="0.3125" stop-color="#F3F3F3"/>
<stop offset="0.328125" stop-color="#F4F4F4"/>
<stop offset="0.34375" stop-color="#F4F4F4"/>
<stop offset="0.359375" stop-color="#F5F5F5"/>
<stop offset="0.375" stop-color="#F5F5F5"/>
<stop offset="0.384177" stop-color="#F6F6F6"/>
<stop offset="0.40625" stop-color="#F6F6F6"/>
<stop offset="0.4375" stop-color="#F7F7F7"/>
<stop offset="0.5" stop-color="#F7F7F7"/>
<stop offset="0.5625" stop-color="#F8F8F8"/>
<stop offset="0.615823" stop-color="#F9F9F9"/>
<stop offset="0.625" stop-color="#FAFAFA"/>
<stop offset="0.6875" stop-color="#FAFAFA"/>
<stop offset="0.75" stop-color="#FBFBFB"/>
<stop offset="0.8125" stop-color="#FCFCFC"/>
<stop offset="0.875" stop-color="#FDFDFD"/>
<stop offset="0.9375" stop-color="#FEFEFE"/>
<stop offset="1" stop-color="white"/>
</linearGradient>
</defs>
</svg>
