<svg width="122" height="127" viewBox="0 0 122 127" fill="none" xmlns="http://www.w3.org/2000/svg">
<mask id="mask0_438_38" style="mask-type:luminance" maskUnits="userSpaceOnUse" x="0" y="0" width="122" height="127">
<path d="M0.562988 0.842285L121.039 0.842285V126.994H0.562988L0.562988 0.842285Z" fill="white"/>
</mask>
<g mask="url(#mask0_438_38)">
<mask id="mask1_438_38" style="mask-type:luminance" maskUnits="userSpaceOnUse" x="1" y="0" width="121" height="127">
<path fill-rule="evenodd" clip-rule="evenodd" d="M61.3566 0.841797C28.3986 0.841797 1.68579 29.027 1.68579 63.8032C1.68579 98.5858 28.3986 126.777 61.3566 126.777C94.3086 126.777 121.021 98.5858 121.021 63.8032C121.021 29.027 94.3086 0.841797 61.3566 0.841797Z" fill="white"/>
</mask>
<g mask="url(#mask1_438_38)">
<path d="M1.68579 0.841797L1.68579 126.777H121.021V0.841797L1.68579 0.841797Z" fill="url(#paint0_linear_438_38)"/>
</g>
</g>
<mask id="mask2_438_38" style="mask-type:luminance" maskUnits="userSpaceOnUse" x="5" y="4" width="113" height="120">
<path d="M5.19849 4.72607L117.963 4.72607V123.733H5.19849L5.19849 4.72607Z" fill="white"/>
</mask>
<g mask="url(#mask2_438_38)">
<mask id="mask3_438_38" style="mask-type:luminance" maskUnits="userSpaceOnUse" x="6" y="5" width="111" height="118">
<path fill-rule="evenodd" clip-rule="evenodd" d="M61.3576 5.41309C30.8012 5.41309 6.01929 31.5541 6.01929 63.8022C6.01929 96.0566 30.8012 122.204 61.3576 122.204C91.9201 122.204 116.684 96.0566 116.684 63.8022C116.684 31.5541 91.9201 5.41309 61.3576 5.41309Z" fill="white"/>
</mask>
<g mask="url(#mask3_438_38)">
<path d="M6.01929 5.41309L6.01929 122.204H116.684V5.41309L6.01929 5.41309Z" fill="url(#paint1_linear_438_38)"/>
</g>
</g>
<path fill-rule="evenodd" clip-rule="evenodd" d="M15.026 24.1299C8.85923 32.1473 4.5147 41.795 2.67432 52.3724H55.4663C59.1229 52.3724 62.1037 49.2202 62.1037 45.3675V31.0011C62.1037 27.2248 59.1712 24.1299 55.593 24.1299H15.026Z" fill="#F6F6F6"/>
<path fill-rule="evenodd" clip-rule="evenodd" d="M15.026 24.1299C8.85923 32.1473 4.5147 41.795 2.67432 52.3724H7.09125C8.9437 42.4828 13.1736 33.5037 19.1111 26.0976C19.6421 25.429 20.1972 24.7731 20.7524 24.1299H15.026Z" fill="#F6F6F6"/>
<mask id="mask4_438_38" style="mask-type:luminance" maskUnits="userSpaceOnUse" x="10" y="30" width="101" height="71">
<path d="M10.9697 30.1484H110.236V100.911H10.9697V30.1484Z" fill="white"/>
</mask>
<g mask="url(#mask4_438_38)">
<path fill-rule="evenodd" clip-rule="evenodd" d="M46.0677 81.2829C54.8714 78.1371 62.7579 74.2589 71.0125 69.6102C72.6598 69.7949 74.1623 70.5718 75.4053 71.7308C75.0554 72.9726 74.9588 74.2908 75.1217 75.4943C75.17 75.8509 75.3812 76.9399 75.8277 77.755L74.9286 85.747C67.1206 91.3764 58.2565 98.3303 58.2565 98.3303C60.4288 91.6184 56.748 84.1231 50.6536 81.6204C48.4271 80.7034 46.0677 81.2829 46.0677 81.2829ZM77.3423 79.7418L76.0208 91.4974L79.8102 87.6956L83.2496 89.4277L82.3566 80.143C82.1092 80.2895 81.8497 80.4169 81.5721 80.5188C80.7274 80.8435 79.8162 80.9008 78.9473 80.6589C77.9758 80.3914 77.9698 80.3404 77.3423 79.7418ZM83.4668 79.2706L87.0269 85.454L88.3363 80.1176L91.8843 78.7293L85.6512 74.157C85.5969 76.4623 85.0659 77.6658 83.4668 79.2706ZM79.7016 68.7505C81.7411 67.9736 83.6901 69.6102 84.0702 72.4058C84.4444 75.195 83.0988 78.0861 81.0653 78.863C79.0318 79.64 77.0768 78.0034 76.6966 75.2078C76.3225 72.4185 77.6681 69.521 79.7016 68.7505ZM44.348 94.9107C44.348 94.9107 41.4034 90.4657 42.4232 86.4284C43.4369 82.391 48.9219 80.9709 53.3569 86.0972C57.7919 91.2299 57.5868 96.7447 55.2033 98.8716C52.8138 100.992 47.4737 99.8014 45.6152 94.8534C43.7507 89.899 45.2954 86.6894 48.1314 87.6065C50.9674 88.5235 52.9647 91.1216 53.0733 93.7453C53.1759 96.3626 50.9915 96.6046 49.6942 95.2354C48.4029 93.879 48.0107 91.9559 48.6081 91.6948C49.2115 91.4337 49.8813 91.9622 50.008 92.287C50.1347 92.6118 50.0864 92.8792 50.0864 92.8792L51.42 91.7967C51.42 91.7967 50.7743 90.6631 49.6339 90.2683C48.4874 89.8799 47.0573 89.9181 46.8582 92.2806C46.6651 94.6432 49.1149 97.7317 51.7398 97.6681C54.3646 97.598 55.7705 93.7198 53.4052 90.0518C51.0398 86.3901 47.715 85.0465 45.2652 86.4029C42.8154 87.7593 43.2257 90.9433 43.3464 91.5292C43.4671 92.1151 44.348 94.9107 44.348 94.9107ZM24.5563 69.4765V50.6014L25.8657 51.0281V69.4765C25.6545 69.4319 25.4373 69.4064 25.214 69.4064C24.9847 69.4064 24.7675 69.4319 24.5563 69.4765ZM72.9857 52.2062L74.5666 62.0194C69.3894 66.77 59.6806 70.9029 50.9372 74.4181C42.5318 70.6355 32.8833 66.6554 27.8208 61.9303L29.2991 52.1425L50.3942 59.0965C50.9493 59.2748 51.5346 59.2748 52.0958 59.0965L72.9857 52.2062ZM25.214 70.247C26.4752 70.247 27.501 71.3232 27.501 72.6541C27.501 73.9787 26.4752 75.0549 25.214 75.0549C23.9469 75.0549 22.9211 73.9787 22.9211 72.6541C22.9211 71.3232 23.9469 70.247 25.214 70.247ZM51.1243 57.3516C51.2027 57.3771 51.2812 57.3771 51.3657 57.3516L91.2508 44.2015C91.4197 44.1442 91.5283 43.9913 91.5283 43.8003C91.5283 43.6156 91.4197 43.4564 91.2508 43.3991L51.3657 30.2553C51.2812 30.2235 51.2027 30.2235 51.1243 30.2553L11.2392 43.3991C11.0702 43.4564 10.9556 43.6156 10.9556 43.8003C10.9556 43.9913 11.0702 44.1442 11.2392 44.2015L25.4675 48.8948L48.3124 41.4441C49.3684 41.0938 49.7244 42.3484 48.7348 42.7113L27.6458 49.6144L51.1243 57.3516ZM26.276 75.6981L28.6293 87.339C27.0967 88.5426 25.6545 88.931 24.2788 88.6381L24.3874 85.0911L24.5986 77.9078L23.5064 85.0911L23.0357 88.1796C22.6194 87.9631 22.203 87.6765 21.7927 87.339L24.1219 75.6854C24.4598 75.8255 24.8339 75.8955 25.214 75.8955C25.5882 75.8955 25.9442 75.8255 26.276 75.6981ZM77.3845 65.9358C84.7099 61.58 92.174 56.823 99.0106 52.5692C99.0106 52.5692 104.496 51.0344 107.675 55.5622C110.596 59.7014 110.155 64.4329 106.414 67.8399C106.414 67.8399 98.4011 71.8136 90.8887 75.8573L85.5124 72.0237C84.921 68.8078 83.503 67.4132 81.8256 66.9483C81.1498 66.7637 80.4498 66.7573 79.78 66.9165C79.1585 66.4644 78.5551 65.9358 77.3845 65.9358Z" fill="#27096D"/>
</g>
<defs>
<linearGradient id="paint0_linear_438_38" x1="10.33" y1="134.546" x2="126.268" y2="5.5582" gradientUnits="userSpaceOnUse">
<stop stop-color="#DEDEDE"/>
<stop offset="0.0625" stop-color="#DEDEDE"/>
<stop offset="0.09375" stop-color="#DEDEDE"/>
<stop offset="0.109375" stop-color="#DFDFDF"/>
<stop offset="0.125" stop-color="#E0E0E0"/>
<stop offset="0.140625" stop-color="#E1E1E1"/>
<stop offset="0.15625" stop-color="#E2E2E2"/>
<stop offset="0.171875" stop-color="#E2E2E2"/>
<stop offset="0.1875" stop-color="#E3E3E3"/>
<stop offset="0.203125" stop-color="#E4E4E4"/>
<stop offset="0.21875" stop-color="#E5E5E5"/>
<stop offset="0.234375" stop-color="#E6E6E6"/>
<stop offset="0.25" stop-color="#E7E7E7"/>
<stop offset="0.265625" stop-color="#E8E8E8"/>
<stop offset="0.28125" stop-color="#E8E8E8"/>
<stop offset="0.296875" stop-color="#E9E9E9"/>
<stop offset="0.3125" stop-color="#EAEAEA"/>
<stop offset="0.328125" stop-color="#EBEBEB"/>
<stop offset="0.34375" stop-color="#ECECEC"/>
<stop offset="0.359375" stop-color="#EDEDED"/>
<stop offset="0.375" stop-color="#EDEDED"/>
<stop offset="0.390625" stop-color="#EEEEEE"/>
<stop offset="0.40625" stop-color="#EFEFEF"/>
<stop offset="0.421875" stop-color="#EFEFEF"/>
<stop offset="0.4375" stop-color="#F0F0F0"/>
<stop offset="0.453125" stop-color="#F0F0F0"/>
<stop offset="0.45995" stop-color="#F1F1F1"/>
<stop offset="0.46875" stop-color="#F1F1F1"/>
<stop offset="0.484375" stop-color="#F2F2F2"/>
<stop offset="0.5" stop-color="#F2F2F2"/>
<stop offset="0.515625" stop-color="#F3F3F3"/>
<stop offset="0.53125" stop-color="#F3F3F3"/>
<stop offset="0.54005" stop-color="#F4F4F4"/>
<stop offset="0.546875" stop-color="#F4F4F4"/>
<stop offset="0.5625" stop-color="#F4F4F4"/>
<stop offset="0.578125" stop-color="#F5F5F5"/>
<stop offset="0.59375" stop-color="#F5F5F5"/>
<stop offset="0.609375" stop-color="#F6F6F6"/>
<stop offset="0.625" stop-color="#F7F7F7"/>
<stop offset="0.640625" stop-color="#F7F7F7"/>
<stop offset="0.65625" stop-color="#F8F8F8"/>
<stop offset="0.671875" stop-color="#F8F8F8"/>
<stop offset="0.6875" stop-color="#F9F9F9"/>
<stop offset="0.703125" stop-color="#F9F9F9"/>
<stop offset="0.71875" stop-color="#FAFAFA"/>
<stop offset="0.734375" stop-color="#FAFAFA"/>
<stop offset="0.75" stop-color="#FBFBFB"/>
<stop offset="0.765625" stop-color="#FCFCFC"/>
<stop offset="0.78125" stop-color="#FCFCFC"/>
<stop offset="0.796875" stop-color="#FDFDFD"/>
<stop offset="0.8125" stop-color="#FDFDFD"/>
<stop offset="0.828125" stop-color="#FEFEFE"/>
<stop offset="0.84375" stop-color="#FEFEFE"/>
<stop offset="0.875" stop-color="white"/>
<stop offset="1" stop-color="white"/>
</linearGradient>
<linearGradient id="paint1_linear_438_38" x1="106.457" y1="-1.32208" x2="19.3524" y2="130.98" gradientUnits="userSpaceOnUse">
<stop stop-color="#EDEDED"/>
<stop offset="0.125" stop-color="#EDEDED"/>
<stop offset="0.140625" stop-color="#EDEDED"/>
<stop offset="0.15625" stop-color="#EEEEEE"/>
<stop offset="0.171875" stop-color="#EFEFEF"/>
<stop offset="0.1875" stop-color="#EFEFEF"/>
<stop offset="0.203125" stop-color="#F0F0F0"/>
<stop offset="0.21875" stop-color="#F0F0F0"/>
<stop offset="0.234375" stop-color="#F1F1F1"/>
<stop offset="0.25" stop-color="#F1F1F1"/>
<stop offset="0.265625" stop-color="#F2F2F2"/>
<stop offset="0.28125" stop-color="#F2F2F2"/>
<stop offset="0.296875" stop-color="#F3F3F3"/>
<stop offset="0.3125" stop-color="#F3F3F3"/>
<stop offset="0.328125" stop-color="#F4F4F4"/>
<stop offset="0.34375" stop-color="#F4F4F4"/>
<stop offset="0.359375" stop-color="#F5F5F5"/>
<stop offset="0.375" stop-color="#F5F5F5"/>
<stop offset="0.384177" stop-color="#F6F6F6"/>
<stop offset="0.40625" stop-color="#F6F6F6"/>
<stop offset="0.4375" stop-color="#F7F7F7"/>
<stop offset="0.5" stop-color="#F7F7F7"/>
<stop offset="0.5625" stop-color="#F8F8F8"/>
<stop offset="0.615823" stop-color="#F9F9F9"/>
<stop offset="0.625" stop-color="#FAFAFA"/>
<stop offset="0.6875" stop-color="#FAFAFA"/>
<stop offset="0.75" stop-color="#FBFBFB"/>
<stop offset="0.8125" stop-color="#FCFCFC"/>
<stop offset="0.875" stop-color="#FDFDFD"/>
<stop offset="0.9375" stop-color="#FEFEFE"/>
<stop offset="1" stop-color="white"/>
</linearGradient>
</defs>
</svg>
