<svg width="121" height="129" viewBox="0 0 121 129" fill="none" xmlns="http://www.w3.org/2000/svg">
<mask id="mask0_438_35" style="mask-type:luminance" maskUnits="userSpaceOnUse" x="0" y="0" width="121" height="129">
<path d="M0.356445 0.84668L120.766 0.84668V128.005H0.356445L0.356445 0.84668Z" fill="white"/>
</mask>
<g mask="url(#mask0_438_35)">
<mask id="mask1_438_35" style="mask-type:luminance" maskUnits="userSpaceOnUse" x="1" y="0" width="120" height="127">
<path fill-rule="evenodd" clip-rule="evenodd" d="M61.0834 0.84668C28.1254 0.84668 1.4126 29.0319 1.4126 63.8081C1.4126 98.5907 28.1254 126.782 61.0834 126.782C94.0354 126.782 120.748 98.5907 120.748 63.8081C120.748 29.0319 94.0354 0.84668 61.0834 0.84668Z" fill="white"/>
</mask>
<g mask="url(#mask1_438_35)">
<path d="M1.4126 0.84668L1.4126 126.782H120.748V0.84668L1.4126 0.84668Z" fill="url(#paint0_linear_438_35)"/>
</g>
</g>
<mask id="mask2_438_35" style="mask-type:luminance" maskUnits="userSpaceOnUse" x="4" y="4" width="114" height="120">
<path d="M4.99194 4.41846L117.756 4.41846V123.426H4.99194L4.99194 4.41846Z" fill="white"/>
</mask>
<g mask="url(#mask2_438_35)">
<mask id="mask3_438_35" style="mask-type:luminance" maskUnits="userSpaceOnUse" x="5" y="5" width="112" height="118">
<path fill-rule="evenodd" clip-rule="evenodd" d="M61.0833 5.42139C30.5268 5.42139 5.75098 31.5624 5.75098 63.8105C5.75098 96.0649 30.5268 122.212 61.0833 122.212C91.6458 122.212 116.416 96.0649 116.416 63.8105C116.416 31.5624 91.6458 5.42139 61.0833 5.42139Z" fill="white"/>
</mask>
<g mask="url(#mask3_438_35)">
<path d="M5.75098 5.42139L5.75098 122.212H116.416V5.42139L5.75098 5.42139Z" fill="url(#paint1_linear_438_35)"/>
</g>
</g>
<path fill-rule="evenodd" clip-rule="evenodd" d="M14.7554 24.1343C8.58854 32.1517 4.24402 41.7994 2.40967 52.3768H55.1956C58.8522 52.3768 61.8331 49.2246 61.8331 45.3719V31.0055C61.8331 27.2292 58.9005 24.1343 55.3223 24.1343H14.7554Z" fill="#F6F6F6"/>
<path fill-rule="evenodd" clip-rule="evenodd" d="M14.7554 24.1343C8.58854 32.1517 4.24402 41.7994 2.40967 52.3768H6.82056C8.67302 42.4871 12.9029 33.5081 18.8404 26.102C19.3714 25.4334 19.9265 24.7775 20.4817 24.1343H14.7554Z" fill="#F6F6F6"/>
<path d="M48.1103 84.7402C47.4767 84.7402 46.8854 84.9568 46.4087 85.3325C49.0094 86.5297 51.9238 87.2047 54.9891 87.2047H65.8384C68.9097 87.2047 71.8181 86.5297 74.4248 85.3325C73.9421 84.9568 73.3568 84.7402 72.7172 84.7402H48.1103Z" fill="#27096D"/>
<path d="M54.9902 88.3457C51.6352 88.3457 48.4613 87.5815 45.6374 86.2188C45.3779 86.6773 45.2271 87.2122 45.2271 87.7853V92.9371H75.6025V87.7853C75.6025 87.2122 75.4577 86.6773 75.1922 86.2188C72.3743 87.5815 69.1943 88.3457 65.8394 88.3457H54.9902Z" fill="#27096D"/>
<path d="M56.0742 49.4237C56.0742 46.8956 58.0232 44.845 60.4127 44.845C62.8082 44.845 64.7572 46.8956 64.7572 49.4237V51.1431C64.7572 53.6648 62.8082 55.7217 60.4127 55.7217C58.0232 55.7217 56.0742 53.6648 56.0742 51.1431V49.4237ZM53.908 78.0483H66.9235C67.8225 78.0483 68.5527 77.2778 68.5527 76.3353V41.4062H52.2788V76.3353C52.2788 77.2778 53.0089 78.0483 53.908 78.0483Z" fill="#27096D"/>
<mask id="mask4_438_35" style="mask-type:luminance" maskUnits="userSpaceOnUse" x="51" y="28" width="19" height="13">
<path d="M51.3335 28.2427H69.8701V40.2848H51.3335V28.2427Z" fill="white"/>
</mask>
<g mask="url(#mask4_438_35)">
<path d="M61.5073 28.8801L60.5358 28.3707C60.4996 28.3516 60.4574 28.3452 60.4151 28.3452C60.3729 28.3452 60.3306 28.3516 60.2944 28.3707L59.329 28.8801C55.1655 31.0771 52.5105 35.4011 52.2993 40.2663H68.537C68.3197 35.4011 65.6708 31.0771 61.5073 28.8801Z" fill="#27096D"/>
</g>
<path d="M60.4142 54.5744C62.2124 54.5744 63.6726 53.0334 63.6726 51.142V49.4226C63.6726 47.5249 62.2124 45.9902 60.4142 45.9902C58.6221 45.9902 57.1619 47.5249 57.1619 49.4226V51.142C57.1619 53.0334 58.6221 54.5744 60.4142 54.5744Z" fill="#27096D"/>
<path d="M43.054 78.0463H51.743C51.3931 77.5687 51.1939 76.9701 51.1939 76.3333V75.1807H41.4248V76.3333C41.4248 77.2758 42.161 78.0463 43.054 78.0463Z" fill="#27096D"/>
<path d="M51.1939 57.4785L49.0941 59.6691L42.5351 66.5276C41.8291 67.2663 41.4248 68.2979 41.4248 69.355V74.042H51.1939V57.4785Z" fill="#27096D"/>
<path d="M79.4018 76.3333V75.1807H69.6387V76.3333C69.6387 76.9701 69.4335 77.5687 69.0896 78.0463H77.7726C78.6717 78.0463 79.4018 77.2758 79.4018 76.3333Z" fill="#27096D"/>
<path d="M79.4054 69.3559C79.4054 68.2988 79.0012 67.2672 78.2891 66.5221L71.8206 59.67L69.6423 57.3584V74.0428H79.4054V69.3559Z" fill="#27096D"/>
<mask id="mask5_438_35" style="mask-type:luminance" maskUnits="userSpaceOnUse" x="74" y="28" width="21" height="23">
<path d="M74.5032 28.2427H94.5906V50.0662H74.5032V28.2427Z" fill="white"/>
</mask>
<g mask="url(#mask5_438_35)">
<path d="M77.7759 34.5407C77.7759 34.3306 77.8785 34.1459 78.0474 34.044L84.5521 30.0321C84.7211 29.9302 84.9323 29.9302 85.1012 30.0321L91.612 34.044C91.7809 34.1459 91.8775 34.3306 91.8775 34.5407V42.5518C91.8775 42.7556 91.7809 42.9403 91.612 43.0485L85.1012 47.054C85.0228 47.1114 84.9262 47.1305 84.8297 47.1305C84.7392 47.1305 84.6426 47.1114 84.5521 47.054L78.0474 43.0485C77.8785 42.9403 77.7759 42.7556 77.7759 42.5518V34.5407ZM84.8297 48.8499C90.2121 48.8499 94.5928 44.2266 94.5928 38.5463C94.5928 32.8659 90.2121 28.2427 84.8297 28.2427C79.4473 28.2427 75.0605 32.8659 75.0605 38.5463C75.0605 44.2266 79.4473 48.8499 84.8297 48.8499Z" fill="#27096D"/>
</g>
<path d="M81.0256 38.5466C81.0256 36.3305 82.7332 34.541 84.8271 34.541C86.9209 34.541 88.6225 36.3305 88.6225 38.5466C88.6225 40.7563 86.9209 42.5521 84.8271 42.5521C82.7332 42.5521 81.0256 40.7563 81.0256 38.5466ZM90.7947 42.221V34.8658L84.8271 31.1914L78.8594 34.8658V42.221L84.8271 45.8954L90.7947 42.221Z" fill="#27096D"/>
<path d="M87.5369 38.5458C87.5369 36.9665 86.3241 35.6802 84.8276 35.6802C83.3312 35.6802 82.1123 36.9665 82.1123 38.5458C82.1123 40.1251 83.3312 41.4051 84.8276 41.4051C86.3241 41.4051 87.5369 40.1251 87.5369 38.5458Z" fill="#27096D"/>
<mask id="mask6_438_35" style="mask-type:luminance" maskUnits="userSpaceOnUse" x="26" y="94" width="13" height="7">
<path d="M26.2358 94.0815H38.9737V100.38H26.2358V94.0815Z" fill="white"/>
</mask>
<g mask="url(#mask6_438_35)">
<path d="M36.542 94.0815H27.865C26.966 94.0815 26.2358 94.8521 26.2358 95.7946V98.6602C26.2358 99.6091 26.966 100.38 27.865 100.38H36.542C37.4411 100.38 38.1712 99.6091 38.1712 98.6602V95.7946C38.1712 94.8521 37.4411 94.0815 36.542 94.0815Z" fill="#27096D"/>
</g>
<path d="M30.3382 65.4068C30.8632 65.7953 31.5088 66.0245 32.2027 66.0245C33.9948 66.0245 35.4551 64.4834 35.4551 62.5921C35.4551 61.3503 34.8336 60.2677 33.9043 59.6691C33.4095 59.3444 32.8242 59.1533 32.2027 59.1533C31.5752 59.1533 30.9959 59.3444 30.4951 59.6691C29.5658 60.2677 28.9443 61.3503 28.9443 62.5921C28.9443 63.7511 29.4934 64.7827 30.3382 65.4068Z" fill="#27096D"/>
<path d="M30.5779 66.8325V92.9354H33.8302V66.8325C33.3294 67.049 32.7803 67.17 32.2071 67.17C31.6338 67.17 31.0787 67.049 30.5779 66.8325Z" fill="#27096D"/>
<mask id="mask7_438_35" style="mask-type:luminance" maskUnits="userSpaceOnUse" x="82" y="94" width="13" height="7">
<path d="M82.2253 94.0815H94.5891V100.38H82.2253V94.0815Z" fill="white"/>
</mask>
<g mask="url(#mask7_438_35)">
<path d="M92.9636 94.0815H84.2867C83.3876 94.0815 82.6575 94.8521 82.6575 95.7946V98.6602C82.6575 99.6091 83.3876 100.38 84.2867 100.38H92.9636C93.8627 100.38 94.5928 99.6091 94.5928 98.6602V95.7946C94.5928 94.8521 93.8627 94.0815 92.9636 94.0815Z" fill="#27096D"/>
</g>
<path d="M91.877 62.5921C91.877 61.3503 91.2616 60.2677 90.3323 59.6691C89.8315 59.3444 89.2462 59.1533 88.6247 59.1533C87.9971 59.1533 87.4179 59.3444 86.917 59.6691C85.9878 60.2741 85.3723 61.3567 85.3723 62.5921C85.3723 64.4834 86.8326 66.0245 88.6247 66.0245C90.4228 66.0245 91.877 64.4834 91.877 62.5921Z" fill="#27096D"/>
<path d="M86.9954 66.8325V92.9354H90.2538V66.8325C89.7529 67.049 89.1978 67.17 88.6246 67.17C88.0513 67.17 87.4962 67.049 86.9954 66.8325Z" fill="#27096D"/>
<path d="M45.8731 85.8607L45.8792 85.8543C46.1024 85.5677 46.0119 85.1474 45.6921 84.9819C40.0201 82.0971 35.9411 76.6588 35.0842 70.2524H34.9153V74.1497C34.9153 74.2198 34.9334 74.2898 34.9515 74.3535C36.7134 79.4034 40.4364 83.5809 45.2335 86.0199C45.4507 86.1281 45.7223 86.0644 45.8731 85.8607Z" fill="#27096D"/>
<path d="M85.9087 74.1497V70.2524H85.7458C84.889 76.6588 80.81 82.0971 75.1379 84.9819C74.8181 85.1474 74.7276 85.5677 74.9509 85.8543L74.9569 85.8607C75.1138 86.0644 75.3793 86.1281 75.6026 86.0199C80.3936 83.5809 84.1166 79.4034 85.8725 74.3535C85.8967 74.2898 85.9087 74.2198 85.9087 74.1497Z" fill="#27096D"/>
<mask id="mask8_438_35" style="mask-type:luminance" maskUnits="userSpaceOnUse" x="42" y="94" width="38" height="7">
<path d="M42.0654 94.0815H79.1387V100.38H42.0654V94.0815Z" fill="white"/>
</mask>
<g mask="url(#mask8_438_35)">
<path d="M76.1469 94.0815H44.6793C43.7863 94.0815 43.0562 94.8521 43.0562 95.7946V98.6602C43.0562 99.6091 43.7863 100.38 44.6793 100.38H76.1469C77.046 100.38 77.7761 99.6091 77.7761 98.6602V95.7946C77.7761 94.8521 77.046 94.0815 76.1469 94.0815Z" fill="#27096D"/>
</g>
<defs>
<linearGradient id="paint0_linear_438_35" x1="10.0576" y1="134.551" x2="125.996" y2="5.56322" gradientUnits="userSpaceOnUse">
<stop stop-color="#DEDEDE"/>
<stop offset="0.0625" stop-color="#DEDEDE"/>
<stop offset="0.09375" stop-color="#DEDEDE"/>
<stop offset="0.109375" stop-color="#DFDFDF"/>
<stop offset="0.125" stop-color="#E0E0E0"/>
<stop offset="0.140625" stop-color="#E1E1E1"/>
<stop offset="0.15625" stop-color="#E2E2E2"/>
<stop offset="0.171875" stop-color="#E2E2E2"/>
<stop offset="0.1875" stop-color="#E3E3E3"/>
<stop offset="0.203125" stop-color="#E4E4E4"/>
<stop offset="0.21875" stop-color="#E5E5E5"/>
<stop offset="0.234375" stop-color="#E6E6E6"/>
<stop offset="0.25" stop-color="#E7E7E7"/>
<stop offset="0.265625" stop-color="#E8E8E8"/>
<stop offset="0.28125" stop-color="#E8E8E8"/>
<stop offset="0.296875" stop-color="#E9E9E9"/>
<stop offset="0.3125" stop-color="#EAEAEA"/>
<stop offset="0.328125" stop-color="#EBEBEB"/>
<stop offset="0.34375" stop-color="#ECECEC"/>
<stop offset="0.359375" stop-color="#EDEDED"/>
<stop offset="0.375" stop-color="#EDEDED"/>
<stop offset="0.390625" stop-color="#EEEEEE"/>
<stop offset="0.40625" stop-color="#EFEFEF"/>
<stop offset="0.421875" stop-color="#EFEFEF"/>
<stop offset="0.4375" stop-color="#F0F0F0"/>
<stop offset="0.453125" stop-color="#F0F0F0"/>
<stop offset="0.45995" stop-color="#F1F1F1"/>
<stop offset="0.46875" stop-color="#F1F1F1"/>
<stop offset="0.484375" stop-color="#F2F2F2"/>
<stop offset="0.5" stop-color="#F2F2F2"/>
<stop offset="0.515625" stop-color="#F3F3F3"/>
<stop offset="0.53125" stop-color="#F3F3F3"/>
<stop offset="0.54005" stop-color="#F4F4F4"/>
<stop offset="0.546875" stop-color="#F4F4F4"/>
<stop offset="0.5625" stop-color="#F4F4F4"/>
<stop offset="0.578125" stop-color="#F5F5F5"/>
<stop offset="0.59375" stop-color="#F5F5F5"/>
<stop offset="0.609375" stop-color="#F6F6F6"/>
<stop offset="0.625" stop-color="#F7F7F7"/>
<stop offset="0.640625" stop-color="#F7F7F7"/>
<stop offset="0.65625" stop-color="#F8F8F8"/>
<stop offset="0.671875" stop-color="#F8F8F8"/>
<stop offset="0.6875" stop-color="#F9F9F9"/>
<stop offset="0.703125" stop-color="#F9F9F9"/>
<stop offset="0.71875" stop-color="#FAFAFA"/>
<stop offset="0.734375" stop-color="#FAFAFA"/>
<stop offset="0.75" stop-color="#FBFBFB"/>
<stop offset="0.765625" stop-color="#FCFCFC"/>
<stop offset="0.78125" stop-color="#FCFCFC"/>
<stop offset="0.796875" stop-color="#FDFDFD"/>
<stop offset="0.8125" stop-color="#FDFDFD"/>
<stop offset="0.828125" stop-color="#FEFEFE"/>
<stop offset="0.84375" stop-color="#FEFEFE"/>
<stop offset="0.875" stop-color="white"/>
<stop offset="1" stop-color="white"/>
</linearGradient>
<linearGradient id="paint1_linear_438_35" x1="106.184" y1="-1.31365" x2="19.0788" y2="130.988" gradientUnits="userSpaceOnUse">
<stop stop-color="#EDEDED"/>
<stop offset="0.125" stop-color="#EDEDED"/>
<stop offset="0.140625" stop-color="#EDEDED"/>
<stop offset="0.15625" stop-color="#EEEEEE"/>
<stop offset="0.171875" stop-color="#EFEFEF"/>
<stop offset="0.1875" stop-color="#EFEFEF"/>
<stop offset="0.203125" stop-color="#F0F0F0"/>
<stop offset="0.21875" stop-color="#F0F0F0"/>
<stop offset="0.234375" stop-color="#F1F1F1"/>
<stop offset="0.25" stop-color="#F1F1F1"/>
<stop offset="0.265625" stop-color="#F2F2F2"/>
<stop offset="0.28125" stop-color="#F2F2F2"/>
<stop offset="0.296875" stop-color="#F3F3F3"/>
<stop offset="0.3125" stop-color="#F3F3F3"/>
<stop offset="0.328125" stop-color="#F4F4F4"/>
<stop offset="0.34375" stop-color="#F4F4F4"/>
<stop offset="0.359375" stop-color="#F5F5F5"/>
<stop offset="0.375" stop-color="#F5F5F5"/>
<stop offset="0.384177" stop-color="#F6F6F6"/>
<stop offset="0.40625" stop-color="#F6F6F6"/>
<stop offset="0.4375" stop-color="#F7F7F7"/>
<stop offset="0.5" stop-color="#F7F7F7"/>
<stop offset="0.5625" stop-color="#F8F8F8"/>
<stop offset="0.615823" stop-color="#F9F9F9"/>
<stop offset="0.625" stop-color="#FAFAFA"/>
<stop offset="0.6875" stop-color="#FAFAFA"/>
<stop offset="0.75" stop-color="#FBFBFB"/>
<stop offset="0.8125" stop-color="#FCFCFC"/>
<stop offset="0.875" stop-color="#FDFDFD"/>
<stop offset="0.9375" stop-color="#FEFEFE"/>
<stop offset="1" stop-color="white"/>
</linearGradient>
</defs>
</svg>
