<svg width="648" height="689" viewBox="0 0 648 689" fill="none" xmlns="http://www.w3.org/2000/svg">
<mask id="mask0_430_22" style="mask-type:luminance" maskUnits="userSpaceOnUse" x="470" y="45" width="34" height="38">
<path d="M470.968 45.4216H503.167V82.1428H470.968V45.4216Z" fill="white"/>
</mask>
<g mask="url(#mask0_430_22)">
<mask id="mask1_430_22" style="mask-type:luminance" maskUnits="userSpaceOnUse" x="426" y="33" width="89" height="111">
<path d="M514.646 57.1891L451.064 143.424L426.697 120.056L490.279 33.8276L514.646 57.1891Z" fill="white"/>
</mask>
<g mask="url(#mask1_430_22)">
<mask id="mask2_430_22" style="mask-type:luminance" maskUnits="userSpaceOnUse" x="426" y="33" width="89" height="111">
<path d="M514.651 57.1886L451.069 143.423L426.702 120.055L490.284 33.8271L514.651 57.1886Z" fill="white"/>
</mask>
<g mask="url(#mask2_430_22)">
<path d="M501.202 47.252L498.52 64.305L496.068 79.8916L501.202 47.252ZM472.462 58.0297C472.49 57.9906 472.53 57.958 472.565 57.9254C472.605 57.8928 472.65 57.8732 472.69 57.8537L501.688 45.785C501.734 45.7654 501.786 45.7524 501.837 45.7459C501.9 45.7393 501.957 45.7459 502.02 45.7654C502.089 45.7915 502.157 45.8306 502.214 45.8828C502.266 45.9349 502.312 46.0067 502.346 46.0784C502.374 46.1436 502.392 46.2153 502.392 46.287C502.403 46.3457 502.397 46.3979 502.386 46.45L496.937 81.1043C496.932 81.1565 496.914 81.2086 496.897 81.2608C496.869 81.326 496.829 81.3847 496.783 81.4368C496.732 81.4955 496.669 81.5412 496.6 81.5672C496.531 81.5998 496.457 81.6064 496.383 81.6064C496.32 81.5998 496.263 81.5868 496.206 81.5542C496.166 81.5281 496.12 81.502 496.091 81.4694L496.08 81.4629L472.53 58.8773L472.525 58.8708C472.49 58.8382 472.462 58.7991 472.433 58.7534C472.393 58.6948 472.37 58.6296 472.359 58.5644C472.336 58.4796 472.336 58.3948 472.347 58.3101C472.359 58.2318 472.387 58.1536 472.433 58.0819C472.439 58.0623 472.45 58.0493 472.462 58.0297Z" fill="#86C7ED"/>
<path d="M599.477 162.927L596.794 179.98L594.342 195.566L599.477 162.927ZM570.736 173.704C570.764 173.665 570.804 173.633 570.839 173.6C570.879 173.567 570.925 173.548 570.965 173.528L599.963 161.46C600.008 161.44 600.06 161.427 600.111 161.421C600.174 161.414 600.231 161.421 600.294 161.44C600.363 161.466 600.431 161.505 600.489 161.557C600.54 161.61 600.586 161.681 600.62 161.753C600.649 161.818 600.666 161.89 600.666 161.962C600.677 162.02 600.672 162.073 600.66 162.125L595.212 196.779C595.206 196.831 595.189 196.883 595.171 196.935C595.143 197.001 595.103 197.059 595.057 197.112C595.006 197.17 594.943 197.216 594.874 197.242C594.806 197.275 594.731 197.281 594.657 197.281C594.594 197.275 594.537 197.262 594.48 197.229C594.44 197.203 594.394 197.177 594.365 197.144L594.354 197.138L570.804 174.552L570.799 174.545C570.764 174.513 570.736 174.474 570.707 174.428C570.667 174.369 570.644 174.304 570.633 174.239C570.61 174.154 570.61 174.07 570.622 173.985C570.633 173.907 570.662 173.828 570.707 173.757C570.713 173.737 570.724 173.724 570.736 173.704Z" fill="#86C7ED"/>
</g>
</g>
</g>
<mask id="mask3_430_22" style="mask-type:luminance" maskUnits="userSpaceOnUse" x="525" y="320" width="41" height="48">
<path d="M525.126 320.829H565.216V367.565H525.126V320.829Z" fill="white"/>
</mask>
<g mask="url(#mask3_430_22)">
<path fill-rule="evenodd" clip-rule="evenodd" d="M545.197 321.658C556.18 321.658 565.076 331.81 565.076 344.335C565.076 356.815 556.18 366.967 545.197 366.967C534.232 366.967 525.335 356.815 525.335 344.335C525.335 331.81 534.232 321.658 545.197 321.658Z" fill="#27096D"/>
</g>
<path fill-rule="evenodd" clip-rule="evenodd" d="M345.388 161.696C440.907 161.696 518.359 243.451 518.359 344.327C518.359 445.158 440.907 526.912 345.388 526.912C249.825 526.912 172.379 445.158 172.379 344.327C172.379 243.451 249.825 161.696 345.388 161.696Z" fill="#86C7ED"/>
<mask id="mask4_430_22" style="mask-type:luminance" maskUnits="userSpaceOnUse" x="0" y="0" width="335" height="689">
<path d="M0.364502 0.0737305L334.854 0.0737305V688.596H0.364502L0.364502 0.0737305Z" fill="white"/>
</mask>
<g mask="url(#mask4_430_22)">
<path fill-rule="evenodd" clip-rule="evenodd" d="M333.629 0.0734863V161.628C235.943 161.628 156.777 243.416 156.777 344.334C156.777 445.207 235.943 526.995 333.629 526.995V688.556C149.588 688.556 0.395996 534.447 0.395996 344.334C0.395996 154.202 149.588 0.0734863 333.629 0.0734863Z" fill="#27096D"/>
</g>
<path fill-rule="evenodd" clip-rule="evenodd" d="M334.326 95.1104V185.523C257.114 185.523 194.551 256.414 194.551 343.9C194.551 431.348 257.114 502.233 334.326 502.233V592.671C213.053 592.671 114.751 481.284 114.751 343.9C114.751 206.497 213.053 95.1104 334.326 95.1104Z" fill="#EAE8EA"/>
<path fill-rule="evenodd" clip-rule="evenodd" d="M334.322 186.389C257.136 186.389 194.593 257.076 194.593 344.312C194.593 347.768 194.679 351.218 194.88 354.629C199.595 272.247 260.206 207.075 334.322 207.075V186.389Z" fill="black"/>
<path fill-rule="evenodd" clip-rule="evenodd" d="M525.952 445.327C535.494 451.501 538.769 465.187 533.26 475.887C527.75 486.58 515.537 490.25 505.994 484.076C496.452 477.902 493.178 464.209 498.687 453.516C504.196 442.822 516.393 439.153 525.952 445.327Z" fill="#27096D"/>
<path fill-rule="evenodd" clip-rule="evenodd" d="M457.406 541.662C462.915 552.783 459.641 567.024 450.098 573.444C440.556 579.865 428.337 576.049 422.833 564.928C417.324 553.78 420.598 539.566 430.141 533.145C439.683 526.724 451.897 530.541 457.406 541.662Z" fill="#27096D"/>
<path fill-rule="evenodd" clip-rule="evenodd" d="M505.994 203.826C515.537 197.408 527.75 201.216 533.26 212.34C538.769 223.457 535.494 237.694 525.952 244.112C516.393 250.551 504.196 246.736 498.687 235.619C493.178 224.475 496.452 210.265 505.994 203.826Z" fill="#27096D"/>
<path fill-rule="evenodd" clip-rule="evenodd" d="M422.833 124.186C428.337 113.49 440.556 109.828 450.098 116.019C459.641 122.191 462.915 135.854 457.406 146.569C451.897 157.259 439.683 160.927 430.141 154.755C420.598 148.564 417.324 134.895 422.833 124.186Z" fill="#27096D"/>
<mask id="mask5_430_22" style="mask-type:luminance" maskUnits="userSpaceOnUse" x="435" y="63" width="53" height="73">
<path d="M435.843 63.7793H487.798V135.377H435.843V63.7793Z" fill="white"/>
</mask>
<g mask="url(#mask5_430_22)">
<mask id="mask6_430_22" style="mask-type:luminance" maskUnits="userSpaceOnUse" x="427" y="33" width="85" height="113">
<path d="M511.439 57.0479L450.439 145.12L427.062 121.254L488.062 33.1887L511.439 57.0479Z" fill="white"/>
</mask>
<g mask="url(#mask6_430_22)">
<mask id="mask7_430_22" style="mask-type:luminance" maskUnits="userSpaceOnUse" x="427" y="33" width="85" height="113">
<path d="M511.436 57.0459L450.436 145.118L427.059 121.252L488.059 33.1868L511.436 57.0459Z" fill="white"/>
</mask>
<g mask="url(#mask7_430_22)">
<path d="M438.494 123.376C436.558 126.166 436.849 130.321 439.136 132.652C441.423 134.989 444.84 134.623 446.777 131.833L486.22 74.8852C488.151 72.095 487.86 67.9398 485.573 65.6092C483.291 63.2719 479.868 63.6381 477.932 66.4283L438.494 123.376Z" fill="#86C7ED"/>
<path d="M486.084 74.7518C487.955 72.0549 487.675 68.0262 485.465 65.7688C483.254 63.5114 479.936 63.871 478.071 66.5679L438.627 123.509C436.757 126.206 437.037 130.234 439.253 132.492C441.458 134.743 444.776 134.39 446.641 131.693L486.084 74.7518ZM438.359 123.236L477.802 66.2948C479.793 63.4182 483.331 63.0386 485.689 65.4425C488.048 67.8464 488.344 72.1481 486.353 75.0248L446.91 131.966C444.919 134.842 441.381 135.222 439.022 132.818C436.664 130.408 436.368 126.112 438.359 123.236Z" fill="#86C7ED"/>
</g>
</g>
</g>
<mask id="mask8_430_22" style="mask-type:luminance" maskUnits="userSpaceOnUse" x="472" y="602" width="32" height="38">
<path d="M472.433 602.917H503.169V639.638H472.433V602.917Z" fill="white"/>
</mask>
<g mask="url(#mask8_430_22)">
<mask id="mask9_430_22" style="mask-type:luminance" maskUnits="userSpaceOnUse" x="426" y="541" width="89" height="111">
<path d="M490.619 651.12L426.546 565.362L450.776 541.818L514.849 627.576L490.619 651.12Z" fill="white"/>
</mask>
<g mask="url(#mask9_430_22)">
<mask id="mask10_430_22" style="mask-type:luminance" maskUnits="userSpaceOnUse" x="426" y="541" width="89" height="111">
<path d="M490.621 651.121L426.548 565.363L450.777 541.819L514.851 627.577L490.621 651.121Z" fill="white"/>
</mask>
<g mask="url(#mask10_430_22)">
<path d="M502.112 638.544L473.029 626.684L496.458 603.916L502.112 638.544L473.029 626.684L496.458 603.916L502.112 638.544Z" fill="#86C7ED"/>
<path d="M501.432 637.637L496.115 605.03L474.052 626.468L501.432 637.637ZM496.858 603.531C496.887 603.57 496.91 603.615 496.933 603.661C496.955 603.713 496.967 603.765 496.978 603.818L502.621 638.426C502.633 638.485 502.633 638.544 502.627 638.596C502.627 638.668 502.61 638.739 502.581 638.798C502.553 638.876 502.507 638.948 502.45 639C502.393 639.052 502.33 639.091 502.261 639.117C502.198 639.137 502.135 639.143 502.067 639.137C502.021 639.137 501.975 639.124 501.929 639.098L472.863 627.251C472.817 627.231 472.777 627.205 472.731 627.179C472.68 627.133 472.634 627.081 472.6 627.023C472.56 626.951 472.531 626.879 472.514 626.794C472.503 626.71 472.503 626.625 472.52 626.547C472.537 626.475 472.56 626.41 472.594 626.351C472.623 626.305 472.651 626.266 472.686 626.234L472.697 626.227L496.115 603.472L496.126 603.459C496.155 603.426 496.195 603.4 496.241 603.374C496.298 603.342 496.355 603.329 496.418 603.329C496.492 603.316 496.567 603.329 496.635 603.355C496.698 603.387 496.767 603.426 496.818 603.485C496.835 603.498 496.847 603.518 496.858 603.531Z" fill="#EAE8EA"/>
</g>
</g>
</g>
<mask id="mask11_430_22" style="mask-type:luminance" maskUnits="userSpaceOnUse" x="510" y="459" width="70" height="53">
<path d="M510.488 459.367H579.278V511.111H510.488V459.367Z" fill="white"/>
</mask>
<g mask="url(#mask11_430_22)">
<mask id="mask12_430_22" style="mask-type:luminance" maskUnits="userSpaceOnUse" x="503" y="447" width="102" height="90">
<path d="M588.888 536.075L503.638 479.135L519.726 447.812L604.976 504.746L588.888 536.075Z" fill="white"/>
</mask>
<g mask="url(#mask12_430_22)">
<mask id="mask13_430_22" style="mask-type:luminance" maskUnits="userSpaceOnUse" x="503" y="447" width="102" height="90">
<path d="M588.886 536.073L503.636 479.133L519.724 447.81L604.974 504.744L588.886 536.073Z" fill="white"/>
</mask>
<g mask="url(#mask13_430_22)">
<path d="M519.935 461.553C517.237 459.747 513.772 460.777 512.2 463.841C510.622 466.906 511.536 470.85 514.235 472.656L569.355 509.469C572.059 511.275 575.524 510.251 577.096 507.187C578.674 504.122 577.76 500.171 575.061 498.372L519.935 461.553Z" fill="#86C7ED"/>
<path d="M569.451 509.294C572.058 511.035 575.42 510.044 576.941 507.084C578.461 504.117 577.575 500.296 574.968 498.549L519.842 461.73C517.235 459.989 513.879 460.98 512.353 463.947C510.832 466.907 511.718 470.734 514.325 472.475L569.451 509.294ZM520.031 461.372L575.151 498.191C577.935 500.049 578.879 504.13 577.255 507.293C575.631 510.448 572.047 511.511 569.262 509.653L514.142 472.834C511.358 470.976 510.414 466.894 512.038 463.732C513.662 460.576 517.247 459.513 520.031 461.372Z" fill="#EAE8EA"/>
</g>
</g>
</g>
<mask id="mask14_430_22" style="mask-type:luminance" maskUnits="userSpaceOnUse" x="564" y="487" width="33" height="35">
<path d="M564.642 487.745H596.842V521.128H564.642V487.745Z" fill="white"/>
</mask>
<g mask="url(#mask14_430_22)">
<mask id="mask15_430_22" style="mask-type:luminance" maskUnits="userSpaceOnUse" x="503" y="447" width="102" height="90">
<path d="M588.885 536.078L503.635 479.138L519.723 447.815L604.973 504.749L588.885 536.078Z" fill="white"/>
</mask>
<g mask="url(#mask15_430_22)">
<mask id="mask16_430_22" style="mask-type:luminance" maskUnits="userSpaceOnUse" x="503" y="447" width="102" height="90">
<path d="M588.885 536.076L503.635 479.136L519.723 447.814L604.973 504.747L588.885 536.076Z" fill="white"/>
</mask>
<g mask="url(#mask16_430_22)">
<path d="M596.114 519.893L565.229 519.606L580.786 489.307L596.114 519.893L565.229 519.606L580.786 489.307L596.114 519.893Z" fill="#EAE8EA"/>
<path d="M570.883 509.772L580.782 490.495L566.134 519.02L570.883 509.772ZM581.05 488.799C581.09 488.825 581.125 488.858 581.159 488.897C581.193 488.93 581.222 488.982 581.245 489.021L596.561 519.587C596.584 519.639 596.607 519.692 596.619 519.744C596.636 519.815 596.641 519.887 596.636 519.952C596.624 520.037 596.601 520.122 596.567 520.194C596.527 520.265 596.476 520.324 596.418 520.376C596.367 520.415 596.31 520.448 596.247 520.461C596.195 520.48 596.15 520.487 596.104 520.48L565.236 520.2C565.191 520.2 565.139 520.194 565.094 520.181C565.031 520.161 564.973 520.128 564.922 520.083C564.859 520.031 564.813 519.972 564.779 519.9C564.739 519.828 564.716 519.744 564.71 519.659C564.705 519.587 564.705 519.522 564.722 519.45C564.739 519.398 564.756 519.346 564.773 519.307L564.779 519.294L580.33 489.015L580.336 489.008C580.359 488.962 580.387 488.923 580.422 488.884C580.467 488.832 580.519 488.793 580.576 488.767C580.644 488.734 580.713 488.715 580.787 488.715C580.856 488.715 580.936 488.734 580.999 488.767C581.022 488.78 581.033 488.786 581.05 488.799Z" fill="#86C7ED"/>
</g>
</g>
</g>
<mask id="mask17_430_22" style="mask-type:luminance" maskUnits="userSpaceOnUse" x="517" y="178" width="70" height="53">
<path d="M517.805 178.952H586.595V230.695H517.805V178.952Z" fill="white"/>
</mask>
<g mask="url(#mask17_430_22)">
<mask id="mask18_430_22" style="mask-type:luminance" maskUnits="userSpaceOnUse" x="511" y="154" width="102" height="88">
<path d="M612.683 185.544L527.136 241.897L511.213 210.464L596.76 154.111L612.683 185.544Z" fill="white"/>
</mask>
<g mask="url(#mask18_430_22)">
<mask id="mask19_430_22" style="mask-type:luminance" maskUnits="userSpaceOnUse" x="511" y="154" width="102" height="88">
<path d="M612.684 185.543L527.136 241.897L511.214 210.463L596.761 154.11L612.684 185.543Z" fill="white"/>
</mask>
<g mask="url(#mask19_430_22)">
<path d="M521.796 217.048C519.086 218.834 518.154 222.772 519.715 225.85C521.27 228.927 524.729 229.977 527.439 228.191L582.754 191.75C585.464 189.97 586.401 186.025 584.841 182.948C583.285 179.87 579.821 178.827 577.111 180.607L521.796 217.048Z" fill="#86C7ED"/>
<path d="M582.668 191.574C585.286 189.846 586.19 186.026 584.68 183.052C583.177 180.079 579.826 179.062 577.202 180.79L521.888 217.231C519.269 218.952 518.366 222.773 519.869 225.746C521.379 228.719 524.729 229.736 527.348 228.009L582.668 191.574ZM521.705 216.866L577.019 180.431C579.815 178.593 583.394 179.675 585.001 182.844C586.607 186.013 585.641 190.094 582.845 191.933L527.531 228.367C524.741 230.212 521.162 229.123 519.555 225.955C517.948 222.779 518.915 218.711 521.705 216.866Z" fill="#86C7ED"/>
</g>
</g>
</g>
<mask id="mask20_430_22" style="mask-type:luminance" maskUnits="userSpaceOnUse" x="430" y="551" width="67" height="74">
<path d="M496.847 553.711L493.393 624.828L430.665 622.38L434.119 551.263L496.847 553.711Z" fill="white"/>
</mask>
<g mask="url(#mask20_430_22)">
<mask id="mask21_430_22" style="mask-type:luminance" maskUnits="userSpaceOnUse" x="420" y="545" width="103" height="107">
<path d="M484.094 651.484L420.072 560.376L458.977 545.403L522.999 636.51L484.094 651.484Z" fill="white"/>
</mask>
<g mask="url(#mask21_430_22)">
<mask id="mask22_430_22" style="mask-type:luminance" maskUnits="userSpaceOnUse" x="420" y="545" width="104" height="107">
<path d="M484.095 651.484L420.073 560.376L458.978 545.403L523 636.511L484.095 651.484Z" fill="white"/>
</mask>
<g mask="url(#mask22_430_22)">
<path d="M450.465 556.031C448.435 553.145 443.708 551.995 439.899 553.463C436.09 554.925 434.644 558.452 436.673 561.338L478.073 620.248C480.095 623.134 484.83 624.29 488.639 622.822C492.448 621.36 493.887 617.827 491.865 614.941L450.465 556.031Z" fill="#86C7ED"/>
<path d="M478.291 620.168C480.254 622.957 484.841 624.072 488.521 622.652C492.2 621.238 493.602 617.823 491.639 615.028L450.239 556.118C448.283 553.329 443.697 552.215 440.017 553.628C436.337 555.048 434.936 558.464 436.899 561.253L478.291 620.168ZM450.691 555.946L492.083 614.856C494.171 617.833 492.68 621.482 488.757 622.993C484.835 624.504 479.936 623.312 477.847 620.334L436.455 561.425C434.358 558.453 435.858 554.804 439.78 553.293C443.71 551.783 448.594 552.974 450.691 555.946Z" fill="#86C7ED"/>
</g>
</g>
</g>
<mask id="mask23_430_22" style="mask-type:luminance" maskUnits="userSpaceOnUse" x="571" y="168" width="35" height="35">
<path d="M571.959 168.938H605.622V202.321H571.959V168.938Z" fill="white"/>
</mask>
<g mask="url(#mask23_430_22)">
<mask id="mask24_430_22" style="mask-type:luminance" maskUnits="userSpaceOnUse" x="511" y="154" width="102" height="88">
<path d="M612.681 185.545L527.133 241.898L511.211 210.465L596.758 154.112L612.681 185.545Z" fill="white"/>
</mask>
<g mask="url(#mask24_430_22)">
<mask id="mask25_430_22" style="mask-type:luminance" maskUnits="userSpaceOnUse" x="511" y="154" width="102" height="88">
<path d="M612.679 185.545L527.132 241.898L511.209 210.464L596.757 154.111L612.679 185.545Z" fill="white"/>
</mask>
<g mask="url(#mask25_430_22)">
<path d="M580.363 183.744L573.931 171.046L588.43 199.669L580.363 183.744ZM572.776 169.944C572.81 169.918 572.856 169.898 572.901 169.885C572.947 169.866 572.993 169.866 573.039 169.866L603.912 169.787C603.958 169.787 604.009 169.794 604.061 169.813C604.118 169.833 604.175 169.859 604.226 169.898C604.284 169.95 604.335 170.016 604.369 170.087C604.409 170.159 604.432 170.237 604.438 170.322C604.444 170.394 604.438 170.465 604.421 170.537C604.409 170.596 604.392 170.641 604.364 170.687L588.887 201.149C588.864 201.195 588.836 201.234 588.801 201.279C588.755 201.332 588.698 201.371 588.641 201.397C588.578 201.436 588.504 201.455 588.43 201.449C588.355 201.455 588.287 201.436 588.218 201.403C588.161 201.371 588.109 201.338 588.064 201.279C588.029 201.247 588.001 201.201 587.978 201.162L587.972 201.149L572.587 170.765L572.581 170.752C572.558 170.707 572.541 170.661 572.53 170.609C572.507 170.537 572.507 170.472 572.513 170.4C572.524 170.315 572.541 170.231 572.581 170.159C572.616 170.094 572.667 170.029 572.73 169.976C572.741 169.963 572.759 169.95 572.776 169.944Z" fill="#86C7ED"/>
</g>
</g>
</g>
<mask id="mask26_430_22" style="mask-type:luminance" maskUnits="userSpaceOnUse" x="618" y="326" width="30" height="37">
<path d="M618.796 326.483H647.125V362.787H618.796V326.483Z" fill="white"/>
</mask>
<g mask="url(#mask26_430_22)">
<path d="M619.928 344.139V328.126V361.183V344.139ZM619.408 326.509C619.454 326.509 619.499 326.522 619.545 326.529C619.591 326.542 619.637 326.568 619.677 326.594L646.439 344.139C646.479 344.165 646.519 344.198 646.559 344.244C646.599 344.296 646.639 344.348 646.662 344.413C646.691 344.491 646.708 344.576 646.708 344.661C646.708 344.739 646.691 344.824 646.662 344.902C646.634 344.967 646.599 345.026 646.554 345.078C646.519 345.117 646.479 345.156 646.439 345.176L619.677 362.722C619.637 362.748 619.591 362.767 619.545 362.787C619.482 362.806 619.419 362.813 619.357 362.8C619.282 362.793 619.214 362.767 619.151 362.728C619.082 362.683 619.031 362.63 618.985 362.559C618.951 362.5 618.916 362.441 618.905 362.37C618.893 362.317 618.888 362.265 618.888 362.213V327.102C618.888 327.05 618.893 327.005 618.905 326.946C618.916 326.874 618.951 326.815 618.985 326.763C619.031 326.692 619.082 326.633 619.145 326.587C619.208 326.555 619.282 326.522 619.357 326.516C619.374 326.509 619.391 326.509 619.408 326.509Z" fill="#86C7ED"/>
</g>
<mask id="mask27_430_22" style="mask-type:luminance" maskUnits="userSpaceOnUse" x="276" y="264" width="145" height="151">
<path d="M276.09 264.706H420.423V414.929H276.09V264.706Z" fill="white"/>
</mask>
<g mask="url(#mask27_430_22)">
<path fill-rule="evenodd" clip-rule="evenodd" d="M326.339 381.959L340.169 402.595C341.426 404.466 341.204 407.12 339.683 408.704L334.926 413.659C334.074 414.546 333.051 414.944 331.907 414.82C330.769 414.703 329.826 414.103 329.123 413.059L313.789 390.272L326.339 381.959ZM402.207 328.996H416.294C418.547 328.996 420.371 326.883 420.365 324.295C420.359 321.713 418.524 319.62 416.271 319.62H402.19C399.937 319.62 398.113 321.733 398.119 324.314C398.119 326.903 399.96 328.996 402.207 328.996ZM385.49 286.413L392.533 272.408C393.66 270.172 392.996 267.296 391.052 265.999C389.103 264.708 386.599 265.464 385.472 267.7L378.429 281.706C377.302 283.942 377.96 286.817 379.909 288.115C381.859 289.412 384.363 288.656 385.49 286.413ZM401.784 303.189L413.35 295.522C415.311 294.224 415.985 291.342 414.853 289.086C413.721 286.83 411.212 286.061 409.245 287.365L397.684 295.026C395.718 296.33 395.049 299.212 396.181 301.468C397.313 303.717 399.823 304.493 401.784 303.189ZM383.597 324.282L397.239 351.405C399.8 356.498 398.262 363.07 393.831 366.01C389.692 368.755 384.426 367.406 381.665 363.07C366.565 360.436 346.898 363.266 327.339 372.022L308.541 334.636C324.926 319.581 336.933 301.54 342.496 285.207C340.54 280.271 342.147 274.292 346.315 271.528C350.751 268.587 356.474 270.348 359.036 275.44L372.677 302.563C373.066 302.224 373.478 301.905 373.918 301.611C379.183 298.117 385.924 300.19 388.971 306.247C392.013 312.298 390.206 320.031 384.935 323.526C384.5 323.819 384.049 324.067 383.597 324.282ZM322.611 375.973L302.909 336.8L287.25 347.18C277.736 353.492 274.443 367.588 279.937 378.516C285.431 389.444 297.712 393.219 307.231 386.914L322.891 376.534L322.611 375.973Z" fill="white"/>
</g>
<path d="M618.273 350.623C621.235 350.623 623.642 348.102 623.642 345.003C623.642 341.898 621.235 339.377 618.273 339.377H555.727C552.76 339.377 550.358 341.898 550.358 345.003C550.358 348.102 552.76 350.623 555.727 350.623H618.273ZM555.727 339H618.273C621.431 339 623.5 341.689 623.5 345C623.5 348.305 621.431 351 618.273 351H555.727C552.564 351 550 348.308 550 345.003C550 341.692 552.564 339 555.727 339Z" fill="#EAE8EA"/>
<path d="M555.472 338.521C552.395 338.521 549.908 341.327 549.908 344.788C549.908 348.242 552.395 351.049 555.472 351.049H618.201C621.272 351.049 623.765 348.242 623.765 344.788C623.765 341.327 621.272 338.521 618.201 338.521H555.472Z" fill="#86C7ED"/>
</svg>
