<svg width="121" height="128" viewBox="0 0 121 128" fill="none" xmlns="http://www.w3.org/2000/svg">
<mask id="mask0_438_33" style="mask-type:luminance" maskUnits="userSpaceOnUse" x="0" y="0" width="121" height="128">
<path d="M0.254395 0.102539L120.465 0.102539V127.261H0.254395L0.254395 0.102539Z" fill="white"/>
</mask>
<g mask="url(#mask0_438_33)">
<mask id="mask1_438_33" style="mask-type:luminance" maskUnits="userSpaceOnUse" x="1" y="0" width="120" height="127">
<path fill-rule="evenodd" clip-rule="evenodd" d="M60.7848 0.102539C27.8268 0.102539 1.11401 28.2941 1.11401 63.064C1.11401 97.8529 27.8268 126.038 60.7848 126.038C93.7308 126.038 120.444 97.8529 120.444 63.064C120.444 28.2941 93.7308 0.102539 60.7848 0.102539Z" fill="white"/>
</mask>
<g mask="url(#mask1_438_33)">
<path d="M1.11401 0.102539L1.11401 126.038H120.444V0.102539L1.11401 0.102539Z" fill="url(#paint0_linear_438_33)"/>
</g>
</g>
<mask id="mask2_438_33" style="mask-type:luminance" maskUnits="userSpaceOnUse" x="4" y="3" width="114" height="120">
<path d="M4.88721 3.42114L117.652 3.42114V122.428H4.88721L4.88721 3.42114Z" fill="white"/>
</mask>
<g mask="url(#mask2_438_33)">
<mask id="mask3_438_33" style="mask-type:luminance" maskUnits="userSpaceOnUse" x="5" y="4" width="112" height="118">
<path fill-rule="evenodd" clip-rule="evenodd" d="M60.7839 4.67749C30.2214 4.67749 5.44556 30.8185 5.44556 63.0666C5.44556 95.321 30.2214 121.468 60.7839 121.468C91.3404 121.468 116.11 95.321 116.11 63.0666C116.11 30.8185 91.3404 4.67749 60.7839 4.67749Z" fill="white"/>
</mask>
<g mask="url(#mask3_438_33)">
<path d="M5.44556 4.67749L5.44556 121.468H116.11V4.67749L5.44556 4.67749Z" fill="url(#paint1_linear_438_33)"/>
</g>
</g>
<path fill-rule="evenodd" clip-rule="evenodd" d="M14.4569 23.3916C8.2841 31.409 3.93958 41.0631 2.10522 51.6341H54.8972C58.5478 51.6341 61.5347 48.4819 61.5347 44.6292V30.2628C61.5347 26.4865 58.6021 23.3916 55.0239 23.3916H14.4569Z" fill="#F6F6F6"/>
<path fill-rule="evenodd" clip-rule="evenodd" d="M14.4569 23.3916C8.2841 31.409 3.93958 41.0631 2.10522 51.6341H6.51612C8.37461 41.7445 12.5985 32.7654 18.536 25.3593C19.073 24.6907 19.6281 24.0348 20.1772 23.3916H14.4569Z" fill="#F6F6F6"/>
<path d="M40.0531 65.8158C39.2083 65.7904 38.5144 66.51 38.5144 67.4015C38.5144 68.2994 39.2083 69.019 40.0531 68.9935H78.4176C79.2624 69.019 79.9623 68.293 79.9623 67.4015C79.9623 66.51 79.2624 65.7904 78.4176 65.8158H40.0531Z" fill="#27096D"/>
<mask id="mask4_438_33" style="mask-type:luminance" maskUnits="userSpaceOnUse" x="82" y="53" width="15" height="47">
<path d="M82.1213 53.9578H96.9651V99.6043H82.1213V53.9578Z" fill="white"/>
</mask>
<g mask="url(#mask4_438_33)">
<path d="M95.0646 54.6713C95.8912 54.684 96.5489 55.3972 96.5429 56.276V71.1774C96.5429 73.2916 96.4886 75.2339 95.7886 77.0297C95.0947 78.8191 93.6405 80.3156 91.4924 81.1753L91.2631 81.2645V91.7273C93.369 92.1794 95.2275 93.5549 96.3317 95.5672C96.7481 96.3314 96.5007 97.3057 95.7826 97.7451C95.0585 98.1845 94.1413 97.9298 93.725 97.1656C92.9044 95.6564 91.3958 94.7266 89.7546 94.7266C88.1133 94.7266 86.5988 95.6564 85.7781 97.1656C85.3739 97.9489 84.4386 98.2227 83.7024 97.777C82.9783 97.3312 82.7309 96.3314 83.1775 95.5672C84.2757 93.5549 86.1402 92.1794 88.2461 91.7273V82.468L84.5834 83.9391C83.799 84.302 82.8758 83.9009 82.5741 83.0475C82.2663 82.1942 82.7008 81.2454 83.5154 80.9652L90.4364 78.2014C92.0113 77.571 92.5966 76.8705 93.0069 75.8197C93.4173 74.7626 93.5379 73.1961 93.5379 71.1774V56.276C93.5259 55.3781 94.2198 54.6522 95.0646 54.6713Z" fill="#27096D"/>
</g>
<path d="M23.5574 54.6713C22.7307 54.684 22.067 55.3972 22.079 56.276V71.1774C22.079 73.2916 22.1333 75.2339 22.8272 77.0297C23.5272 78.8191 24.9814 80.3156 27.1235 81.1753L27.3649 81.2645V91.7273C25.2529 92.1794 23.3944 93.5549 22.2962 95.5672C21.8799 96.3314 22.1213 97.3057 22.8453 97.7451C23.5634 98.1845 24.4806 97.9298 24.8969 97.1656C25.7176 95.6564 27.2321 94.7266 28.8734 94.7266C30.5146 94.7266 32.0231 95.6564 32.8438 97.1656C33.2481 97.9489 34.1833 98.2227 34.9135 97.777C35.6496 97.3312 35.8849 96.3314 35.4445 95.5672C34.3463 93.5549 32.4878 92.1794 30.3758 91.7273V82.468L34.0385 83.9391C34.823 84.302 35.7401 83.9009 36.0479 83.0475C36.3496 82.1942 35.9211 81.2454 35.1005 80.9652L28.1855 78.2014C26.6106 77.571 26.0193 76.8705 25.615 75.8197C25.2047 74.7626 25.084 73.1961 25.084 71.1774V56.276C25.09 55.3781 24.4021 54.6522 23.5574 54.6713Z" fill="#27096D"/>
<path d="M92.1197 52.7811V72.8852C92.1197 74.3753 91.2508 75.7126 89.9173 76.2603L80.6611 80.062L78.2897 94.8297C77.6742 99.7968 70.4997 98.5486 71.4591 93.6388L74.1443 76.8525C74.3434 75.6044 75.158 74.5536 76.2864 74.0888L81.8136 71.8154V59.8752L79.6654 62.8172C79.1103 63.3904 78.3681 63.7088 77.5837 63.7088H69.9868C66.0405 63.7088 66.0405 57.5253 69.9868 57.5253H76.3769L82.2359 50.756C83.1531 49.6989 84.1246 48.8775 85.2831 48.8775H88.6501C90.9129 48.8711 92.1197 51.0681 92.1197 52.7811Z" fill="#27096D"/>
<path d="M45.153 48.457C44.4651 48.457 43.916 48.7372 43.5419 49.1448L40.3076 52.5899L42.9143 55.5957H48.4777C49.9319 55.5957 51.2534 56.2325 52.0861 57.2132C52.9188 58.1939 53.2929 59.4102 53.2929 60.6074C53.2929 61.7536 52.949 62.9126 52.2007 63.8678H57.2694L57.3357 56.3407L60.5821 58.9835C61.4691 59.7031 62.7784 59.7477 63.5327 58.8689L68.3298 53.2713C68.4505 53.1567 68.6194 53.0866 68.7823 53.093H71.389C72.2459 53.093 72.8071 52.8638 73.157 52.5772C73.4949 52.2906 73.6398 51.9531 73.6458 51.5774C73.6518 50.826 73.0001 49.7943 71.3166 49.4059L67.9195 48.5207C67.3523 48.5271 66.8092 48.7436 66.3989 49.1448L62.3199 53.6343C62.0845 53.8635 61.7104 53.8827 61.451 53.6598L55.9781 49.1448C55.4893 48.7372 54.9824 48.457 54.2825 48.457H45.153Z" fill="#27096D"/>
<path d="M43.4148 70.8147L48.5498 78.5201V88.3397C48.5498 92.7401 55.1631 92.7401 55.1631 88.3397V78.2081L53.0331 74.3554C52.6891 73.553 53.2684 73.2728 53.733 73.9223L56.4001 77.6604C56.4604 77.7687 56.4906 77.8897 56.4906 78.017V88.3397C56.4906 92.7401 63.0496 92.7401 63.0496 88.3397V77.2974C63.0496 76.5014 62.7902 75.7245 62.3195 75.0941L59.5016 70.8147H43.4148Z" fill="#27096D"/>
<path fill-rule="evenodd" clip-rule="evenodd" d="M55.8006 41.6675C54.4007 45.0489 50.6475 46.6091 47.4011 45.1444C44.1729 43.6925 42.6825 39.7634 44.0764 36.3947C45.4763 33.0068 49.2355 31.453 52.4637 32.9113C55.704 34.3696 57.1944 38.2924 55.8006 41.6675Z" fill="#27096D"/>
<path d="M26.3501 52.7811V72.8852C26.3501 74.3753 27.225 75.7126 28.5525 76.2603L37.8148 80.062L40.1802 94.8297C40.7956 99.7968 47.9762 98.5486 47.0167 93.6388L44.3256 76.8525C44.1204 75.6044 43.3118 74.5536 42.1835 74.0888L36.6623 71.8154V59.8752L38.7984 62.8172C39.3535 63.3904 40.1077 63.7088 40.8861 63.7088H48.483C52.4293 63.7088 52.4293 57.5253 48.483 57.5253H42.099L36.2339 50.756C35.3167 49.6989 34.3452 48.8775 33.1927 48.8775H29.8197C27.5569 48.8711 26.3501 51.0681 26.3501 52.7811Z" fill="#27096D"/>
<path fill-rule="evenodd" clip-rule="evenodd" d="M25.2521 42.4839C26.7426 46.0947 30.7552 47.7567 34.2188 46.1965C37.6702 44.6427 39.2512 40.4525 37.7668 36.8545C36.2703 33.2438 32.2637 31.5818 28.8122 33.1356C25.3487 34.6958 23.7617 38.8796 25.2521 42.4839Z" fill="#27096D"/>
<path fill-rule="evenodd" clip-rule="evenodd" d="M93.2321 42.4839C91.7356 46.0947 87.729 47.7567 84.2655 46.1965C80.814 44.6427 79.227 40.4525 80.7174 36.8545C82.2078 33.2438 86.2205 31.5818 89.6659 33.1356C93.1295 34.6958 94.7164 38.8796 93.2321 42.4839Z" fill="#27096D"/>
<path fill-rule="evenodd" clip-rule="evenodd" d="M69.3721 44.6874C68.6178 44.7192 67.8334 44.6237 67.049 44.4072C65.0396 43.8341 63.4708 42.5222 62.4993 40.8474L60.3994 41.1594C59.7176 41.2677 59.4521 40.5863 59.8805 40.0068L61.4735 37.8544C61.3226 36.7782 61.3709 35.6447 61.6545 34.5111C62.7527 30.1936 66.8076 27.6145 70.9952 28.8053C75.1889 29.9962 77.4879 34.3711 76.3957 38.695C75.5027 42.2038 72.6606 44.5664 69.3721 44.6874ZM65.1603 38.1219C65.9568 38.1219 66.5964 37.4405 66.5964 36.5999C66.5964 35.7657 65.9568 35.0843 65.1603 35.0843C64.3698 35.0843 63.7242 35.7657 63.7242 36.5999C63.7242 37.4405 64.3698 38.1219 65.1603 38.1219ZM69.0221 38.1219C69.8186 38.1219 70.4582 37.4405 70.4642 36.5999C70.4582 35.7657 69.8186 35.0843 69.0221 35.0843C68.2316 35.0843 67.586 35.7657 67.586 36.5999C67.586 37.4405 68.2316 38.1219 69.0221 38.1219ZM72.8899 38.1219C73.6744 38.1219 74.32 37.4405 74.32 36.5999C74.32 35.7657 73.6744 35.0843 72.8899 35.0843C72.0874 35.0843 71.4538 35.7657 71.4538 36.5999C71.4538 37.4405 72.0874 38.1219 72.8899 38.1219Z" fill="#27096D"/>
<defs>
<linearGradient id="paint0_linear_438_33" x1="9.75626" y1="133.808" x2="125.695" y2="4.82041" gradientUnits="userSpaceOnUse">
<stop stop-color="#DEDEDE"/>
<stop offset="0.0625" stop-color="#DEDEDE"/>
<stop offset="0.09375" stop-color="#DEDEDE"/>
<stop offset="0.109375" stop-color="#DFDFDF"/>
<stop offset="0.125" stop-color="#E0E0E0"/>
<stop offset="0.140625" stop-color="#E1E1E1"/>
<stop offset="0.15625" stop-color="#E2E2E2"/>
<stop offset="0.171875" stop-color="#E2E2E2"/>
<stop offset="0.1875" stop-color="#E3E3E3"/>
<stop offset="0.203125" stop-color="#E4E4E4"/>
<stop offset="0.21875" stop-color="#E5E5E5"/>
<stop offset="0.234375" stop-color="#E6E6E6"/>
<stop offset="0.25" stop-color="#E7E7E7"/>
<stop offset="0.265625" stop-color="#E8E8E8"/>
<stop offset="0.28125" stop-color="#E8E8E8"/>
<stop offset="0.296875" stop-color="#E9E9E9"/>
<stop offset="0.3125" stop-color="#EAEAEA"/>
<stop offset="0.328125" stop-color="#EBEBEB"/>
<stop offset="0.34375" stop-color="#ECECEC"/>
<stop offset="0.359375" stop-color="#EDEDED"/>
<stop offset="0.375" stop-color="#EDEDED"/>
<stop offset="0.390625" stop-color="#EEEEEE"/>
<stop offset="0.40625" stop-color="#EFEFEF"/>
<stop offset="0.421875" stop-color="#EFEFEF"/>
<stop offset="0.4375" stop-color="#F0F0F0"/>
<stop offset="0.453125" stop-color="#F0F0F0"/>
<stop offset="0.45995" stop-color="#F1F1F1"/>
<stop offset="0.46875" stop-color="#F1F1F1"/>
<stop offset="0.484375" stop-color="#F2F2F2"/>
<stop offset="0.5" stop-color="#F2F2F2"/>
<stop offset="0.515625" stop-color="#F3F3F3"/>
<stop offset="0.53125" stop-color="#F3F3F3"/>
<stop offset="0.54005" stop-color="#F4F4F4"/>
<stop offset="0.546875" stop-color="#F4F4F4"/>
<stop offset="0.5625" stop-color="#F4F4F4"/>
<stop offset="0.578125" stop-color="#F5F5F5"/>
<stop offset="0.59375" stop-color="#F5F5F5"/>
<stop offset="0.609375" stop-color="#F6F6F6"/>
<stop offset="0.625" stop-color="#F7F7F7"/>
<stop offset="0.640625" stop-color="#F7F7F7"/>
<stop offset="0.65625" stop-color="#F8F8F8"/>
<stop offset="0.671875" stop-color="#F8F8F8"/>
<stop offset="0.6875" stop-color="#F9F9F9"/>
<stop offset="0.703125" stop-color="#F9F9F9"/>
<stop offset="0.71875" stop-color="#FAFAFA"/>
<stop offset="0.734375" stop-color="#FAFAFA"/>
<stop offset="0.75" stop-color="#FBFBFB"/>
<stop offset="0.765625" stop-color="#FCFCFC"/>
<stop offset="0.78125" stop-color="#FCFCFC"/>
<stop offset="0.796875" stop-color="#FDFDFD"/>
<stop offset="0.8125" stop-color="#FDFDFD"/>
<stop offset="0.828125" stop-color="#FEFEFE"/>
<stop offset="0.84375" stop-color="#FEFEFE"/>
<stop offset="0.875" stop-color="white"/>
<stop offset="1" stop-color="white"/>
</linearGradient>
<linearGradient id="paint1_linear_438_33" x1="105.882" y1="-2.05621" x2="18.7767" y2="130.246" gradientUnits="userSpaceOnUse">
<stop stop-color="#EDEDED"/>
<stop offset="0.125" stop-color="#EDEDED"/>
<stop offset="0.140625" stop-color="#EDEDED"/>
<stop offset="0.15625" stop-color="#EEEEEE"/>
<stop offset="0.171875" stop-color="#EFEFEF"/>
<stop offset="0.1875" stop-color="#EFEFEF"/>
<stop offset="0.203125" stop-color="#F0F0F0"/>
<stop offset="0.21875" stop-color="#F0F0F0"/>
<stop offset="0.234375" stop-color="#F1F1F1"/>
<stop offset="0.25" stop-color="#F1F1F1"/>
<stop offset="0.265625" stop-color="#F2F2F2"/>
<stop offset="0.28125" stop-color="#F2F2F2"/>
<stop offset="0.296875" stop-color="#F3F3F3"/>
<stop offset="0.3125" stop-color="#F3F3F3"/>
<stop offset="0.328125" stop-color="#F4F4F4"/>
<stop offset="0.34375" stop-color="#F4F4F4"/>
<stop offset="0.359375" stop-color="#F5F5F5"/>
<stop offset="0.375" stop-color="#F5F5F5"/>
<stop offset="0.384177" stop-color="#F6F6F6"/>
<stop offset="0.40625" stop-color="#F6F6F6"/>
<stop offset="0.4375" stop-color="#F7F7F7"/>
<stop offset="0.5" stop-color="#F7F7F7"/>
<stop offset="0.5625" stop-color="#F8F8F8"/>
<stop offset="0.615823" stop-color="#F9F9F9"/>
<stop offset="0.625" stop-color="#FAFAFA"/>
<stop offset="0.6875" stop-color="#FAFAFA"/>
<stop offset="0.75" stop-color="#FBFBFB"/>
<stop offset="0.8125" stop-color="#FCFCFC"/>
<stop offset="0.875" stop-color="#FDFDFD"/>
<stop offset="0.9375" stop-color="#FEFEFE"/>
<stop offset="1" stop-color="white"/>
</linearGradient>
</defs>
</svg>
