<svg width="121" height="128" viewBox="0 0 121 128" fill="none" xmlns="http://www.w3.org/2000/svg">
<mask id="mask0_438_36" style="mask-type:luminance" maskUnits="userSpaceOnUse" x="0" y="0" width="121" height="128">
<path d="M0.254395 0.782227L120.465 0.782227V127.533H0.254395L0.254395 0.782227Z" fill="white"/>
</mask>
<g mask="url(#mask0_438_36)">
<mask id="mask1_438_36" style="mask-type:luminance" maskUnits="userSpaceOnUse" x="1" y="0" width="120" height="127">
<path fill-rule="evenodd" clip-rule="evenodd" d="M60.7848 0.782227C27.8268 0.782227 1.11401 28.9738 1.11401 63.75C1.11401 98.5326 27.8268 126.724 60.7848 126.724C93.7308 126.724 120.444 98.5326 120.444 63.75C120.444 28.9738 93.7308 0.782227 60.7848 0.782227Z" fill="white"/>
</mask>
<g mask="url(#mask1_438_36)">
<path d="M1.11401 0.782227L1.11401 126.724H120.444V0.782227L1.11401 0.782227Z" fill="url(#paint0_linear_438_36)"/>
</g>
</g>
<mask id="mask2_438_36" style="mask-type:luminance" maskUnits="userSpaceOnUse" x="4" y="5" width="114" height="118">
<path d="M4.88721 5.26562L117.652 5.26563V122.642H4.88721L4.88721 5.26562Z" fill="white"/>
</mask>
<g mask="url(#mask2_438_36)">
<mask id="mask3_438_36" style="mask-type:luminance" maskUnits="userSpaceOnUse" x="5" y="5" width="112" height="118">
<path fill-rule="evenodd" clip-rule="evenodd" d="M60.7842 5.36133C30.2216 5.36133 5.4458 31.496 5.4458 63.7505C5.4458 95.9985 30.2216 122.152 60.7842 122.152C91.3406 122.152 116.11 95.9985 116.11 63.7505C116.11 31.496 91.3406 5.36133 60.7842 5.36133Z" fill="white"/>
</mask>
<g mask="url(#mask3_438_36)">
<path d="M5.4458 5.36133L5.4458 122.152H116.11V5.36133L5.4458 5.36133Z" fill="url(#paint1_linear_438_36)"/>
</g>
</g>
<path fill-rule="evenodd" clip-rule="evenodd" d="M14.4569 24.0698C8.2841 32.0936 3.93958 41.7413 2.10522 52.3124H54.8972C58.5478 52.3124 61.5347 49.1665 61.5347 45.3074V30.941C61.5347 27.1711 58.6021 24.0698 55.0239 24.0698H14.4569Z" fill="#F6F6F6"/>
<path fill-rule="evenodd" clip-rule="evenodd" d="M14.4569 24.0698C8.2841 32.0936 3.93958 41.7413 2.10522 52.3124H6.51612C8.37461 42.4291 12.5985 33.4437 18.536 26.0439C19.073 25.3753 19.6281 24.7194 20.1772 24.0698H14.4569Z" fill="#F6F6F6"/>
<mask id="mask4_438_36" style="mask-type:luminance" maskUnits="userSpaceOnUse" x="17" y="19" width="82" height="87">
<path d="M17.2449 19.937H98.1133V105.117H17.2449V19.937Z" fill="white"/>
</mask>
<g mask="url(#mask4_438_36)">
<path fill-rule="evenodd" clip-rule="evenodd" d="M90.0502 105.099C88.2038 105.099 86.3513 104.417 84.8488 102.813L67.694 84.4088C61.6298 88.3188 54.4372 90.0573 47.3291 89.3313C39.8106 88.5417 32.7266 85.001 27.3684 79.378C21.1835 72.8443 17.7803 64.1646 17.7803 54.9372C17.7803 45.7034 21.1835 37.0237 27.3684 30.49C33.5774 23.9564 41.7958 20.3584 50.5633 20.3584C59.3248 20.3584 67.5431 23.9564 73.7522 30.4773C79.1346 36.1513 82.4955 43.6848 83.1955 51.664C83.8713 59.2166 82.1637 66.8455 78.3682 73.2391L95.5412 91.6429C97.2367 93.4387 98.1117 95.4829 98.0996 97.5271C98.0634 99.342 97.3273 101.106 95.9937 102.501C94.4671 104.086 92.2767 105.099 90.0502 105.099ZM67.8509 81.7851C68.1345 81.7851 68.4181 81.8934 68.6293 82.129L86.4177 101.189C88.7951 103.704 92.4336 102.978 94.455 100.858C95.2395 100.036 97.5324 97.0558 93.9844 93.2732L76.1839 74.2134C75.8219 73.8186 75.7555 73.2264 76.0572 72.7615C84.0765 60.0317 82.4473 42.9461 72.1954 32.1139C60.2661 19.5497 40.8605 19.5497 28.9312 32.1139C17.0139 44.6909 17.0139 65.1453 28.9312 77.7159C34.8205 83.9312 42.6889 87.1343 50.6297 87.1343C56.3862 87.1343 62.1728 85.434 67.2535 81.9634C67.4345 81.8297 67.6457 81.7851 67.8509 81.7851Z" fill="#27096D"/>
</g>
<defs>
<linearGradient id="paint0_linear_438_36" x1="9.75625" y1="134.492" x2="125.695" y2="5.50345" gradientUnits="userSpaceOnUse">
<stop stop-color="#DEDEDE"/>
<stop offset="0.0625" stop-color="#DEDEDE"/>
<stop offset="0.09375" stop-color="#DEDEDE"/>
<stop offset="0.109375" stop-color="#DFDFDF"/>
<stop offset="0.125" stop-color="#E0E0E0"/>
<stop offset="0.140625" stop-color="#E1E1E1"/>
<stop offset="0.15625" stop-color="#E2E2E2"/>
<stop offset="0.171875" stop-color="#E2E2E2"/>
<stop offset="0.1875" stop-color="#E3E3E3"/>
<stop offset="0.203125" stop-color="#E4E4E4"/>
<stop offset="0.21875" stop-color="#E5E5E5"/>
<stop offset="0.234375" stop-color="#E6E6E6"/>
<stop offset="0.25" stop-color="#E7E7E7"/>
<stop offset="0.265625" stop-color="#E8E8E8"/>
<stop offset="0.28125" stop-color="#E8E8E8"/>
<stop offset="0.296875" stop-color="#E9E9E9"/>
<stop offset="0.3125" stop-color="#EAEAEA"/>
<stop offset="0.328125" stop-color="#EBEBEB"/>
<stop offset="0.34375" stop-color="#ECECEC"/>
<stop offset="0.359375" stop-color="#EDEDED"/>
<stop offset="0.375" stop-color="#EDEDED"/>
<stop offset="0.390625" stop-color="#EEEEEE"/>
<stop offset="0.40625" stop-color="#EFEFEF"/>
<stop offset="0.421875" stop-color="#EFEFEF"/>
<stop offset="0.4375" stop-color="#F0F0F0"/>
<stop offset="0.453125" stop-color="#F0F0F0"/>
<stop offset="0.45995" stop-color="#F1F1F1"/>
<stop offset="0.46875" stop-color="#F1F1F1"/>
<stop offset="0.484375" stop-color="#F2F2F2"/>
<stop offset="0.5" stop-color="#F2F2F2"/>
<stop offset="0.515625" stop-color="#F3F3F3"/>
<stop offset="0.53125" stop-color="#F3F3F3"/>
<stop offset="0.54005" stop-color="#F4F4F4"/>
<stop offset="0.546875" stop-color="#F4F4F4"/>
<stop offset="0.5625" stop-color="#F4F4F4"/>
<stop offset="0.578125" stop-color="#F5F5F5"/>
<stop offset="0.59375" stop-color="#F5F5F5"/>
<stop offset="0.609375" stop-color="#F6F6F6"/>
<stop offset="0.625" stop-color="#F7F7F7"/>
<stop offset="0.640625" stop-color="#F7F7F7"/>
<stop offset="0.65625" stop-color="#F8F8F8"/>
<stop offset="0.671875" stop-color="#F8F8F8"/>
<stop offset="0.6875" stop-color="#F9F9F9"/>
<stop offset="0.703125" stop-color="#F9F9F9"/>
<stop offset="0.71875" stop-color="#FAFAFA"/>
<stop offset="0.734375" stop-color="#FAFAFA"/>
<stop offset="0.75" stop-color="#FBFBFB"/>
<stop offset="0.765625" stop-color="#FCFCFC"/>
<stop offset="0.78125" stop-color="#FCFCFC"/>
<stop offset="0.796875" stop-color="#FDFDFD"/>
<stop offset="0.8125" stop-color="#FDFDFD"/>
<stop offset="0.828125" stop-color="#FEFEFE"/>
<stop offset="0.84375" stop-color="#FEFEFE"/>
<stop offset="0.875" stop-color="white"/>
<stop offset="1" stop-color="white"/>
</linearGradient>
<linearGradient id="paint1_linear_438_36" x1="105.882" y1="-1.3754" x2="18.7769" y2="130.926" gradientUnits="userSpaceOnUse">
<stop stop-color="#EDEDED"/>
<stop offset="0.125" stop-color="#EDEDED"/>
<stop offset="0.140625" stop-color="#EDEDED"/>
<stop offset="0.15625" stop-color="#EEEEEE"/>
<stop offset="0.171875" stop-color="#EFEFEF"/>
<stop offset="0.1875" stop-color="#EFEFEF"/>
<stop offset="0.203125" stop-color="#F0F0F0"/>
<stop offset="0.21875" stop-color="#F0F0F0"/>
<stop offset="0.234375" stop-color="#F1F1F1"/>
<stop offset="0.25" stop-color="#F1F1F1"/>
<stop offset="0.265625" stop-color="#F2F2F2"/>
<stop offset="0.28125" stop-color="#F2F2F2"/>
<stop offset="0.296875" stop-color="#F3F3F3"/>
<stop offset="0.3125" stop-color="#F3F3F3"/>
<stop offset="0.328125" stop-color="#F4F4F4"/>
<stop offset="0.34375" stop-color="#F4F4F4"/>
<stop offset="0.359375" stop-color="#F5F5F5"/>
<stop offset="0.375" stop-color="#F5F5F5"/>
<stop offset="0.384177" stop-color="#F6F6F6"/>
<stop offset="0.40625" stop-color="#F6F6F6"/>
<stop offset="0.4375" stop-color="#F7F7F7"/>
<stop offset="0.5" stop-color="#F7F7F7"/>
<stop offset="0.5625" stop-color="#F8F8F8"/>
<stop offset="0.615823" stop-color="#F9F9F9"/>
<stop offset="0.625" stop-color="#FAFAFA"/>
<stop offset="0.6875" stop-color="#FAFAFA"/>
<stop offset="0.75" stop-color="#FBFBFB"/>
<stop offset="0.8125" stop-color="#FCFCFC"/>
<stop offset="0.875" stop-color="#FDFDFD"/>
<stop offset="0.9375" stop-color="#FEFEFE"/>
<stop offset="1" stop-color="white"/>
</linearGradient>
</defs>
</svg>
