<svg width="122" height="128" viewBox="0 0 122 128" fill="none" xmlns="http://www.w3.org/2000/svg">
<mask id="mask0_438_34" style="mask-type:luminance" maskUnits="userSpaceOnUse" x="0" y="0" width="122" height="128">
<path d="M0.562988 0L121.039 0V127.158H0.562988L0.562988 0Z" fill="white"/>
</mask>
<g mask="url(#mask0_438_34)">
<mask id="mask1_438_34" style="mask-type:luminance" maskUnits="userSpaceOnUse" x="1" y="0" width="121" height="126">
<path fill-rule="evenodd" clip-rule="evenodd" d="M61.3566 0C28.3986 0 1.68579 28.1916 1.68579 62.9614C1.68579 97.7504 28.3986 125.936 61.3566 125.936C94.3086 125.936 121.021 97.7504 121.021 62.9614C121.021 28.1916 94.3086 0 61.3566 0Z" fill="white"/>
</mask>
<g mask="url(#mask1_438_34)">
<path d="M1.68579 0L1.68579 125.936H121.021V0L1.68579 0Z" fill="url(#paint0_linear_438_34)"/>
</g>
</g>
<mask id="mask2_438_34" style="mask-type:luminance" maskUnits="userSpaceOnUse" x="6" y="4" width="111" height="118">
<path fill-rule="evenodd" clip-rule="evenodd" d="M61.3576 4.5708C30.8012 4.5708 6.01929 30.7119 6.01929 62.9599C6.01929 95.2144 30.8012 121.362 61.3576 121.362C91.9201 121.362 116.684 95.2144 116.684 62.9599C116.684 30.7119 91.9201 4.5708 61.3576 4.5708Z" fill="white"/>
</mask>
<g mask="url(#mask2_438_34)">
<path d="M6.01929 4.5708L6.01929 121.362H116.684V4.5708L6.01929 4.5708Z" fill="url(#paint1_linear_438_34)"/>
</g>
<mask id="mask3_438_34" style="mask-type:luminance" maskUnits="userSpaceOnUse" x="68" y="47" width="32" height="50">
<path d="M68.5288 47.4558H99.4232V96.6048H68.5288V47.4558Z" fill="white"/>
</mask>
<g mask="url(#mask3_438_34)">
<path fill-rule="evenodd" clip-rule="evenodd" d="M76.5312 86.2304C76.5312 88.4147 76.5916 90.599 76.5131 92.7768C76.4226 95.1712 75.0348 96.5659 72.8927 96.6168C70.7687 96.6678 69.0792 95.3113 69.0309 93.0125C68.9102 86.6189 68.9163 80.2189 69.0249 73.8254C69.0611 71.6666 70.7325 70.2656 72.9349 70.2083C75.6744 70.1382 78.4199 70.1319 81.1594 70.2083C82.4748 70.2401 83.048 70.0236 83.1566 68.3615C83.4221 64.3305 84.0919 60.3377 85.2444 56.4659C86.6443 51.7408 90.5483 48.7223 95.2127 48.7542C98.465 48.7796 99.877 50.7219 99.0202 54.1416C97.7168 59.3188 96.3531 64.477 94.9954 69.6352C92.8172 77.9264 92.8111 77.9264 84.5445 77.9264C82.6136 77.9264 80.6827 78.0347 78.7638 77.8946C77.0864 77.7672 76.3381 78.1875 76.5071 80.1489C76.6821 82.1612 76.5493 84.199 76.5493 86.2304C76.5433 86.2304 76.5373 86.2304 76.5312 86.2304Z" fill="#27096D"/>
</g>
<mask id="mask4_438_34" style="mask-type:luminance" maskUnits="userSpaceOnUse" x="22" y="47" width="32" height="50">
<path d="M22.1863 47.4558H53.0807V96.6048H22.1863V47.4558Z" fill="white"/>
</mask>
<g mask="url(#mask4_438_34)">
<path fill-rule="evenodd" clip-rule="evenodd" d="M52.8137 83.4176C52.8137 86.3852 52.8499 89.3527 52.8016 92.3139C52.7594 95.0267 51.2086 96.6696 48.8553 96.6187C46.5926 96.5614 45.2349 94.9821 45.2168 92.2884C45.1866 88.2319 45.1263 84.1691 45.247 80.1189C45.2952 78.4314 44.9694 77.7946 43.2135 77.8774C39.8827 78.0429 36.5398 77.9474 33.203 77.9156C30.2222 77.8901 28.593 76.5783 27.7784 73.4834C26.0345 66.9051 24.3269 60.3141 22.6615 53.7104C21.9133 50.7493 23.3795 48.8325 26.294 48.756C31.1755 48.635 35.3451 51.7936 36.6907 56.8626C37.6682 60.5307 38.3983 64.2815 38.5552 68.1023C38.6216 69.6562 39.0017 70.3248 40.6128 70.2229C42.9782 70.0764 45.3556 70.1783 47.727 70.1847C51.5405 70.2038 52.8076 71.522 52.8137 75.4575C52.8197 78.113 52.8137 80.7685 52.8137 83.4176Z" fill="#27096D"/>
</g>
<path fill-rule="evenodd" clip-rule="evenodd" d="M61.1379 44.5338C63.4369 44.5338 65.7299 44.5084 68.0288 44.5402C72.0596 44.5975 74.974 47.6351 75.0947 51.8826C75.1128 52.5067 75.1007 53.1308 75.1007 53.7549C75.1007 56.8689 75.0947 56.7797 72.2406 56.8752C70.7562 56.9262 70.0623 56.5887 70.2494 54.8629C70.3278 54.1178 70.6838 52.7678 69.6218 52.7232C68.4391 52.6723 68.8314 54.0478 68.9219 54.761C69.1572 56.6014 68.4271 56.9325 66.8341 56.8816C62.9904 56.7542 59.1346 56.7542 55.2849 56.8816C53.6979 56.9325 53.1247 56.4167 53.3781 54.7992C53.4324 54.4235 53.3962 54.0223 53.36 53.6339C53.3178 53.1626 53.2273 52.6086 52.6601 52.6404C52.1774 52.6723 51.936 53.1053 51.9662 53.6466C51.9662 53.723 51.9782 53.8058 51.9662 53.8822C51.8274 54.8438 52.4489 56.3467 51.6041 56.6778C50.4275 57.13 48.9793 56.8179 47.6518 56.8307C47.1872 56.8307 46.9881 56.5568 47.0062 56.1047C47.1088 53.7167 46.5416 51.2267 47.5492 48.9533C48.7681 46.215 50.8559 44.6166 53.8066 44.5466C56.2504 44.4893 58.6941 44.5338 61.1379 44.5338Z" fill="#27096D"/>
<path fill-rule="evenodd" clip-rule="evenodd" d="M61.2757 64.2353C55.1934 64.2353 49.105 64.1461 43.0287 64.2926C41.1823 64.3308 41.1642 63.4201 41.297 62.0637C41.4176 60.8411 40.6513 59.2936 43.0227 59.3127C55.1149 59.421 67.2132 59.421 79.2995 59.3127C81.3872 59.2936 80.9226 60.5545 80.8623 61.6816C80.808 62.7897 81.5924 64.3371 79.2995 64.2862C73.2956 64.1397 67.2856 64.2353 61.2757 64.2353Z" fill="#27096D"/>
<mask id="mask5_438_34" style="mask-type:luminance" maskUnits="userSpaceOnUse" x="79" y="52" width="28" height="35">
<path d="M79.3406 52.3464H106.065V86.5814H79.3406V52.3464Z" fill="white"/>
</mask>
<g mask="url(#mask5_438_34)">
<path fill-rule="evenodd" clip-rule="evenodd" d="M85.8483 85.3197C84.5872 85.3197 83.3261 85.3133 82.065 85.3261C80.7495 85.3324 79.8686 84.6956 79.8022 83.3074C79.7358 81.7918 80.7375 81.3524 82.0107 81.3524C84.0864 81.3651 86.1681 81.3651 88.2438 81.3524C92.9444 81.3269 95.708 79.1363 96.957 74.3729C98.5802 68.164 100.185 61.9488 101.754 55.7271C102.116 54.2943 102.707 53.0653 104.288 53.562C105.809 54.0332 105.785 55.3641 105.411 56.8161C103.812 63.0313 102.339 69.2848 100.71 75.5001C99.0448 81.8172 94.5374 85.3133 88.2981 85.3197C87.4775 85.3261 86.6629 85.3197 85.8483 85.3197Z" fill="#27096D"/>
</g>
<path fill-rule="evenodd" clip-rule="evenodd" d="M35.7096 85.3206C34.2071 85.1996 32.4451 85.4033 30.6591 85.034C25.7232 84.0087 22.5855 80.9075 21.2158 75.9722C19.4598 69.6423 17.9513 63.2296 16.3583 56.8488C16.0204 55.4924 15.9179 54.015 17.5048 53.5501C19.0857 53.0852 19.665 54.3015 20.027 55.7471C21.5718 61.8987 23.1889 68.0375 24.7517 74.1828C25.9827 79.0034 28.8247 81.3405 33.5614 81.3532C35.6372 81.366 37.7129 81.366 39.7886 81.3596C41.0618 81.3532 42.1177 81.8563 42.0453 83.3019C41.985 84.5946 41.0859 85.3397 39.7524 85.3269C38.4913 85.3078 37.2301 85.3206 35.7096 85.3206Z" fill="#27096D"/>
<path fill-rule="evenodd" clip-rule="evenodd" d="M98.7058 40.0871C98.7058 43.6342 96.0086 46.4552 92.6476 46.4425C89.2806 46.4234 86.6196 43.596 86.6316 40.0362C86.6437 36.4955 89.3228 33.7063 92.7019 33.719C96.0991 33.7318 98.7118 36.5083 98.7058 40.0871Z" fill="#27096D"/>
<path fill-rule="evenodd" clip-rule="evenodd" d="M35.1196 39.917C35.1437 43.5022 32.5431 46.3615 29.1821 46.4315C25.9297 46.5016 23.0515 43.5786 22.973 40.1207C22.8886 36.5737 25.7004 33.689 29.2243 33.7017C32.5189 33.7081 35.0894 36.4209 35.1196 39.917Z" fill="#27096D"/>
<mask id="mask6_438_34" style="mask-type:luminance" maskUnits="userSpaceOnUse" x="54" y="30" width="13" height="13">
<path d="M54.6277 30.5801H66.9854V42.5648H54.6277V30.5801Z" fill="white"/>
</mask>
<g mask="url(#mask6_438_34)">
<path fill-rule="evenodd" clip-rule="evenodd" d="M66.6819 36.5398C66.7 39.8895 64.2804 42.4176 61.0883 42.3921C57.9687 42.3666 55.4405 39.6857 55.4827 36.4634C55.531 33.3685 58.0653 30.7258 61.0461 30.6748C64.1717 30.6239 66.6698 33.222 66.6819 36.5398Z" fill="#27096D"/>
</g>
<defs>
<linearGradient id="paint0_linear_438_34" x1="10.33" y1="133.706" x2="126.268" y2="4.71801" gradientUnits="userSpaceOnUse">
<stop stop-color="#DEDEDE"/>
<stop offset="0.0625" stop-color="#DEDEDE"/>
<stop offset="0.09375" stop-color="#DEDEDE"/>
<stop offset="0.109375" stop-color="#DFDFDF"/>
<stop offset="0.125" stop-color="#E0E0E0"/>
<stop offset="0.140625" stop-color="#E1E1E1"/>
<stop offset="0.15625" stop-color="#E2E2E2"/>
<stop offset="0.171875" stop-color="#E2E2E2"/>
<stop offset="0.1875" stop-color="#E3E3E3"/>
<stop offset="0.203125" stop-color="#E4E4E4"/>
<stop offset="0.21875" stop-color="#E5E5E5"/>
<stop offset="0.234375" stop-color="#E6E6E6"/>
<stop offset="0.25" stop-color="#E7E7E7"/>
<stop offset="0.265625" stop-color="#E8E8E8"/>
<stop offset="0.28125" stop-color="#E8E8E8"/>
<stop offset="0.296875" stop-color="#E9E9E9"/>
<stop offset="0.3125" stop-color="#EAEAEA"/>
<stop offset="0.328125" stop-color="#EBEBEB"/>
<stop offset="0.34375" stop-color="#ECECEC"/>
<stop offset="0.359375" stop-color="#EDEDED"/>
<stop offset="0.375" stop-color="#EDEDED"/>
<stop offset="0.390625" stop-color="#EEEEEE"/>
<stop offset="0.40625" stop-color="#EFEFEF"/>
<stop offset="0.421875" stop-color="#EFEFEF"/>
<stop offset="0.4375" stop-color="#F0F0F0"/>
<stop offset="0.453125" stop-color="#F0F0F0"/>
<stop offset="0.45995" stop-color="#F1F1F1"/>
<stop offset="0.46875" stop-color="#F1F1F1"/>
<stop offset="0.484375" stop-color="#F2F2F2"/>
<stop offset="0.5" stop-color="#F2F2F2"/>
<stop offset="0.515625" stop-color="#F3F3F3"/>
<stop offset="0.53125" stop-color="#F3F3F3"/>
<stop offset="0.54005" stop-color="#F4F4F4"/>
<stop offset="0.546875" stop-color="#F4F4F4"/>
<stop offset="0.5625" stop-color="#F4F4F4"/>
<stop offset="0.578125" stop-color="#F5F5F5"/>
<stop offset="0.59375" stop-color="#F5F5F5"/>
<stop offset="0.609375" stop-color="#F6F6F6"/>
<stop offset="0.625" stop-color="#F7F7F7"/>
<stop offset="0.640625" stop-color="#F7F7F7"/>
<stop offset="0.65625" stop-color="#F8F8F8"/>
<stop offset="0.671875" stop-color="#F8F8F8"/>
<stop offset="0.6875" stop-color="#F9F9F9"/>
<stop offset="0.703125" stop-color="#F9F9F9"/>
<stop offset="0.71875" stop-color="#FAFAFA"/>
<stop offset="0.734375" stop-color="#FAFAFA"/>
<stop offset="0.75" stop-color="#FBFBFB"/>
<stop offset="0.765625" stop-color="#FCFCFC"/>
<stop offset="0.78125" stop-color="#FCFCFC"/>
<stop offset="0.796875" stop-color="#FDFDFD"/>
<stop offset="0.8125" stop-color="#FDFDFD"/>
<stop offset="0.828125" stop-color="#FEFEFE"/>
<stop offset="0.84375" stop-color="#FEFEFE"/>
<stop offset="0.875" stop-color="white"/>
<stop offset="1" stop-color="white"/>
</linearGradient>
<linearGradient id="paint1_linear_438_34" x1="106.457" y1="-2.16277" x2="19.3524" y2="130.139" gradientUnits="userSpaceOnUse">
<stop stop-color="#EDEDED"/>
<stop offset="0.125" stop-color="#EDEDED"/>
<stop offset="0.140625" stop-color="#EDEDED"/>
<stop offset="0.15625" stop-color="#EEEEEE"/>
<stop offset="0.171875" stop-color="#EFEFEF"/>
<stop offset="0.1875" stop-color="#EFEFEF"/>
<stop offset="0.203125" stop-color="#F0F0F0"/>
<stop offset="0.21875" stop-color="#F0F0F0"/>
<stop offset="0.234375" stop-color="#F1F1F1"/>
<stop offset="0.25" stop-color="#F1F1F1"/>
<stop offset="0.265625" stop-color="#F2F2F2"/>
<stop offset="0.28125" stop-color="#F2F2F2"/>
<stop offset="0.296875" stop-color="#F3F3F3"/>
<stop offset="0.3125" stop-color="#F3F3F3"/>
<stop offset="0.328125" stop-color="#F4F4F4"/>
<stop offset="0.34375" stop-color="#F4F4F4"/>
<stop offset="0.359375" stop-color="#F5F5F5"/>
<stop offset="0.375" stop-color="#F5F5F5"/>
<stop offset="0.384177" stop-color="#F6F6F6"/>
<stop offset="0.40625" stop-color="#F6F6F6"/>
<stop offset="0.4375" stop-color="#F7F7F7"/>
<stop offset="0.5" stop-color="#F7F7F7"/>
<stop offset="0.5625" stop-color="#F8F8F8"/>
<stop offset="0.615823" stop-color="#F9F9F9"/>
<stop offset="0.625" stop-color="#FAFAFA"/>
<stop offset="0.6875" stop-color="#FAFAFA"/>
<stop offset="0.75" stop-color="#FBFBFB"/>
<stop offset="0.8125" stop-color="#FCFCFC"/>
<stop offset="0.875" stop-color="#FDFDFD"/>
<stop offset="0.9375" stop-color="#FEFEFE"/>
<stop offset="1" stop-color="white"/>
</linearGradient>
</defs>
</svg>
