<svg width="108" height="122" viewBox="0 0 108 122" fill="none" xmlns="http://www.w3.org/2000/svg">
<mask id="mask0_431_23" style="mask-type:luminance" maskUnits="userSpaceOnUse" x="0" y="0" width="108" height="122">
<path d="M0.388428 0.93335L107.233 0.93335V121.112H0.388428L0.388428 0.93335Z" fill="white"/>
</mask>
<g mask="url(#mask0_431_23)">
<mask id="mask1_431_23" style="mask-type:luminance" maskUnits="userSpaceOnUse" x="1" y="1" width="106" height="120">
<path fill-rule="evenodd" clip-rule="evenodd" d="M54.2525 1.10425C25.2945 1.10425 1.81934 27.8692 1.81934 60.887C1.81934 93.9113 25.2945 120.683 54.2525 120.683C83.2047 120.683 106.674 93.9113 106.674 60.887C106.674 27.8692 83.2047 1.10425 54.2525 1.10425Z" fill="white"/>
</mask>
<g mask="url(#mask1_431_23)">
<path d="M1.81934 1.10425L1.81934 120.683H106.674V1.10425L1.81934 1.10425Z" fill="url(#paint0_linear_431_23)"/>
</g>
</g>
<path d="M84.925 58.5905C84.6106 59.2686 83.9931 59.6924 83.3185 59.6924H54.9951C54.4348 59.6924 53.9031 59.3925 53.56 58.8904C53.217 58.3818 53.0969 57.7233 53.2342 57.1039L56.0013 44.6505C56.2071 43.7312 56.9332 43.0857 57.7622 43.0857H83.3185C83.9931 43.0857 84.6106 43.503 84.925 44.1811C85.2395 44.8526 85.2052 45.6742 84.8335 46.3131L81.8663 51.3858L84.8335 56.4649C85.2052 57.0974 85.2395 57.9189 84.925 58.5905ZM72.3927 66.7471L45.8646 74.4082L43.955 83.0017C46.2191 81.8868 48.5689 82.1085 50.0668 83.8167C52.2336 86.2813 51.6676 90.7932 48.7804 94.0859C47.0709 96.0354 44.9956 97.0525 43.1317 97.0525C41.8396 97.0525 40.6562 96.5635 39.77 95.5594C38.5007 94.1054 38.1691 91.9538 38.6951 89.7565L41.8511 75.5688L29.2902 79.2005C27.5121 79.7156 25.6369 79.4352 24.3276 77.9421C21.9149 75.1906 23.0755 70.5614 25.614 67.6665C28.1353 64.7846 32.2003 63.4349 34.6187 66.1994C35.928 67.6925 36.4311 70.268 35.3277 73.1694L42.8687 70.9917L45.3786 59.6924H24.8307C24.1618 59.6924 23.5443 59.2686 23.2242 58.5905C22.9097 57.9189 22.944 57.0974 23.3157 56.4649L26.2829 51.3858L23.3157 46.3131C22.944 45.6742 22.9097 44.8526 23.2242 44.1811C23.5443 43.503 24.1618 43.0857 24.8307 43.0857H49.0663L49.5865 40.7385C49.8324 39.6235 50.8272 38.952 51.7991 39.2323C52.7768 39.5192 53.3657 40.6472 53.1198 41.7556L46.8766 69.8311L71.5009 62.7177C72.4728 62.4373 73.4619 63.1089 73.7134 64.2238C73.9593 65.3323 73.3704 66.4602 72.3927 66.7471ZM84.1074 51.3858L86.3886 47.4868C87.1433 46.1958 87.2119 44.5462 86.5716 43.177C85.9255 41.8078 84.6792 40.9536 83.3185 40.9536H57.7622C56.5902 40.9536 55.5325 41.5991 54.8521 42.6097L54.9265 42.2772C55.4239 40.0343 54.229 37.7457 52.2565 37.172C51.9592 37.0872 51.6562 37.0481 51.3532 37.0481C49.6666 37.0481 48.1972 38.3521 47.7799 40.2169L47.6198 40.9536H24.8307C23.47 40.9536 22.2237 41.8078 21.5833 43.177C20.943 44.5397 21.0116 46.1958 21.7663 47.4868L24.0418 51.3858L21.7663 55.2848C21.0116 56.5758 20.943 58.2254 21.5833 59.5946C22.2237 60.9638 23.47 61.8179 24.8307 61.8179H42.9831L41.3308 69.2443L37.7918 70.268C37.8433 68.1229 37.2086 66.1473 35.9394 64.6933C34.7159 63.298 33.1151 62.5612 31.3084 62.5612C28.8957 62.5612 26.2715 63.9109 24.2933 66.1668C21.1145 69.792 19.7652 75.7449 23.0069 79.4483C24.2247 80.8305 25.837 81.5673 27.6779 81.5673C28.3583 81.5673 29.0558 81.463 29.7476 81.2609L39.2726 78.5094L36.8999 89.1958C36.1681 92.2342 36.7341 95.103 38.455 97.059C39.6499 98.4283 41.3136 99.1846 43.1317 99.1846C45.5559 99.1846 48.0943 97.8741 50.0954 95.592C53.7201 91.4583 54.2861 85.6228 51.3818 82.3106C50.1869 80.9414 48.5231 80.1916 46.705 80.1916C46.6364 80.1916 46.5678 80.1916 46.4992 80.1916L47.3968 76.1621L72.8501 68.8075C73.8049 68.5271 74.6111 67.849 75.1142 66.884C75.6173 65.9191 75.7602 64.7846 75.5201 63.7022C75.3543 62.972 75.0284 62.333 74.5939 61.8179H83.3185C84.6792 61.8179 85.9255 60.9638 86.5716 59.5946C87.2119 58.2254 87.1433 56.5758 86.3886 55.2848L84.1074 51.3858Z" fill="#27096D"/>
<mask id="mask2_431_23" style="mask-type:luminance" maskUnits="userSpaceOnUse" x="50" y="24" width="24" height="17">
<path d="M50.1516 24.0745H73.5696V40.9941H50.1516V24.0745Z" fill="white"/>
</mask>
<g mask="url(#mask2_431_23)">
<path d="M53.1435 26.4217C54.0411 25.9066 55.1331 26.3239 55.5848 27.3476L59.2267 35.6476C59.6726 36.6778 59.3067 37.9231 58.4091 38.4382C57.5115 38.9468 56.4195 38.536 55.9678 37.5059L52.3259 29.2058C51.88 28.1821 52.2402 26.9303 53.1435 26.4217ZM63.2516 35.6476L66.8878 27.3476C67.3395 26.3239 68.4315 25.9066 69.3291 26.4217C70.2324 26.9303 70.5926 28.1821 70.1467 29.2058L66.5048 37.5059C66.0588 38.5295 64.9611 38.9468 64.0635 38.4382C63.1659 37.9231 62.8 36.6778 63.2516 35.6476ZM54.2984 38.4578C54.9273 39.8922 56.1965 40.7855 57.5972 40.7855C58.1633 40.7855 58.735 40.629 59.2438 40.3421C60.3644 39.7031 61.0676 38.4969 61.2392 37.1799C61.405 38.4969 62.1139 39.7031 63.2288 40.3421C63.7376 40.629 64.3093 40.7855 64.8753 40.7855C66.2818 40.7855 67.5453 39.8922 68.1742 38.4578L71.8104 30.1577C72.7194 28.0843 71.9819 25.5545 70.1638 24.5178C69.655 24.2309 69.0833 24.0745 68.5172 24.0745C67.1108 24.0745 65.8473 24.9677 65.2241 26.3956L61.5822 34.7022C61.3878 35.1391 61.2849 35.5955 61.2392 36.0584C61.1877 35.5955 61.0848 35.1391 60.8904 34.7022L57.2485 26.3956C56.6196 24.9677 55.3561 24.0745 53.9553 24.0745C53.3893 24.0745 52.8176 24.2244 52.3088 24.5178C50.4907 25.5545 49.7531 28.0843 50.6622 30.1577L54.2984 38.4578Z" fill="#27096D"/>
</g>
<defs>
<linearGradient id="paint0_linear_431_23" x1="96.9828" y1="-5.78888" x2="5.26183" y2="123.133" gradientUnits="userSpaceOnUse">
<stop stop-color="#EDEDED"/>
<stop offset="0.125" stop-color="#EDEDED"/>
<stop offset="0.140625" stop-color="#EDEDED"/>
<stop offset="0.15625" stop-color="#EEEEEE"/>
<stop offset="0.171875" stop-color="#EFEFEF"/>
<stop offset="0.1875" stop-color="#EFEFEF"/>
<stop offset="0.203125" stop-color="#F0F0F0"/>
<stop offset="0.21875" stop-color="#F0F0F0"/>
<stop offset="0.234375" stop-color="#F1F1F1"/>
<stop offset="0.25" stop-color="#F1F1F1"/>
<stop offset="0.265625" stop-color="#F2F2F2"/>
<stop offset="0.28125" stop-color="#F2F2F2"/>
<stop offset="0.296875" stop-color="#F3F3F3"/>
<stop offset="0.3125" stop-color="#F3F3F3"/>
<stop offset="0.328125" stop-color="#F4F4F4"/>
<stop offset="0.34375" stop-color="#F4F4F4"/>
<stop offset="0.359375" stop-color="#F5F5F5"/>
<stop offset="0.375" stop-color="#F5F5F5"/>
<stop offset="0.384177" stop-color="#F6F6F6"/>
<stop offset="0.40625" stop-color="#F6F6F6"/>
<stop offset="0.4375" stop-color="#F7F7F7"/>
<stop offset="0.5" stop-color="#F7F7F7"/>
<stop offset="0.5625" stop-color="#F8F8F8"/>
<stop offset="0.615823" stop-color="#F9F9F9"/>
<stop offset="0.625" stop-color="#FAFAFA"/>
<stop offset="0.6875" stop-color="#FAFAFA"/>
<stop offset="0.75" stop-color="#FBFBFB"/>
<stop offset="0.8125" stop-color="#FCFCFC"/>
<stop offset="0.875" stop-color="#FDFDFD"/>
<stop offset="0.9375" stop-color="#FEFEFE"/>
<stop offset="1" stop-color="white"/>
</linearGradient>
</defs>
</svg>
