<svg width="113" height="120" viewBox="0 0 113 120" fill="none" xmlns="http://www.w3.org/2000/svg">
<mask id="mask0_438_32" style="mask-type:luminance" maskUnits="userSpaceOnUse" x="0" y="0" width="113" height="120">
<path d="M0.198486 0.437988L112.963 0.437988V119.445H0.198486L0.198486 0.437988Z" fill="white"/>
</mask>
<g mask="url(#mask0_438_32)">
<mask id="mask1_438_32" style="mask-type:luminance" maskUnits="userSpaceOnUse" x="1" y="1" width="111" height="118">
<path fill-rule="evenodd" clip-rule="evenodd" d="M56.3576 1.5708C25.8012 1.5708 1.01929 27.7119 1.01929 59.9599C1.01929 92.2144 25.8012 118.362 56.3576 118.362C86.9201 118.362 111.684 92.2144 111.684 59.9599C111.684 27.7119 86.9201 1.5708 56.3576 1.5708Z" fill="white"/>
</mask>
<g mask="url(#mask1_438_32)">
<path d="M1.01929 1.5708L1.01929 118.362H111.684V1.5708L1.01929 1.5708Z" fill="url(#paint0_linear_438_32)"/>
</g>
</g>
<mask id="mask2_438_32" style="mask-type:luminance" maskUnits="userSpaceOnUse" x="63" y="44" width="32" height="50">
<path d="M63.5288 44.4558H94.4232V93.6048H63.5288V44.4558Z" fill="white"/>
</mask>
<g mask="url(#mask2_438_32)">
<path fill-rule="evenodd" clip-rule="evenodd" d="M71.5312 83.2304C71.5312 85.4147 71.5916 87.5989 71.5131 89.7768C71.4226 92.1712 70.0348 93.5659 67.8927 93.6168C65.7687 93.6678 64.0792 92.3113 64.0309 90.0125C63.9102 83.6189 63.9163 77.2189 64.0249 70.8254C64.0611 68.6666 65.7325 67.2656 67.9349 67.2083C70.6744 67.1382 73.4199 67.1319 76.1594 67.2083C77.4748 67.2401 78.048 67.0236 78.1566 65.3615C78.4221 61.3305 79.0919 57.3377 80.2444 53.4659C81.6443 48.7408 85.5483 45.7223 90.2127 45.7542C93.465 45.7796 94.877 47.7219 94.0202 51.1416C92.7168 56.3188 91.3531 61.477 89.9954 66.6352C87.8172 74.9264 87.8111 74.9264 79.5445 74.9264C77.6136 74.9264 75.6827 75.0347 73.7638 74.8946C72.0864 74.7672 71.3381 75.1875 71.5071 77.1489C71.6821 79.1612 71.5493 81.199 71.5493 83.2304C71.5433 83.2304 71.5373 83.2304 71.5312 83.2304Z" fill="#27096D"/>
</g>
<mask id="mask3_438_32" style="mask-type:luminance" maskUnits="userSpaceOnUse" x="17" y="44" width="32" height="50">
<path d="M17.1863 44.4558H48.0807V93.6048H17.1863V44.4558Z" fill="white"/>
</mask>
<g mask="url(#mask3_438_32)">
<path fill-rule="evenodd" clip-rule="evenodd" d="M47.8137 80.4176C47.8137 83.3852 47.8499 86.3527 47.8016 89.3139C47.7594 92.0267 46.2086 93.6696 43.8553 93.6187C41.5926 93.5614 40.2349 91.9821 40.2168 89.2884C40.1866 85.2319 40.1263 81.1691 40.247 77.1189C40.2952 75.4314 39.9694 74.7946 38.2135 74.8774C34.8827 75.0429 31.5398 74.9474 28.203 74.9156C25.2222 74.8901 23.593 73.5783 22.7784 70.4834C21.0345 63.9051 19.3269 57.3141 17.6615 50.7104C16.9133 47.7493 18.3795 45.8325 21.294 45.756C26.1755 45.635 30.3451 48.7936 31.6907 53.8626C32.6682 57.5307 33.3983 61.2815 33.5552 65.1023C33.6216 66.6562 34.0017 67.3248 35.6128 67.2229C37.9782 67.0764 40.3556 67.1783 42.727 67.1847C46.5405 67.2038 47.8076 68.522 47.8137 72.4575C47.8197 75.113 47.8137 77.7685 47.8137 80.4176Z" fill="#27096D"/>
</g>
<path fill-rule="evenodd" clip-rule="evenodd" d="M56.1379 41.5338C58.4369 41.5338 60.7299 41.5084 63.0288 41.5402C67.0596 41.5975 69.974 44.6351 70.0947 48.8826C70.1128 49.5067 70.1007 50.1308 70.1007 50.7549C70.1007 53.8689 70.0947 53.7797 67.2406 53.8752C65.7562 53.9262 65.0623 53.5887 65.2494 51.8629C65.3278 51.1178 65.6838 49.7678 64.6218 49.7232C63.4391 49.6723 63.8314 51.0478 63.9219 51.761C64.1572 53.6014 63.4271 53.9325 61.8341 53.8816C57.9904 53.7542 54.1346 53.7542 50.2849 53.8816C48.6979 53.9325 48.1247 53.4167 48.3781 51.7992C48.4324 51.4235 48.3962 51.0223 48.36 50.6339C48.3178 50.1626 48.2273 49.6086 47.6601 49.6404C47.1774 49.6723 46.936 50.1053 46.9662 50.6466C46.9662 50.723 46.9782 50.8058 46.9662 50.8822C46.8274 51.8438 47.4489 53.3467 46.6041 53.6778C45.4275 54.13 43.9793 53.8179 42.6518 53.8307C42.1872 53.8307 41.9881 53.5568 42.0062 53.1047C42.1088 50.7167 41.5416 48.2267 42.5492 45.9533C43.7681 43.215 45.8559 41.6166 48.8066 41.5466C51.2504 41.4893 53.6941 41.5338 56.1379 41.5338Z" fill="#27096D"/>
<path fill-rule="evenodd" clip-rule="evenodd" d="M56.2757 61.2353C50.1934 61.2353 44.105 61.1461 38.0287 61.2926C36.1823 61.3308 36.1642 60.4201 36.297 59.0637C36.4176 57.8411 35.6513 56.2936 38.0227 56.3127C50.1149 56.421 62.2132 56.421 74.2995 56.3127C76.3872 56.2936 75.9226 57.5545 75.8623 58.6816C75.808 59.7897 76.5924 61.3371 74.2995 61.2862C68.2956 61.1397 62.2856 61.2353 56.2757 61.2353Z" fill="#27096D"/>
<mask id="mask4_438_32" style="mask-type:luminance" maskUnits="userSpaceOnUse" x="74" y="49" width="28" height="35">
<path d="M74.3406 49.3464H101.065V83.5814H74.3406V49.3464Z" fill="white"/>
</mask>
<g mask="url(#mask4_438_32)">
<path fill-rule="evenodd" clip-rule="evenodd" d="M80.8483 82.3197C79.5872 82.3197 78.3261 82.3133 77.065 82.3261C75.7495 82.3324 74.8686 81.6956 74.8022 80.3074C74.7358 78.7918 75.7375 78.3524 77.0107 78.3524C79.0864 78.3651 81.1681 78.3651 83.2438 78.3524C87.9444 78.3269 90.708 76.1363 91.957 71.3729C93.5802 65.164 95.1852 58.9488 96.7541 52.7271C97.1161 51.2943 97.7075 50.0653 99.2884 50.562C100.809 51.0332 100.785 52.3641 100.411 53.8161C98.8117 60.0313 97.3394 66.2848 95.7102 72.5001C94.0448 78.8172 89.5374 82.3133 83.2981 82.3197C82.4775 82.3261 81.6629 82.3197 80.8483 82.3197Z" fill="#27096D"/>
</g>
<path fill-rule="evenodd" clip-rule="evenodd" d="M30.7096 82.3206C29.2071 82.1996 27.4451 82.4033 25.6591 82.034C20.7232 81.0087 17.5855 77.9075 16.2158 72.9722C14.4598 66.6423 12.9513 60.2296 11.3583 53.8488C11.0204 52.4924 10.9179 51.015 12.5048 50.5501C14.0857 50.0852 14.665 51.3015 15.027 52.7471C16.5718 58.8987 18.1889 65.0375 19.7517 71.1828C20.9827 76.0034 23.8247 78.3405 28.5614 78.3532C30.6372 78.366 32.7129 78.366 34.7886 78.3596C36.0618 78.3532 37.1177 78.8563 37.0453 80.3019C36.985 81.5946 36.0859 82.3397 34.7524 82.3269C33.4913 82.3078 32.2301 82.3206 30.7096 82.3206Z" fill="#27096D"/>
<path fill-rule="evenodd" clip-rule="evenodd" d="M93.7058 37.0871C93.7058 40.6342 91.0086 43.4552 87.6476 43.4425C84.2806 43.4234 81.6196 40.596 81.6316 37.0362C81.6437 33.4955 84.3228 30.7063 87.7019 30.719C91.0991 30.7318 93.7118 33.5083 93.7058 37.0871Z" fill="#27096D"/>
<path fill-rule="evenodd" clip-rule="evenodd" d="M30.1196 36.917C30.1437 40.5022 27.5431 43.3615 24.1821 43.4315C20.9297 43.5016 18.0515 40.5786 17.973 37.1207C17.8886 33.5737 20.7004 30.689 24.2243 30.7017C27.5189 30.7081 30.0894 33.4209 30.1196 36.917Z" fill="#27096D"/>
<mask id="mask5_438_32" style="mask-type:luminance" maskUnits="userSpaceOnUse" x="49" y="27" width="13" height="13">
<path d="M49.6277 27.5801H61.9854V39.5648H49.6277V27.5801Z" fill="white"/>
</mask>
<g mask="url(#mask5_438_32)">
<path fill-rule="evenodd" clip-rule="evenodd" d="M61.6819 33.5398C61.7 36.8895 59.2804 39.4176 56.0883 39.3921C52.9687 39.3666 50.4405 36.6857 50.4827 33.4634C50.531 30.3685 53.0653 27.7258 56.0461 27.6748C59.1717 27.6239 61.6698 30.222 61.6819 33.5398Z" fill="#27096D"/>
</g>
<defs>
<linearGradient id="paint0_linear_438_32" x1="101.457" y1="-5.16277" x2="14.3524" y2="127.139" gradientUnits="userSpaceOnUse">
<stop stop-color="#EDEDED"/>
<stop offset="0.125" stop-color="#EDEDED"/>
<stop offset="0.140625" stop-color="#EDEDED"/>
<stop offset="0.15625" stop-color="#EEEEEE"/>
<stop offset="0.171875" stop-color="#EFEFEF"/>
<stop offset="0.1875" stop-color="#EFEFEF"/>
<stop offset="0.203125" stop-color="#F0F0F0"/>
<stop offset="0.21875" stop-color="#F0F0F0"/>
<stop offset="0.234375" stop-color="#F1F1F1"/>
<stop offset="0.25" stop-color="#F1F1F1"/>
<stop offset="0.265625" stop-color="#F2F2F2"/>
<stop offset="0.28125" stop-color="#F2F2F2"/>
<stop offset="0.296875" stop-color="#F3F3F3"/>
<stop offset="0.3125" stop-color="#F3F3F3"/>
<stop offset="0.328125" stop-color="#F4F4F4"/>
<stop offset="0.34375" stop-color="#F4F4F4"/>
<stop offset="0.359375" stop-color="#F5F5F5"/>
<stop offset="0.375" stop-color="#F5F5F5"/>
<stop offset="0.384177" stop-color="#F6F6F6"/>
<stop offset="0.40625" stop-color="#F6F6F6"/>
<stop offset="0.4375" stop-color="#F7F7F7"/>
<stop offset="0.5" stop-color="#F7F7F7"/>
<stop offset="0.5625" stop-color="#F8F8F8"/>
<stop offset="0.615823" stop-color="#F9F9F9"/>
<stop offset="0.625" stop-color="#FAFAFA"/>
<stop offset="0.6875" stop-color="#FAFAFA"/>
<stop offset="0.75" stop-color="#FBFBFB"/>
<stop offset="0.8125" stop-color="#FCFCFC"/>
<stop offset="0.875" stop-color="#FDFDFD"/>
<stop offset="0.9375" stop-color="#FEFEFE"/>
<stop offset="1" stop-color="white"/>
</linearGradient>
</defs>
</svg>
