<svg width="1493" height="1074" viewBox="0 0 1493 1074" fill="none" xmlns="http://www.w3.org/2000/svg">
<path d="M890.91 689.396L890.596 799.189L780.506 863.177L780.819 753.384L890.91 689.396Z" fill="#27096D"/>
<path d="M785.259 755.942L784.979 855.439L886.159 796.615L886.439 697.135L785.259 755.942ZM780.507 867.616C779.732 867.616 778.973 867.435 778.28 867.022C776.91 866.23 776.052 864.762 776.069 863.178L776.366 753.384C776.382 751.8 777.224 750.332 778.593 749.54L888.683 685.535C890.053 684.726 891.753 684.743 893.139 685.535C894.508 686.327 895.366 687.795 895.366 689.396L895.053 799.206C895.036 800.79 894.195 802.242 892.842 803.034L782.751 867.022C782.058 867.435 781.283 867.616 780.507 867.616Z" fill="#27096D"/>
<path d="M410.256 781.765L344.255 743.649C294.011 714.625 276.752 686.558 276.818 661.576L276.504 771.37C276.438 796.351 293.697 824.435 343.941 853.442L409.942 891.575C426.492 901.112 433.422 908.438 433.406 914.956L433.719 805.179C433.736 798.645 426.806 791.318 410.256 781.765Z" fill="#27096D"/>
<path d="M281.173 693.323L280.958 771.37C280.876 798.249 302.821 824.567 346.151 849.598L412.169 887.697C419.347 891.855 424.907 895.683 428.999 899.363L429.264 805.162C429.28 801.846 425.6 795.757 408.044 785.626L342.026 747.51C312.194 730.267 291.832 712.133 281.173 693.323ZM433.405 919.427H433.389C430.93 919.411 428.95 917.414 428.95 914.956C428.966 911.639 425.287 905.55 407.714 895.419L341.713 857.287C295.413 830.556 271.982 801.648 272.065 771.353L272.362 661.56C272.378 659.118 274.375 657.121 276.817 657.121H276.833C279.275 657.121 281.272 659.134 281.272 661.593C281.189 688.455 303.135 714.773 346.481 739.788L412.483 777.92C430.27 788.183 438.174 796.599 438.157 805.179L437.844 914.972C437.844 917.431 435.847 919.427 433.405 919.427Z" fill="#27096D"/>
<path d="M578.378 894.033L554.32 908.025C418.737 986.815 314.752 958.88 242.101 916.936C203.523 894.644 174.515 877.896 151.679 864.052C146.597 860.983 141.828 858.062 137.307 855.257C121.549 845.39 109.042 836.958 98.2012 828.708C76.5198 812.208 61.4714 796.45 40.2355 771.601L39.9385 881.377C88.466 938.188 104.62 947.494 241.804 1026.73C314.438 1068.69 418.44 1096.62 554.007 1017.82L578.064 1003.83C600.422 990.824 624.579 972.41 639.578 951.009C648.57 938.172 654.28 924.278 654.312 909.808L654.626 800.014C654.527 838.559 614.151 873.226 578.378 894.033Z" fill="#27096D"/>
<mask id="mask0_113_858" style="mask-type:luminance" maskUnits="userSpaceOnUse" x="35" y="765" width="625" height="309">
<path d="M35.2021 765.412H659.839V1073.77H35.2021V765.412Z" fill="white"/>
</mask>
<g mask="url(#mask0_113_858)">
<path d="M44.3761 879.744C91.5836 934.822 106.83 943.649 244.014 1022.87C342.735 1079.88 443.388 1076.96 551.778 1013.97L575.819 999.982C590.95 991.203 618.869 972.822 635.93 948.468C645.137 935.317 649.823 922.298 649.856 909.791L650.071 833.295C633.521 864.25 598.276 887.598 580.604 897.877L556.547 911.87C445.186 976.617 341.597 979.538 239.889 920.78C200.585 898.075 172.237 881.707 149.368 867.863C144.269 864.794 139.484 861.841 134.963 859.019C118.677 848.855 106.153 840.357 95.5107 832.256C76.0733 817.438 61.784 803.066 44.6566 783.514L44.3761 879.744ZM386.742 1072.53C336.828 1072.53 288.004 1058.54 239.575 1030.57C103.117 951.768 85.594 941.653 36.5549 884.281C35.8619 883.473 35.4824 882.433 35.4824 881.377L35.7959 771.584C35.7959 769.719 36.9675 768.069 38.7165 767.426C40.449 766.766 42.4126 767.277 43.6171 768.696C64.0445 792.589 79.2249 808.677 100.89 825.177C111.318 833.097 123.644 841.463 139.666 851.478C144.154 854.267 148.922 857.188 153.971 860.257C176.775 874.051 205.073 890.403 244.245 913.025C343.049 970.083 443.718 967.179 552.075 904.164L576.149 890.188C593.475 880.107 650.054 843.806 650.17 799.997C650.186 797.555 652.167 795.575 654.625 795.575H654.642C657.084 795.575 659.08 797.572 659.064 800.014L658.767 909.807C658.717 924.179 653.487 938.914 643.223 953.566C625.172 979.323 596.049 998.53 580.291 1007.69L556.25 1021.65C497.888 1055.59 441.672 1072.53 386.742 1072.53Z" fill="#27096D"/>
</g>
<path d="M612.072 647.451C572.488 624.598 556.301 616.959 525.693 634.762L517.674 639.416C506.487 645.917 498.896 651.576 498.88 658.424L498.566 768.217C498.599 761.37 506.19 755.694 517.36 749.209L525.379 744.539C555.988 726.752 572.174 734.392 611.759 757.261C660.187 785.229 738.68 833.08 780.508 863.177L780.821 753.384C738.993 723.287 660.501 675.436 612.072 647.451Z" fill="#27096D"/>
<path d="M555.969 730.35C572.948 730.35 589.465 739.26 613.985 753.417C655.681 777.508 731.005 823.032 776.084 854.581L776.365 755.661C732.342 724.245 653.024 676.262 609.843 651.313C570.292 628.46 556.415 622.042 527.919 638.591L519.9 643.261C511.715 648.013 503.333 653.541 503.333 658.441L503.053 753.302C506.6 750.447 510.841 747.84 515.115 745.365L523.15 740.696C535.459 733.518 545.805 730.35 555.969 730.35ZM780.506 867.616C779.599 867.616 778.675 867.336 777.916 866.791C734.322 835.424 653.338 786.418 609.546 761.107C569.962 738.27 556.101 731.835 527.605 748.385L519.603 753.038C511.402 757.807 503.036 763.351 503.02 768.251C503.003 770.693 501.007 772.673 498.565 772.673C496.106 772.657 494.11 770.66 494.126 768.218L494.44 658.408C494.456 648.591 504.818 641.743 515.428 635.572L523.464 630.919C556.382 611.762 575.093 620.969 614.298 643.608C658.239 668.985 739.536 718.206 783.41 749.771C784.582 750.612 785.275 751.949 785.275 753.401L784.961 863.194C784.961 864.861 784.021 866.379 782.536 867.154C781.892 867.468 781.199 867.616 780.506 867.616Z" fill="#27096D"/>
<path d="M749.074 577.343C823.16 620.128 863.157 655.109 890.911 689.396L780.821 753.385C738.992 723.288 660.5 675.437 612.071 647.453C572.487 624.6 556.3 616.96 525.692 634.764L517.673 639.417C495.084 652.535 487.147 662.319 526.732 685.172L595.703 725.004C707.18 789.389 636.69 860.142 578.378 894.034L554.32 908.026C418.737 986.815 314.752 958.88 242.101 916.936C104.933 837.718 88.7959 828.395 40.2354 771.601L150.276 707.629C176.66 726.275 264.063 782.623 332.259 822.01C363.84 840.243 383.558 842.338 405.438 829.633L417.054 822.868C438.224 810.575 442.547 800.411 410.256 781.765L344.254 743.65C204.876 663.177 319.289 589.85 353.511 569.95L397.979 544.111C493.45 488.604 600.29 499.626 687.577 544.078C710.381 555.711 730.775 566.766 749.074 577.343Z" fill="white"/>
<mask id="mask1_113_858" style="mask-type:luminance" maskUnits="userSpaceOnUse" x="35" y="499" width="862" height="465">
<path d="M35.2021 499.295H896.388V963.945H35.2021V499.295Z" fill="white"/>
</mask>
<g mask="url(#mask1_113_858)">
<path d="M47.0991 772.755C92.4586 825.358 109.503 835.226 244.328 913.074C343.049 970.083 443.718 967.179 552.076 904.164L576.15 890.188C593.525 880.073 650.236 843.69 650.17 799.783C650.137 774.422 631.063 750.562 593.475 728.848L524.504 689.032C503.433 676.855 494.44 667.714 494.44 658.474C494.407 648.607 504.802 641.742 515.429 635.571L523.464 630.918C556.382 611.761 575.094 620.968 614.299 643.607C657.464 668.539 736.698 716.472 781.084 748.087L884.145 688.174C853.075 651.098 810.471 617.932 746.862 581.203C728.366 570.51 707.74 559.373 685.547 548.053C588.855 498.8 484.853 498.75 400.207 547.954L355.755 573.81C321.731 593.578 281.206 624.879 281.272 661.79C281.305 688.587 303.251 714.822 346.481 739.787L412.483 777.92C430.221 788.167 438.141 796.549 438.157 805.129C438.174 814.468 428.637 821.283 419.298 826.728L407.681 833.46C384.251 847.089 363.213 845.027 330.047 825.853C260.845 785.906 177.32 731.867 150.061 712.892L47.0991 772.755ZM387.039 962.724C337.142 962.724 288.301 948.748 239.889 920.78C103.431 841.991 85.9079 831.843 36.8689 774.488C36.0109 773.481 35.6314 772.145 35.8624 770.841C36.0769 769.538 36.8689 768.399 38.0074 767.756L148.048 703.767C149.55 702.893 151.431 702.992 152.85 703.982C177.204 721.208 263.386 777.095 334.486 818.164C364.78 835.671 382.766 837.651 403.193 825.787L414.809 819.022C424.545 813.363 429.28 808.825 429.264 805.145C429.264 801.812 425.584 795.74 408.044 785.625L342.026 747.51C295.858 720.845 272.411 692.002 272.362 661.79C272.312 629.235 299.604 596.135 351.267 566.105L395.735 540.265C483.038 489.494 590.159 489.444 689.59 540.117C711.915 551.502 732.672 562.739 751.318 573.497C818.193 612.108 862.315 647.006 894.359 686.59C895.184 687.597 895.514 688.9 895.283 690.187C895.052 691.474 894.277 692.58 893.138 693.24L783.064 757.228C781.53 758.103 779.649 758.02 778.23 756.997C734.619 725.614 653.635 676.608 609.844 651.313C570.292 628.46 556.415 622.041 527.919 638.591L519.9 643.26C511.699 648.029 503.317 653.557 503.334 658.457C503.334 662.137 507.772 669.1 528.959 681.327L597.93 721.159C638.455 744.556 659.031 771.006 659.064 799.766C659.147 847.122 604.217 884.149 580.605 897.877L556.547 911.87C498.202 945.778 441.969 962.724 387.039 962.724Z" fill="#27096D"/>
</g>
<path d="M919.765 935.647L823.253 883.301L819.129 756.032L915.641 808.378L919.765 935.647Z" fill="#27096D"/>
<path d="M911.283 811.074L823.819 763.641L827.622 880.616L915.071 928.042L911.283 811.074ZM815.219 753.929C815.587 753.246 816.107 752.664 816.799 752.249C818.146 751.419 819.845 751.36 821.232 752.126L917.752 804.457C919.139 805.223 920.033 806.661 920.08 808.242L924.219 935.519C924.281 937.108 923.461 938.596 922.106 939.441C920.759 940.271 919.059 940.33 917.65 939.571L821.124 887.217C819.737 886.451 818.858 885.022 818.802 883.455L814.678 756.186C814.644 755.38 814.852 754.612 815.219 753.929Z" fill="#27096D"/>
<path d="M1066.39 468.679L1131.25 428.648C1180.63 398.179 1213.53 396.295 1235.49 408.201L1138.98 355.855C1117.02 343.949 1084.11 345.826 1034.74 376.303L969.868 416.325C953.623 426.372 943.886 428.999 938.156 425.894L1034.65 478.232C1040.4 481.345 1050.13 478.718 1066.39 468.679Z" fill="#27096D"/>
<path d="M1205.48 396.979L1136.87 359.776C1113.24 346.956 1079.66 353.795 1037.08 380.071L972.226 420.124C965.162 424.471 959.154 427.551 953.974 429.409L1036.78 474.316C1039.69 475.904 1046.8 475.552 1064.05 464.9L1128.91 424.855C1158.24 406.768 1183.86 397.442 1205.48 396.979ZM934.22 423.772L934.228 423.757C935.409 421.601 938.105 420.804 940.27 421.97C943.182 423.558 950.287 423.206 967.541 412.54L1032.41 372.517C1077.9 344.432 1114.47 337.514 1141.1 351.954L1237.62 404.286C1239.76 405.458 1240.57 408.163 1239.41 410.313L1239.41 410.327C1238.25 412.477 1235.53 413.28 1233.36 412.114C1209.75 399.302 1176.18 406.141 1133.6 432.44L1068.72 472.462C1051.25 483.255 1040.1 486.222 1032.55 482.138L936.038 429.792C933.873 428.626 933.062 425.922 934.22 423.772Z" fill="#27096D"/>
<path d="M887.824 563.448L886.915 535.632C881.85 378.9 955.759 300.6 1027.14 256.531C1065.06 233.14 1093.56 215.545 1116.58 202.005C1121.69 198.986 1126.53 196.173 1131.14 193.523C1147.3 184.33 1160.66 177.317 1173.06 171.686C1197.87 160.423 1218.88 154.648 1250.83 147.737L1154.32 95.4136C1081.29 111.194 1065.44 121.002 930.621 204.2C859.233 248.247 785.316 326.56 790.402 483.286L791.312 511.102C792.156 536.952 796.911 566.952 808.639 590.306C815.676 604.311 825.2 615.927 837.924 622.818L934.436 675.164C900.549 656.797 889.177 604.809 887.824 563.448Z" fill="#27096D"/>
<mask id="mask2_113_858" style="mask-type:luminance" maskUnits="userSpaceOnUse" x="690" y="0" width="569" height="697">
<path d="M1258.66 146.24L962.426 696.164L690.951 549.924L987.187 0.000230077L1258.66 146.24Z" fill="white"/>
</mask>
<g mask="url(#mask2_113_858)">
<path d="M1153.66 100.096C1082.78 115.536 1067.77 124.772 932.972 207.977C835.963 267.854 790.8 357.852 794.844 483.148L795.761 510.949C796.313 528.433 799.255 561.73 812.605 588.3C819.817 602.643 829.056 612.943 840.051 618.904L907.296 655.371C887.892 626.12 884.052 584.018 883.383 563.585L882.473 535.769C878.284 407.022 924.84 314.438 1024.81 252.761C1063.43 228.926 1091.29 211.732 1114.32 198.163C1119.44 195.13 1124.31 192.318 1128.94 189.676C1145.61 180.158 1159.03 173.163 1171.21 167.635C1193.48 157.55 1212.91 151.786 1238.24 145.98L1153.66 100.096ZM821.557 310.079C845.229 266.136 880.703 229.787 928.293 200.415C1062.39 117.653 1079.6 107.023 1153.37 91.0579C1154.41 90.8312 1155.51 90.9901 1156.44 91.491L1252.95 143.837C1254.59 144.721 1255.49 146.535 1255.22 148.38C1254.98 150.218 1253.6 151.704 1251.78 152.092C1221.06 158.745 1199.7 164.48 1174.89 175.728C1162.98 181.153 1149.76 188.037 1133.35 197.392C1128.76 200.021 1123.93 202.834 1118.84 205.824C1095.88 219.358 1068.06 236.516 1029.57 260.274C932.475 320.2 887.29 410.205 891.378 535.487L892.265 563.309C892.924 583.344 898.05 650.371 936.564 671.249C938.706 672.422 939.51 675.104 938.344 677.269L938.336 677.283C937.178 679.433 934.473 680.244 932.331 679.072L835.811 626.74C823.182 619.881 812.69 608.288 804.658 592.303C790.543 564.196 787.445 529.447 786.856 511.231L785.968 483.446C783.765 415.968 795.507 358.439 821.557 310.079Z" fill="#27096D"/>
</g>
<path d="M1088.93 710.053C1127.82 686.041 1142.23 675.414 1141.07 640.023L1140.78 630.756C1140.36 617.824 1138.97 608.458 1132.95 605.195L1036.44 552.85C1042.45 556.126 1043.85 565.5 1044.26 578.41L1044.57 587.685C1045.71 623.068 1031.31 633.695 992.405 657.699C944.815 687.071 865.462 733.481 819.128 756.033L915.641 808.379C961.975 785.827 1041.33 739.417 1088.93 710.053Z" fill="#27096D"/>
<path d="M1042.56 621.347C1034.5 636.295 1018.83 646.61 994.733 661.483C953.749 686.767 877.947 731.491 828.793 756.216L915.748 803.376C964.285 779.518 1044.14 732.445 1086.59 706.26C1125.47 682.278 1137.7 673.105 1136.64 640.168L1136.33 630.894C1136.03 621.435 1135.14 611.434 1130.83 609.11L1047.44 563.875C1048.27 568.352 1048.56 573.321 1048.71 578.258L1049.01 587.547C1049.49 601.788 1047.38 612.398 1042.56 621.347ZM815.22 753.928C815.65 753.129 816.336 752.448 817.175 752.038C865.465 728.534 947.016 680.479 990.068 653.929C1028.95 629.909 1041.19 620.759 1040.13 587.822L1039.83 578.57C1039.52 569.089 1038.61 559.095 1034.3 556.756C1032.16 555.583 1031.36 552.886 1032.52 550.736C1033.7 548.58 1036.4 547.769 1038.55 548.942L1135.07 601.295C1143.71 605.966 1144.82 618.336 1145.22 630.604L1145.51 639.885C1146.76 677.951 1129.78 690.058 1091.26 713.837C1048.08 740.486 966.19 788.716 917.593 812.373C916.296 813.005 914.791 812.981 913.512 812.293L817 759.947C815.533 759.157 814.643 757.609 814.664 755.933C814.693 755.218 814.891 754.538 815.22 753.928Z" fill="#27096D"/>
<path d="M1085.68 863.918C1012.88 908.852 963.111 927.475 919.763 935.647L915.639 808.378C961.973 785.827 1041.33 739.417 1088.93 710.052C1127.82 686.041 1142.23 675.413 1141.07 640.023L1140.77 630.756C1139.94 604.648 1135.09 593.02 1096.19 617.031L1028.42 658.863C918.866 726.471 890.005 630.858 887.822 563.447L886.913 535.631C881.849 378.899 955.758 300.6 1027.14 256.531C1161.93 173.34 1177.8 163.554 1250.83 147.736L1254.96 274.954C1226.03 289.34 1134.97 339.564 1067.95 380.924C1036.92 400.081 1025.73 416.447 1026.54 441.735L1026.98 455.17C1027.77 479.638 1034.66 488.264 1066.39 468.678L1131.25 428.647C1268.2 344.104 1278.5 479.609 1279.79 519.174L1281.44 570.578C1285.04 680.954 1224.66 769.788 1144.13 825.552C1123.08 840.112 1103.67 852.824 1085.68 863.918Z" fill="white"/>
<mask id="mask3_113_858" style="mask-type:luminance" maskUnits="userSpaceOnUse" x="705" y="52" width="788" height="979">
<path d="M1492.95 272.447L1084.53 1030.63L705.39 802.46L1083.88 52.0856L1492.95 272.447Z" fill="white"/>
</mask>
<g mask="url(#mask3_113_858)">
<path d="M1246.48 150.735C1178.66 165.722 1161.89 176.048 1029.41 257.826C932.401 317.703 887.215 407.708 891.304 532.99L892.191 560.812C892.855 580.906 897.991 648.089 936.678 668.854C959.021 680.853 989.073 675.375 1026.02 652.582L1093.78 610.742C1114.49 597.967 1126.81 594.385 1134.94 598.767C1143.64 603.418 1144.76 615.825 1145.15 628.107L1145.44 637.388C1146.69 675.454 1129.71 687.561 1091.19 711.34C1048.76 737.518 968.987 784.542 920.104 808.626L923.973 927.774C971.35 918.003 1020.75 896.224 1083.26 857.643C1101.44 846.429 1121.03 833.553 1141.52 819.383C1230.74 757.615 1280.11 666.077 1276.93 568.219L1275.25 516.822C1273.98 477.493 1265.64 426.971 1233.12 409.524C1209.51 396.844 1176 403.723 1133.52 429.943L1068.65 469.965C1051.22 480.722 1040.08 483.72 1032.52 479.665C1024.29 475.25 1022.81 463.622 1022.45 452.818L1022.03 439.398C1021.14 412.306 1032.94 394.763 1065.55 374.657C1133.53 332.677 1220.72 284.771 1250.35 269.772L1246.48 150.735ZM918.017 359.921C941.681 315.993 977.148 279.622 1024.73 250.264C1158.81 167.494 1176.06 156.879 1249.81 140.907C1251.1 140.629 1252.46 140.928 1253.5 141.75C1254.54 142.557 1255.17 143.794 1255.19 145.102L1259.34 272.327C1259.4 274.064 1258.42 275.673 1256.88 276.453C1230.16 289.725 1140.09 339.093 1070.21 382.212C1040.43 400.58 1030.16 415.475 1030.91 439.086L1031.36 452.521C1031.73 463.776 1033.48 470.097 1036.72 471.827C1039.66 473.408 1046.75 473.048 1063.97 462.403L1128.84 422.358C1174.21 394.358 1210.72 387.395 1237.34 401.679C1266.03 417.075 1282.22 456.8 1284.16 516.525L1285.82 567.929C1289.12 668.869 1238.36 763.2 1146.59 826.706C1125.98 840.961 1106.24 853.907 1087.93 865.22C1022.22 905.785 970.57 928.079 920.524 937.517C919.247 937.766 917.943 937.438 916.919 936.625C915.895 935.811 915.29 934.604 915.249 933.288L911.117 806.034C911.075 804.268 912.04 802.651 913.613 801.887C961.926 778.377 1043.48 730.321 1086.51 703.763C1125.39 679.781 1137.62 670.608 1136.57 637.672L1136.26 628.397C1135.95 618.916 1135.06 608.915 1130.74 606.605C1127.5 604.86 1119.26 605.465 1098.45 618.319L1030.67 660.15C990.855 684.732 957.81 690.302 932.475 676.692C890.744 654.306 884.196 588.386 883.308 561.088L882.399 533.272C880.217 465.824 891.967 408.281 918.017 359.921Z" fill="#27096D"/>
</g>
<path d="M1336.97 639.266C1337.48 636.516 1337.26 634.243 1336.31 632.446C1335.36 630.649 1334 629.293 1332.24 628.376C1331.36 627.973 1330.39 627.643 1329.33 627.386C1328.3 627.129 1327.24 626.983 1326.14 626.946C1325.07 626.873 1324.01 626.909 1322.95 627.056C1321.88 627.166 1320.91 627.404 1320.03 627.771C1318.27 628.504 1316.77 629.623 1315.52 631.126C1314.31 632.629 1313.49 634.298 1313.05 636.131C1312.61 637.964 1312.62 639.853 1313.1 641.796C1313.61 643.739 1314.71 645.518 1316.4 647.131C1316.91 647.571 1317.48 647.956 1318.11 648.286C1318.73 648.616 1319.41 648.854 1320.14 649.001C1320.91 649.148 1321.74 649.313 1322.62 649.496C1323.5 649.643 1324.3 649.881 1325.04 650.211C1325.81 650.541 1326.47 650.981 1327.02 651.531C1327.57 652.044 1327.9 652.741 1328.01 653.621C1328.23 654.904 1327.97 655.858 1327.24 656.481C1326.54 657.104 1325.7 657.434 1324.71 657.471C1323.75 657.471 1322.84 657.178 1321.96 656.591C1321.11 656.004 1320.65 655.124 1320.58 653.951C1319.33 653.988 1317.94 653.969 1316.4 653.896C1314.86 653.786 1313.45 653.823 1312.17 654.006V654.171V654.336C1312.06 656.096 1312.37 657.673 1313.1 659.066C1313.83 660.423 1314.82 661.578 1316.07 662.531C1317.32 663.484 1318.73 664.236 1320.31 664.786C1321.92 665.299 1323.53 665.574 1325.15 665.611C1326.28 665.648 1327.38 665.556 1328.45 665.336C1329.55 665.079 1330.55 664.694 1331.47 664.181C1332.42 663.668 1333.27 663.008 1334 662.201C1334.73 661.394 1335.32 660.423 1335.76 659.286C1336.2 658.333 1336.51 657.343 1336.7 656.316C1336.92 655.253 1336.99 654.208 1336.92 653.181C1336.88 652.154 1336.7 651.164 1336.37 650.211C1336.04 649.221 1335.54 648.304 1334.88 647.461C1333.82 645.884 1332.44 644.583 1330.76 643.556C1329.11 642.529 1327.31 641.906 1325.37 641.686C1324.6 641.576 1323.88 641.374 1323.22 641.081C1322.56 640.788 1322.08 640.201 1321.79 639.321C1321.75 639.064 1321.72 638.826 1321.68 638.606C1321.68 638.349 1321.72 638.093 1321.79 637.836C1321.94 636.809 1322.41 636.113 1323.22 635.746C1324.06 635.379 1324.93 635.288 1325.81 635.471C1326.69 635.654 1327.44 636.076 1328.06 636.736C1328.68 637.396 1328.89 638.221 1328.67 639.211C1329.95 639.578 1331.32 639.743 1332.79 639.706C1334.26 639.633 1335.63 639.486 1336.92 639.266H1336.97ZM1331.42 696.031C1331.27 695.408 1331.07 694.564 1330.81 693.501C1330.55 692.438 1330.28 691.264 1329.99 689.981C1329.69 688.698 1329.38 687.359 1329.05 685.966C1328.76 684.573 1328.46 683.271 1328.17 682.061C1327.91 680.814 1327.66 679.714 1327.4 678.761C1327.18 677.771 1327.02 677.038 1326.91 676.561C1325.7 676.671 1324.71 676.744 1323.94 676.781C1323.2 676.781 1322.6 676.781 1322.12 676.781C1321.64 676.781 1321.26 676.781 1320.97 676.781C1320.67 676.781 1320.4 676.799 1320.14 676.836C1319.26 679.769 1318.45 682.721 1317.72 685.691C1316.99 688.661 1316.31 691.521 1315.69 694.271C1315.06 697.021 1314.51 699.624 1314.04 702.081C1313.6 704.501 1313.21 706.646 1312.88 708.516C1312.55 710.386 1312.29 711.908 1312.11 713.081C1311.93 714.254 1311.8 714.969 1311.73 715.226C1311.76 715.263 1311.8 715.281 1311.84 715.281C1314.33 715.244 1316.16 715.263 1317.34 715.336C1318.51 715.409 1319.24 715.409 1319.54 715.336C1319.57 715.336 1319.59 715.336 1319.59 715.336C1319.63 715.299 1319.66 715.281 1319.7 715.281C1320.03 714.658 1320.29 713.943 1320.47 713.136C1320.65 712.329 1320.82 711.504 1320.97 710.661C1321.15 709.781 1321.31 708.956 1321.46 708.186C1321.64 707.379 1321.86 706.683 1322.12 706.096C1322.52 706.096 1322.84 706.096 1323.06 706.096C1323.31 706.059 1323.53 706.041 1323.72 706.041C1323.94 706.041 1324.17 706.041 1324.43 706.041C1324.69 706.041 1325.05 706.078 1325.53 706.151C1325.79 706.701 1326.03 707.361 1326.25 708.131C1326.47 708.901 1326.67 709.708 1326.85 710.551C1327.07 711.394 1327.27 712.219 1327.46 713.026C1327.68 713.833 1327.9 714.529 1328.12 715.116H1328.17C1329.34 715.373 1330.59 715.519 1331.91 715.556C1333.23 715.629 1334.44 715.556 1335.54 715.336V715.281L1331.42 696.031ZM1325.81 699.606C1325.11 699.606 1324.41 699.624 1323.72 699.661C1323.02 699.661 1322.36 699.643 1321.74 699.606C1321.99 697.736 1322.21 695.994 1322.4 694.381C1322.62 692.768 1322.8 691.429 1322.95 690.366C1323.13 689.303 1323.31 688.606 1323.5 688.276C1323.72 687.909 1323.92 688.038 1324.1 688.661C1324.32 689.284 1324.56 690.476 1324.82 692.236C1325.11 693.996 1325.44 696.453 1325.81 699.606ZM1324.87 746.196C1324.8 746.233 1324.76 746.251 1324.76 746.251C1324.72 746.251 1324.71 746.269 1324.71 746.306V746.361C1324.78 747.021 1324.82 747.571 1324.82 748.011C1324.82 748.451 1324.8 748.891 1324.76 749.331C1324.76 749.734 1324.76 750.156 1324.76 750.596C1324.8 751.036 1324.85 751.549 1324.93 752.136C1325.11 752.209 1325.37 752.264 1325.7 752.301C1326.06 752.301 1326.45 752.301 1326.85 752.301C1327.29 752.264 1327.69 752.246 1328.06 752.246C1328.46 752.209 1328.78 752.209 1329 752.246C1329.11 752.283 1329.16 752.448 1329.16 752.741C1329.2 753.034 1329.2 753.364 1329.16 753.731C1329.16 754.098 1329.12 754.464 1329.05 754.831C1329.01 755.161 1328.98 755.399 1328.94 755.546C1328.79 756.059 1328.57 756.481 1328.28 756.811C1327.99 757.104 1327.64 757.343 1327.24 757.526C1326.72 757.709 1326.15 757.856 1325.53 757.966C1324.94 758.076 1324.38 758.094 1323.83 758.021C1323.31 757.911 1322.89 757.746 1322.56 757.526C1321.86 756.976 1321.41 756.224 1321.19 755.271C1320.97 754.318 1320.82 753.438 1320.75 752.631C1320.64 751.274 1320.56 749.844 1320.53 748.341C1320.49 746.838 1320.51 745.389 1320.58 743.996C1320.65 742.566 1320.76 741.228 1320.91 739.981C1321.09 738.734 1321.31 737.671 1321.57 736.791C1321.64 736.498 1321.74 736.204 1321.85 735.911C1321.99 735.581 1322.1 735.379 1322.18 735.306C1322.62 734.866 1323.13 734.646 1323.72 734.646C1324.3 734.646 1324.91 734.664 1325.53 734.701C1326.08 734.701 1326.56 734.884 1326.96 735.251C1327.36 735.581 1327.71 735.984 1328.01 736.461C1328.34 736.901 1328.59 737.396 1328.78 737.946C1329 738.459 1329.16 738.899 1329.27 739.266C1329.82 739.339 1330.3 739.394 1330.7 739.431C1331.1 739.468 1331.49 739.486 1331.86 739.486C1332.26 739.486 1332.64 739.486 1333.01 739.486C1333.41 739.449 1333.89 739.431 1334.44 739.431C1335.03 739.394 1335.45 739.376 1335.71 739.376C1335.96 739.376 1336.13 739.321 1336.2 739.211L1336.26 738.881C1336.51 736.644 1336.31 734.719 1335.65 733.106C1334.99 731.456 1334 730.136 1332.68 729.146C1331.36 728.156 1329.78 727.478 1327.95 727.111C1326.12 726.708 1324.19 726.634 1322.18 726.891C1321.19 727.038 1320.23 727.258 1319.32 727.551C1318.4 727.844 1317.57 728.303 1316.84 728.926C1315.78 729.659 1315.01 730.594 1314.53 731.731C1314.09 732.868 1313.78 734.041 1313.6 735.251C1313.41 736.424 1313.28 737.634 1313.21 738.881C1313.14 740.091 1313.08 741.283 1313.05 742.456C1313.01 743.813 1312.99 745.023 1312.99 746.086C1313.03 747.113 1313.06 748.103 1313.1 749.056C1313.17 749.973 1313.25 750.908 1313.32 751.861C1313.39 752.814 1313.49 753.878 1313.6 755.051C1313.67 755.784 1313.76 756.518 1313.87 757.251C1314.02 757.948 1314.15 758.498 1314.26 758.901C1314.7 760.478 1315.3 761.798 1316.07 762.861C1316.84 763.924 1317.96 764.768 1319.43 765.391C1320.31 765.758 1321.22 765.996 1322.18 766.106C1323.17 766.216 1324.17 766.216 1325.2 766.106C1326.23 766.033 1327.24 765.886 1328.23 765.666C1329.22 765.483 1330.17 765.263 1331.09 765.006C1332.48 764.493 1333.65 763.741 1334.61 762.751C1335.56 761.761 1336.13 760.331 1336.31 758.461C1336.68 756.481 1336.82 754.409 1336.75 752.246C1336.68 750.046 1336.53 747.974 1336.31 746.031L1336.26 745.976H1336.15C1335.78 745.976 1335.06 745.939 1334 745.866C1332.97 745.756 1331.86 745.683 1330.65 745.646C1329.44 745.609 1328.28 745.628 1327.18 745.701C1326.12 745.738 1325.35 745.903 1324.87 746.196ZM1331.42 796.031C1331.27 795.408 1331.07 794.564 1330.81 793.501C1330.55 792.438 1330.28 791.264 1329.99 789.981C1329.69 788.698 1329.38 787.359 1329.05 785.966C1328.76 784.573 1328.46 783.271 1328.17 782.061C1327.91 780.814 1327.66 779.714 1327.4 778.761C1327.18 777.771 1327.02 777.038 1326.91 776.561C1325.7 776.671 1324.71 776.744 1323.94 776.781C1323.2 776.781 1322.6 776.781 1322.12 776.781C1321.64 776.781 1321.26 776.781 1320.97 776.781C1320.67 776.781 1320.4 776.799 1320.14 776.836C1319.26 779.769 1318.45 782.721 1317.72 785.691C1316.99 788.661 1316.31 791.521 1315.69 794.271C1315.06 797.021 1314.51 799.624 1314.04 802.081C1313.6 804.501 1313.21 806.646 1312.88 808.516C1312.55 810.386 1312.29 811.908 1312.11 813.081C1311.93 814.254 1311.8 814.969 1311.73 815.226C1311.76 815.263 1311.8 815.281 1311.84 815.281C1314.33 815.244 1316.16 815.263 1317.34 815.336C1318.51 815.409 1319.24 815.409 1319.54 815.336C1319.57 815.336 1319.59 815.336 1319.59 815.336C1319.63 815.299 1319.66 815.281 1319.7 815.281C1320.03 814.658 1320.29 813.943 1320.47 813.136C1320.65 812.329 1320.82 811.504 1320.97 810.661C1321.15 809.781 1321.31 808.956 1321.46 808.186C1321.64 807.379 1321.86 806.683 1322.12 806.096C1322.52 806.096 1322.84 806.096 1323.06 806.096C1323.31 806.059 1323.53 806.041 1323.72 806.041C1323.94 806.041 1324.17 806.041 1324.43 806.041C1324.69 806.041 1325.05 806.078 1325.53 806.151C1325.79 806.701 1326.03 807.361 1326.25 808.131C1326.47 808.901 1326.67 809.708 1326.85 810.551C1327.07 811.394 1327.27 812.219 1327.46 813.026C1327.68 813.833 1327.9 814.529 1328.12 815.116H1328.17C1329.34 815.373 1330.59 815.519 1331.91 815.556C1333.23 815.629 1334.44 815.556 1335.54 815.336V815.281L1331.42 796.031ZM1325.81 799.606C1325.11 799.606 1324.41 799.624 1323.72 799.661C1323.02 799.661 1322.36 799.643 1321.74 799.606C1321.99 797.736 1322.21 795.994 1322.4 794.381C1322.62 792.768 1322.8 791.429 1322.95 790.366C1323.13 789.303 1323.31 788.606 1323.5 788.276C1323.72 787.909 1323.92 788.038 1324.1 788.661C1324.32 789.284 1324.56 790.476 1324.82 792.236C1325.11 793.996 1325.44 796.453 1325.81 799.606Z" fill="#27096D"/>
<path d="M1339.14 394.114C1332.45 398.457 1298.17 451.367 1298.17 456.895C1298.17 460.053 1303.29 462.028 1309.99 462.028H1321.81V537.048C1321.81 578.113 1323.38 612.069 1324.96 612.069C1328.51 612.069 1332.05 539.023 1331.66 481.77C1331.66 454.131 1330.87 452.156 1322.99 450.972C1317.87 450.182 1313.93 448.998 1313.93 447.813C1313.93 444.259 1342.3 406.749 1345.45 406.749C1347.02 406.749 1354.9 416.225 1362.78 427.281C1376.57 447.023 1376.97 448.208 1369.09 450.182C1360.81 452.156 1360.81 452.551 1360.03 682.747C1359.24 864.377 1360.42 913.732 1364.36 914.917C1367.91 916.496 1369.09 869.51 1369.09 689.459V462.028H1380.91C1387.6 462.028 1392.73 460.053 1392.73 458.079C1392.73 449.392 1351.75 390.955 1346.24 390.955C1344.66 390.955 1341.51 392.534 1339.14 394.114Z" fill="#27096D"/>
<path d="M119.871 610.546C118.761 607.978 117.309 606.215 115.515 605.257C113.721 604.299 111.838 603.931 109.866 604.153C108.911 604.31 107.921 604.578 106.895 604.959C105.9 605.319 104.936 605.792 104.003 606.375C103.08 606.908 102.218 607.532 101.418 608.248C100.597 608.933 99.9244 609.673 99.3991 610.469C98.3484 612.06 97.7257 613.827 97.5309 615.77C97.3665 617.693 97.6136 619.538 98.2723 621.304C98.9309 623.071 100.001 624.627 101.481 625.973C102.992 627.299 104.897 628.16 107.198 628.556C107.869 628.635 108.556 628.637 109.257 628.563C109.958 628.488 110.654 628.307 111.344 628.019C112.065 627.711 112.842 627.387 113.674 627.048C114.486 626.678 115.288 626.426 116.081 626.29C116.904 626.134 117.697 626.13 118.461 626.28C119.203 626.398 119.866 626.792 120.449 627.461C121.348 628.402 121.667 629.337 121.407 630.263C121.177 631.169 120.662 631.914 119.861 632.497C119.07 633.029 118.146 633.298 117.088 633.303C116.061 633.287 115.189 632.813 114.473 631.88C113.46 632.607 112.293 633.37 110.975 634.169C109.636 634.937 108.485 635.756 107.523 636.625L107.615 636.761L107.707 636.898C108.599 638.42 109.738 639.554 111.124 640.3C112.49 641.016 113.956 641.422 115.523 641.516C117.089 641.611 118.68 641.447 120.295 641.022C121.92 640.548 123.412 639.875 124.771 639.004C125.734 638.4 126.596 637.71 127.355 636.934C128.124 636.107 128.746 635.224 129.22 634.286C129.724 633.328 130.055 632.31 130.213 631.231C130.371 630.152 130.315 629.019 130.045 627.83C129.878 626.794 129.584 625.798 129.163 624.844C128.752 623.839 128.229 622.931 127.595 622.121C126.991 621.289 126.286 620.57 125.48 619.964C124.654 619.327 123.731 618.843 122.713 618.512C120.95 617.797 119.083 617.485 117.11 617.575C115.168 617.645 113.33 618.131 111.595 619.033C110.894 619.372 110.189 619.604 109.477 619.729C108.766 619.854 108.043 619.634 107.308 619.068C107.135 618.875 106.971 618.698 106.818 618.536C106.674 618.323 106.562 618.09 106.479 617.836C106.028 616.902 106.034 616.058 106.498 615.303C106.993 614.528 107.657 613.971 108.489 613.632C109.322 613.293 110.181 613.223 111.066 613.422C111.952 613.622 112.58 614.193 112.95 615.138C114.22 614.725 115.453 614.094 116.649 613.245C117.825 612.365 118.883 611.476 119.825 610.577L119.871 610.546ZM133.815 586.509C130.457 588.283 127.13 590.301 123.835 592.563C120.55 594.775 117.366 596.939 114.284 599.058C114.304 599.089 114.314 599.104 114.314 599.104C114.345 599.083 114.37 599.088 114.391 599.119C114.821 599.89 115.303 600.671 115.835 601.461C116.367 602.252 116.869 602.998 117.34 603.697C117.821 604.346 118.24 604.903 118.598 605.37C118.986 605.815 119.252 606.079 119.395 606.159C119.618 606.097 119.958 605.913 120.414 605.606C120.871 605.299 121.383 604.976 121.951 604.638C122.498 604.269 123.066 603.931 123.655 603.624C124.223 603.286 124.751 603.085 125.239 603.022L125.315 603.037C128.364 607.172 130.917 610.736 132.974 613.727C135.062 616.697 136.745 619.166 138.025 621.133C139.315 623.05 140.272 624.505 140.897 625.499C141.522 626.493 141.89 627.04 142.003 627.141C142.489 626.682 143.051 626.237 143.69 625.807C144.329 625.377 144.968 624.947 145.606 624.517C146.276 624.066 146.93 623.626 147.568 623.196C148.217 622.716 148.785 622.245 149.271 621.785L149.24 621.74L149.209 621.694C146.917 618.42 144.936 615.576 143.268 613.163C141.579 610.719 140.136 608.641 138.939 606.927C137.721 605.184 136.728 603.774 135.961 602.7C135.203 601.574 134.599 600.677 134.149 600.008C133.678 599.308 133.34 598.806 133.136 598.502C132.941 598.147 132.807 597.883 132.736 597.711C132.715 597.68 132.705 597.665 132.705 597.665C132.715 597.614 132.709 597.573 132.689 597.543L132.735 597.512L132.826 597.451C134.215 596.428 135.325 595.614 136.156 595.011C136.987 594.407 137.733 593.972 138.392 593.704C137.808 592.507 137.075 591.254 136.195 589.946C135.345 588.618 134.551 587.472 133.815 586.509ZM159.365 592.119C158.895 591.684 158.257 591.097 157.451 590.358C156.644 589.619 155.761 588.799 154.801 587.898C153.841 586.997 152.835 586.061 151.783 585.089C150.762 584.097 149.792 583.181 148.873 582.341C147.964 581.45 147.137 580.681 146.391 580.033C145.656 579.335 145.11 578.819 144.752 578.485C143.81 579.252 143.029 579.865 142.411 580.326C141.803 580.735 141.301 581.073 140.905 581.339C140.51 581.605 140.191 581.82 139.947 581.984C139.704 582.148 139.486 582.317 139.294 582.49C140.201 585.415 141.18 588.314 142.23 591.188C143.28 594.061 144.314 596.812 145.333 599.442C146.351 602.071 147.349 604.538 148.325 606.842C149.311 609.095 150.189 611.09 150.96 612.826C151.73 614.561 152.367 615.967 152.87 617.043C153.373 618.118 153.666 618.783 153.748 619.037C153.799 619.047 153.84 619.042 153.87 619.021C155.918 617.599 157.449 616.59 158.464 615.996C159.478 615.402 160.086 614.992 160.289 614.767C160.319 614.747 160.334 614.737 160.334 614.737C160.344 614.686 160.364 614.65 160.395 614.63C160.321 613.928 160.134 613.192 159.836 612.42C159.538 611.649 159.214 610.872 158.865 610.091C158.525 609.258 158.202 608.482 157.893 607.761C157.595 606.989 157.389 606.289 157.274 605.659C157.609 605.433 157.867 605.259 158.05 605.137C158.242 604.963 158.414 604.825 158.566 604.722C158.749 604.6 158.947 604.467 159.16 604.323C159.373 604.18 159.697 604.006 160.134 603.8C160.654 604.113 161.22 604.528 161.832 605.044C162.445 605.56 163.062 606.116 163.685 606.713C164.339 607.29 164.967 607.862 165.569 608.429C166.202 608.975 166.774 609.43 167.284 609.794L167.329 609.763C168.446 609.321 169.562 608.747 170.678 608.04C171.814 607.364 172.777 606.628 173.566 605.831L173.536 605.785L159.365 592.119ZM156.707 598.217C156.129 598.606 155.562 599.01 155.004 599.43C154.426 599.819 153.868 600.172 153.331 600.49C152.5 598.795 151.71 597.227 150.961 595.786C150.242 594.325 149.647 593.112 149.175 592.148C148.734 591.164 148.497 590.484 148.465 590.107C148.442 589.68 148.681 589.674 149.181 590.089C149.712 590.483 150.575 591.339 151.771 592.656C152.997 593.952 154.642 595.806 156.707 598.217ZM196.863 589.952C195.567 589.012 194.196 588.189 192.748 587.484C191.281 586.748 189.803 586.063 188.316 585.429C186.828 584.795 185.336 584.186 183.838 583.603C182.32 582.989 180.863 582.335 179.467 581.639L179.436 581.593L179.481 581.563L179.664 581.44C181.063 580.366 181.988 579.146 182.439 577.782C182.921 576.397 183.083 574.962 182.924 573.478C182.802 571.261 182.148 569.337 180.961 567.705C179.784 566.022 178.329 564.747 176.597 563.88C174.864 563.013 172.966 562.589 170.901 562.609C168.837 562.628 166.877 563.196 165.021 564.313C162.636 565.564 160.497 566.982 158.602 568.566C156.707 570.151 154.99 571.638 153.45 573.028C153.777 573.383 154.335 574.112 155.123 575.217C155.921 576.272 156.867 577.579 157.962 579.141C159.037 580.671 160.224 582.37 161.524 584.235C162.833 586.05 164.133 587.915 165.423 589.832C166.723 591.697 167.977 593.527 169.184 595.322C170.372 597.086 171.426 598.653 172.348 600.021C173.269 601.39 174.001 602.511 174.544 603.383C175.066 604.225 175.297 604.666 175.236 604.707C175.368 604.574 175.763 604.308 176.422 603.909C177.112 603.489 177.857 602.987 178.658 602.404C179.479 601.851 180.28 601.268 181.061 600.654C181.871 600.02 182.464 599.423 182.837 598.862C182.418 598.304 181.85 597.559 181.134 596.627C180.418 595.694 179.672 594.716 178.894 593.692C178.127 592.618 177.405 591.579 176.73 590.575C176.034 589.541 175.496 588.643 175.116 587.882L175.299 587.957C176.471 588.318 177.724 588.801 179.058 589.405C180.393 590.01 181.693 590.66 182.957 591.356C184.221 592.052 185.409 592.733 186.52 593.4C187.632 594.066 188.575 594.646 189.35 595.141L189.396 595.111C190.826 594.281 192.175 593.395 193.442 592.454C194.688 591.482 195.844 590.638 196.908 589.921L196.863 589.952ZM164.411 574.932C165.189 573.79 166.085 572.856 167.099 572.129C168.092 571.372 169.128 571.073 170.207 571.231C170.858 571.279 171.469 571.53 172.041 571.985C172.592 572.41 173.031 572.932 173.36 573.551C173.667 574.139 173.818 574.789 173.811 575.501C173.814 576.162 173.567 576.748 173.071 577.259C172.423 577.872 171.678 578.439 170.836 578.962C169.994 579.484 169.203 579.95 168.463 580.36L168.417 580.391C168.131 580.097 167.809 579.718 167.451 579.251C167.123 578.765 166.785 578.263 166.437 577.746C166.089 577.228 165.736 576.737 165.378 576.271C165.03 575.753 164.708 575.307 164.411 574.932ZM195.395 545.063C192.036 546.837 188.71 548.855 185.414 551.117C182.129 553.328 178.946 555.493 175.863 557.612C175.884 557.642 175.894 557.657 175.894 557.657C175.924 557.637 175.95 557.642 175.97 557.672C176.401 558.443 176.882 559.224 177.415 560.015C177.947 560.806 178.448 561.551 178.919 562.251C179.4 562.899 179.82 563.457 180.178 563.923C180.566 564.369 180.832 564.632 180.974 564.713C181.198 564.651 181.538 564.466 181.994 564.159C182.45 563.852 182.962 563.529 183.53 563.191C184.078 562.823 184.646 562.485 185.234 562.177C185.802 561.839 186.33 561.638 186.818 561.575L186.895 561.59C189.943 565.726 192.496 569.289 194.554 572.28C196.641 575.251 198.325 577.719 199.605 579.687C200.895 581.603 201.852 583.058 202.477 584.052C203.102 585.046 203.47 585.593 203.582 585.695C204.068 585.235 204.631 584.79 205.27 584.36C205.909 583.93 206.547 583.5 207.186 583.07C207.855 582.62 208.509 582.18 209.148 581.75C209.797 581.269 210.364 580.799 210.85 580.339L210.82 580.293L210.789 580.248C208.497 576.973 206.516 574.129 204.848 571.716C203.159 569.273 201.716 567.194 200.519 565.481C199.301 563.737 198.308 562.328 197.541 561.253C196.783 560.128 196.179 559.23 195.729 558.561C195.258 557.862 194.92 557.36 194.715 557.056C194.52 556.7 194.387 556.437 194.315 556.264C194.295 556.234 194.284 556.218 194.284 556.218C194.294 556.168 194.289 556.127 194.269 556.096L194.314 556.066L194.406 556.004C195.794 554.981 196.904 554.168 197.736 553.564C198.567 552.961 199.312 552.525 199.972 552.258C199.387 551.06 198.655 549.808 197.774 548.5C196.924 547.171 196.131 546.025 195.395 545.063ZM218.111 531.497C217.602 531.53 217.039 531.71 216.42 532.038C215.801 532.367 215.182 532.761 214.564 533.221C213.946 533.682 213.348 534.172 212.771 534.693C212.203 535.164 211.732 535.547 211.357 535.844C213.641 539.434 216.037 543.125 218.545 546.917C221.084 550.689 223.505 554.451 225.81 558.204C226.129 559.006 226.163 559.779 225.912 560.522C225.661 561.266 225.241 561.857 224.653 562.297C224.066 562.737 223.37 562.984 222.567 563.039C221.794 563.073 221.056 562.796 220.351 562.21C214.645 555.045 209.482 547.669 204.862 540.083L204.831 540.037C204.293 540.222 203.74 540.484 203.172 540.822C202.584 541.13 202 541.478 201.422 541.867C200.844 542.256 200.277 542.661 199.719 543.08C199.192 543.479 198.701 543.832 198.244 544.139L198.199 544.17L198.275 544.185C201.038 548.159 203.746 552.215 206.398 556.352C209.05 560.49 211.728 564.566 214.43 568.581C215.433 569.94 216.637 570.875 218.043 571.388C219.458 571.849 220.918 572.016 222.423 571.887C223.937 571.707 225.451 571.263 226.963 570.555C228.495 569.877 229.86 569.047 231.055 568.066C233.102 566.379 234.293 564.406 234.629 562.147C234.965 559.887 234.579 557.672 233.471 555.501C231.256 551.29 228.848 547.187 226.247 543.192C223.626 539.166 220.914 535.268 218.111 531.497ZM247.298 523.653C246.04 521.981 244.652 520.772 243.133 520.026C241.615 519.28 240.042 518.88 238.414 518.826C236.797 518.721 235.155 518.942 233.49 519.489C231.804 520.004 230.175 520.703 228.602 521.585C227.061 522.446 225.595 523.454 224.207 524.609C222.85 525.744 221.66 526.898 220.638 528.072C222.428 530.536 224.255 533.151 226.118 535.92C228.012 538.667 229.88 541.41 231.722 544.147C233.565 546.885 235.367 549.562 237.127 552.178C238.868 554.764 240.531 557.136 242.116 559.295C242.674 559.008 243.314 558.644 244.034 558.204C244.754 557.763 245.464 557.307 246.163 556.836C246.873 556.315 247.537 555.824 248.155 555.363C248.783 554.852 249.269 554.392 249.613 553.984C249.644 553.963 249.659 553.953 249.659 553.953C249.669 553.902 249.689 553.867 249.72 553.846L249.689 553.801C248.133 551.621 246.9 549.887 245.99 548.6C245.109 547.292 244.413 546.258 243.901 545.497C243.369 544.706 242.97 544.113 242.704 543.718C242.417 543.292 242.115 542.876 241.798 542.471C243.422 541.731 244.811 540.708 245.964 539.402C247.097 538.064 247.955 536.581 248.538 534.951C249.121 533.321 249.383 531.642 249.324 529.914C249.296 528.165 248.882 526.499 248.082 524.916C247.989 524.713 247.882 524.52 247.759 524.338C247.616 524.125 247.472 523.912 247.329 523.699L247.298 523.653ZM238.024 527.111C238.583 527.088 239.092 527.188 239.55 527.409C240.039 527.611 240.458 527.904 240.805 528.289C241.183 528.653 241.454 529.089 241.619 529.597C241.815 530.084 241.903 530.577 241.885 531.075C241.766 531.686 241.509 532.257 241.115 532.787C240.73 533.267 240.285 533.721 239.778 534.151C239.302 534.56 238.801 534.964 238.274 535.363C237.726 535.731 237.219 536.094 236.753 536.452L236.616 536.544C236.157 536.191 235.713 535.76 235.283 535.254C234.864 534.696 234.434 534.124 233.994 533.536C233.585 532.927 233.175 532.319 232.766 531.711C232.387 531.082 231.998 530.504 231.599 529.977C231.609 529.926 231.644 529.88 231.705 529.839C232.515 528.94 233.483 528.245 234.609 527.752C235.716 527.228 236.854 527.014 238.024 527.111Z" fill="#27096D"/>
<path d="M453.942 412.224C446.587 409.122 383.559 410.48 378.986 413.584C376.372 415.359 377.615 420.705 381.377 426.247L388.016 436.026L325.946 478.162C291.971 501.226 264.761 521.602 265.646 522.906C267.638 525.839 330.066 487.746 377.214 455.263C400.082 439.74 401.272 437.979 397.827 430.794C395.603 426.113 394.371 422.188 395.351 421.523C398.291 419.527 445.258 421.929 447.029 424.536C447.914 425.84 444.499 437.682 439.778 450.411C431.188 472.909 430.43 473.9 424.37 468.489C418.09 462.753 417.763 462.974 226.864 591.614C76.1463 692.975 35.9746 721.674 37.2074 725.599C37.8922 729.42 77.4315 704.007 226.4 602.881L414.57 475.142L421.208 484.921C424.97 490.463 429.48 493.592 431.114 492.483C438.301 487.604 463.637 420.881 460.539 416.318C459.654 415.014 456.576 413.293 453.942 412.224Z" fill="#27096D"/>
</svg>
